<?xml version="1.0" encoding="UTF-8"?>
<svg id="Layer_1" data-name="Layer 1" xmlns="http://www.w3.org/2000/svg" viewBox="0 0 265.92 235.54">
  <defs>
    <style>
      .cls-1 {
        stroke-width: 0px;
      }
    </style>
  </defs>
  <path class="cls-1" d="M247.56,216.39H20.09v-83.88h227.47v83.88ZM41.51,164.23v-17.84h6.36v-3.63h-17.07v3.63h6.37v17.84h4.34ZM56.43,160.97c-.44.35-.98.53-1.63.53-.95,0-1.74-.34-2.37-1.02s-.97-1.63-1-2.85h10.31c.06-3.15-.58-5.5-1.92-7.02s-3.16-2.29-5.48-2.29c-2.06,0-3.76.73-5.11,2.19-1.35,1.46-2.02,3.48-2.02,6.06,0,2.16.51,3.95,1.54,5.36,1.3,1.77,3.3,2.65,6.01,2.65,1.71,0,3.13-.39,4.27-1.18,1.14-.79,1.97-1.93,2.5-3.43l-4.1-.69c-.22.78-.56,1.35-1,1.7ZM51.5,155.11c0-1.12.28-2.01.86-2.67s1.33-.98,2.23-.98c.84,0,1.55.31,2.14.93s.89,1.53.92,2.72h-6.15ZM64.79,164.23h4.12v-7.56c0-1.49.11-2.56.33-3.21s.58-1.14,1.09-1.48,1.08-.51,1.71-.51c.53,0,.94.11,1.25.32s.53.54.68.98.22,1.42.22,2.93v8.53h4.12v-7.47c0-1.46.11-2.54.34-3.21s.59-1.19,1.1-1.55,1.05-.53,1.63-.53c.79,0,1.38.29,1.76.88.28.45.42,1.45.42,2.99v8.89h4.12v-9.95c0-1.48-.14-2.56-.42-3.22-.39-.9-.98-1.58-1.77-2.04-.79-.46-1.76-.7-2.9-.7-.9,0-1.74.21-2.53.62s-1.53,1.03-2.21,1.86c-.47-.83-1.07-1.45-1.8-1.86s-1.6-.62-2.59-.62c-1.88,0-3.49.83-4.85,2.48v-2.12h-3.79v15.56ZM91.66,170.14h4.12v-7.84c.77.83,1.51,1.42,2.2,1.76s1.48.51,2.34.51c1.81,0,3.34-.72,4.61-2.16s1.9-3.46,1.9-6.06-.63-4.5-1.89-5.92-2.79-2.12-4.6-2.12c-1.04,0-1.98.24-2.83.73s-1.52,1.12-2.02,1.9v-2.29h-3.84v21.47ZM96.72,152.73c.66-.78,1.5-1.16,2.5-1.16s1.78.4,2.43,1.19.98,2,.98,3.63c0,1.75-.32,3.01-.95,3.77s-1.43,1.15-2.39,1.15-1.84-.42-2.53-1.25c-.69-.83-1.04-2.13-1.04-3.87,0-1.52.33-2.67,1-3.45ZM118.11,160.97c-.44.35-.98.53-1.63.53-.95,0-1.74-.34-2.37-1.02s-.97-1.63-1-2.85h10.31c.06-3.15-.58-5.5-1.92-7.02s-3.16-2.29-5.48-2.29c-2.06,0-3.76.73-5.11,2.19-1.35,1.46-2.02,3.48-2.02,6.06,0,2.16.51,3.95,1.54,5.36,1.3,1.77,3.3,2.65,6.01,2.65,1.71,0,3.13-.39,4.27-1.18,1.14-.79,1.97-1.93,2.5-3.43l-4.1-.69c-.22.78-.56,1.35-1,1.7ZM113.19,155.11c0-1.12.28-2.01.86-2.67s1.33-.98,2.23-.98c.84,0,1.55.31,2.14.93s.89,1.53.92,2.72h-6.15ZM135.16,164.23h7.31c2.76-.02,4.51-.07,5.23-.15,1.15-.13,2.12-.47,2.91-1.02s1.41-1.29,1.86-2.21c.45-.92.68-1.87.68-2.85,0-1.24-.35-2.32-1.05-3.24s-1.71-1.57-3.02-1.95c.93-.42,1.66-1.05,2.2-1.89s.81-1.76.81-2.77c0-.93-.22-1.76-.66-2.51-.44-.75-.99-1.34-1.65-1.79s-1.41-.74-2.24-.89-2.1-.21-3.8-.21h-8.58v21.47ZM141.99,146.33c2.04,0,3.28.02,3.71.07.72.09,1.27.34,1.63.75s.55.95.55,1.62-.21,1.25-.64,1.68c-.42.43-1.01.68-1.75.77-.41.05-1.46.07-3.15.07h-2.84v-4.97h2.49ZM143,154.87c1.97,0,3.25.1,3.85.31s1.04.53,1.35.98.47,1,.47,1.64c0,.76-.2,1.37-.61,1.82-.41.46-.93.74-1.57.86-.42.09-1.41.13-2.97.13h-4.01v-5.74h3.5ZM160.9,146.56v-3.81h-4.12v3.81h4.12ZM160.9,164.23v-15.56h-4.12v15.56h4.12ZM176.27,149.54c-1.12-.81-2.62-1.22-4.52-1.22-2.31,0-4.15.72-5.51,2.15s-2.04,3.43-2.04,6,.68,4.53,2.03,5.96,3.17,2.15,5.44,2.15c2,0,3.6-.47,4.79-1.42s2-2.35,2.42-4.2l-4.04-.69c-.21,1.08-.56,1.85-1.05,2.29-.5.45-1.14.67-1.92.67-1.04,0-1.88-.38-2.5-1.14s-.93-2.07-.93-3.91c0-1.66.3-2.84.92-3.55.61-.71,1.43-1.06,2.45-1.06.77,0,1.4.21,1.88.62.48.41.79,1.02.93,1.83l4.06-.73c-.49-1.67-1.29-2.91-2.41-3.73ZM185.77,164.27c-.24.87-.6,1.58-1.05,2.15s-1.17.84-2.12.84c-.52,0-1.1-.06-1.74-.19l.37,3.22c.76.17,1.54.25,2.33.25s1.48-.08,2.1-.25c.62-.17,1.14-.4,1.57-.7.43-.3.8-.69,1.13-1.17.33-.48.67-1.17,1.03-2.08l.98-2.71,5.49-14.97h-4.26l-3.63,11.04-3.72-11.04h-4.38l5.92,15.6ZM209.64,149.54c-1.12-.81-2.62-1.22-4.52-1.22-2.31,0-4.15.72-5.51,2.15s-2.04,3.43-2.04,6,.68,4.53,2.03,5.96,3.17,2.15,5.44,2.15c2,0,3.6-.47,4.79-1.42s2-2.35,2.42-4.2l-4.04-.69c-.21,1.08-.56,1.85-1.05,2.29-.5.45-1.14.67-1.92.67-1.04,0-1.88-.38-2.5-1.14s-.93-2.07-.93-3.91c0-1.66.3-2.84.92-3.55.61-.71,1.43-1.06,2.45-1.06.77,0,1.4.21,1.88.62.48.41.79,1.02.93,1.83l4.06-.73c-.49-1.67-1.29-2.91-2.41-3.73ZM219.29,164.23v-21.47h-4.12v21.47h4.12ZM231.52,160.97c-.44.35-.98.53-1.63.53-.95,0-1.74-.34-2.37-1.02s-.97-1.63-1-2.85h10.31c.06-3.15-.58-5.5-1.92-7.02s-3.16-2.29-5.48-2.29c-2.06,0-3.76.73-5.11,2.19-1.35,1.46-2.02,3.48-2.02,6.06,0,2.16.51,3.95,1.54,5.36,1.3,1.77,3.3,2.65,6.01,2.65,1.71,0,3.13-.39,4.27-1.18,1.14-.79,1.97-1.93,2.5-3.43l-4.1-.69c-.22.78-.56,1.35-1,1.7ZM226.6,155.11c0-1.12.28-2.01.86-2.67s1.33-.98,2.23-.98c.84,0,1.55.31,2.14.93s.89,1.53.92,2.72h-6.15ZM51.23,178.75h-4.58l-8.36,21.47h4.6l1.77-4.88h8.58l1.88,4.88h4.72l-8.6-21.47ZM45.98,191.73l2.9-7.97,2.96,7.97h-5.86ZM73.25,185.54c-1.12-.81-2.62-1.22-4.52-1.22-2.31,0-4.15.72-5.51,2.15s-2.04,3.43-2.04,6,.68,4.53,2.03,5.96,3.17,2.15,5.44,2.15c2,0,3.6-.47,4.79-1.42s2-2.35,2.42-4.2l-4.04-.69c-.21,1.08-.56,1.85-1.05,2.29-.5.45-1.14.67-1.92.67-1.04,0-1.88-.38-2.5-1.14s-.93-2.07-.93-3.91c0-1.66.31-2.84.92-3.55.61-.71,1.43-1.06,2.45-1.06.77,0,1.4.21,1.88.62s.79,1.02.93,1.83l4.06-.73c-.49-1.67-1.29-2.91-2.41-3.73ZM83.1,184.67v-5.49l-4.13,2.4v3.09h-1.89v3.28h1.89v6.78c0,1.46.04,2.42.13,2.9.11.67.3,1.21.58,1.6.28.39.72.72,1.31.97.6.25,1.26.37,2.01.37,1.21,0,2.29-.21,3.25-.62l-.35-3.19c-.72.26-1.27.4-1.66.4-.27,0-.51-.07-.7-.21s-.31-.31-.37-.52c-.05-.21-.08-.95-.08-2.22v-6.27h2.81v-3.28h-2.81ZM92.89,182.56v-3.81h-4.12v3.81h4.12ZM92.89,200.23v-15.56h-4.12v15.56h4.12ZM97.16,196.78c.67,1.24,1.66,2.19,2.95,2.83s2.65.97,4.08.97c2.3,0,4.22-.77,5.73-2.32,1.52-1.55,2.28-3.5,2.28-5.85s-.75-4.26-2.26-5.79-3.43-2.29-5.79-2.29c-1.52,0-2.9.34-4.14,1.01s-2.19,1.65-2.86,2.93-1.01,2.6-1.01,3.97c0,1.79.34,3.3,1.01,4.55ZM101.47,188.9c.73-.82,1.64-1.23,2.71-1.23s1.98.41,2.7,1.23,1.09,1.99,1.09,3.52-.36,2.75-1.09,3.57-1.63,1.23-2.7,1.23-1.98-.41-2.71-1.23-1.1-2-1.1-3.54.37-2.72,1.1-3.54ZM129.58,190.56c0-1.2-.08-2.12-.23-2.77s-.42-1.22-.81-1.73-.95-.92-1.71-1.25c-.75-.33-1.58-.49-2.49-.49-2.06,0-3.77.88-5.13,2.64v-2.29h-3.82v15.56h4.12v-7.05c0-1.74.1-2.93.31-3.57s.6-1.16,1.16-1.55,1.21-.59,1.92-.59c.56,0,1.03.14,1.43.41s.68.66.86,1.15c.18.49.26,1.58.26,3.26v7.94h4.12v-9.67ZM157.08,192.33v2.72c-.65.51-1.44.94-2.35,1.3-.91.36-1.82.54-2.73.54-1.84,0-3.32-.64-4.45-1.91-1.13-1.27-1.7-3.19-1.7-5.73,0-2.36.56-4.15,1.68-5.35s2.62-1.8,4.52-1.8c1.25,0,2.29.31,3.13.92s1.4,1.44,1.71,2.5l4.31-.81c-.43-1.97-1.39-3.52-2.89-4.64-1.5-1.12-3.58-1.68-6.25-1.68-2.05,0-3.76.36-5.14,1.07-1.81.93-3.18,2.26-4.12,4s-1.41,3.73-1.41,5.96c0,2.06.42,3.97,1.26,5.72s2.09,3.1,3.76,4.04,3.63,1.41,5.87,1.41c1.77,0,3.51-.33,5.24-1,1.72-.67,3.04-1.44,3.95-2.32v-8.55h-9.35v3.62h4.97ZM169.37,195.42c0-2.65.11-4.38.34-5.21.23-.83.54-1.4.94-1.72s.89-.48,1.46-.48,1.24.22,1.93.67l1.27-3.59c-.87-.52-1.77-.78-2.71-.78-.66,0-1.26.17-1.78.5s-1.11,1.02-1.76,2.07v-2.21h-3.82v15.56h4.12v-4.8ZM177.16,196.78c.67,1.24,1.66,2.19,2.95,2.83,1.29.64,2.65.97,4.08.97,2.3,0,4.22-.77,5.74-2.32,1.52-1.55,2.28-3.5,2.28-5.85s-.75-4.26-2.26-5.79-3.43-2.29-5.79-2.29c-1.52,0-2.9.34-4.14,1.01-1.24.67-2.19,1.65-2.86,2.93s-1.01,2.6-1.01,3.97c0,1.79.34,3.3,1.01,4.55ZM181.47,188.9c.73-.82,1.64-1.23,2.71-1.23s1.97.41,2.7,1.23c.73.82,1.09,1.99,1.09,3.52s-.36,2.75-1.09,3.57c-.73.82-1.63,1.23-2.7,1.23s-1.98-.41-2.71-1.23-1.1-2-1.1-3.54.37-2.72,1.1-3.54ZM209.49,200.23v-15.56h-4.12v6.56c0,2.23-.1,3.62-.31,4.2-.21.57-.59,1.05-1.14,1.44s-1.19.58-1.89.58c-.62,0-1.12-.14-1.52-.43s-.68-.68-.83-1.17c-.15-.49-.23-1.83-.23-4.02v-7.15h-4.12v9.84c0,1.46.19,2.61.56,3.44s.97,1.47,1.8,1.93,1.77.69,2.81.69,2-.24,2.92-.72c.92-.48,1.67-1.13,2.23-1.96v2.33h3.82ZM213.63,206.14h4.12v-7.84c.77.83,1.51,1.42,2.21,1.76.7.34,1.48.51,2.34.51,1.81,0,3.34-.72,4.61-2.16s1.9-3.46,1.9-6.06-.63-4.5-1.89-5.92-2.79-2.12-4.6-2.12c-1.04,0-1.98.24-2.83.73s-1.52,1.12-2.02,1.9v-2.29h-3.84v21.47ZM218.7,188.73c.66-.78,1.5-1.16,2.5-1.16s1.78.4,2.43,1.19.98,2,.98,3.63c0,1.75-.32,3.01-.95,3.77s-1.43,1.15-2.39,1.15-1.84-.42-2.53-1.25c-.69-.83-1.04-2.13-1.04-3.87,0-1.52.33-2.67,1-3.45Z"/>
  <path class="cls-1" d="M145.28,101.14c-.49-.3-.69-1.67-.69-2.66s-1.67-1.67-2.66-1.87c-.99-.2-2.27-.99-2.27-.99,0,0,.69-.79.69-1.58s-1.67-4.73-1.77-5.71c-.1-.99-.59-5.12-2.07-6.5-1.48-1.38-1.08-1.48-2.27-1.87-1.18-.39-4.73-4.93-4.73-4.93l.1-5.81s3.74-.49,4.24-.29c.49.2,2.36.69,3.65.2,1.28-.49,2.56-2.86,3.55-3.25.99-.39,2.07-.49,2.07-1.87s-.69-1.58-1.28-1.77c-.59-.2-2.56-.3-3.84.39-1.28.69-13.5-1.87-14.39-2.56-.89-.69.39-3.35.39-4.24s4.14-5.71.49-9.66c-3.65-3.94-11.13-1.68-12.51,2.76-1.38,4.43.2,7.09.59,7.39.39.3,2.07,1.48,2.46,1.48s.59,2.76.59,2.76c0,0-6.8,3.25-7.29,5.12-.49,1.87-.79,5.02-.1,6.4.69,1.38,2.17,1.87,3.05,1.58.89-.3,1.18-.89,1.67-.69.49.2-1.92,5.55.59,8.47.59.69,2.17,1.28,2.17,1.28v1.97s-4.43.79-6.7,3.65c-2.27,2.86-2.07,3.75-2.56,4.14-.49.39-.89.49-1.18.3-.3-.2-1.08-3.06-4.14-2.66-3.05.39-3.74,4.24-3.65,5.52.1,1.28.2,6.4,3.05,6.9,2.86.49,4.14.2,5.03-2.66.89-2.86.2-2.66,1.58-2.76,1.38-.1,7.49-1.28,7.49-1.28,0,0,.79,1.67,2.66,1.87,1.87.2,3.25,0,3.55-.39.3-.39,1.58-2.27,1.67-.2.1,2.07.2,3.35,1.77,3.35s2.07.49,2.17,1.08c0,0,.69,6.6,3.84,7.69,3.15,1.08,5.03-1.58,5.22-2.27.2-.69.49-7.09.2-7.59-.29-.49,1.18-.2,1.18-.2,0,0,.49,2.66.89,3.05.39.39,1.87.69,3.55.69s3.25,0,3.74-.49c.49-.49.69-.98.2-1.28ZM100.94,99.66s-.98,2.96-1.87-2.76c0,0-.1-4.93,1.28-2.46,1.38,2.46.59,5.22.59,5.22ZM115.62,92.37s-4.24,2.17-6.9,1.38c0,0,2.3-4.51,6.21-5.52,3.05-.79,1.08,3.65.69,4.14ZM127.94,103.01c-1.28-2.96.59-5.52-.1-5.52s-1.18-2.86-.3-3.84c0,0,1.48,1.38,1.67,6.6.2,5.22,0,5.71-1.28,2.76Z"/>
  <path class="cls-1" d="M234.7,89.09c-.33-5.83-2.67-7.92-2.67-7.92v-2.17s.17.67.42-1.08.75-8.33.75-8.33c0,0-1,.42-1.17-.08s.33-2.08.67-2.42c.33-.33.17-2.42.08-2.83-.08-.42-1.75-1.92-1.75-1.92,0,0-7.83-.25-10.5-.25s-2.25,1.17-2.5,2.67c-.25,1.5,1,3.33,1,3.33,0,0-2.08.17-2.33-.17-.25-.33-.58-3.25-.25-4.58.33-1.33.42-2.25.42-2.25,0-1.17,0-1.75,1.92-2.17,1.92-.42,2.33-1.08,3.33-2.33s-.75-1.83-.75-1.83c0,0-2.25.42-.92-1.83,2.4-4.05,1.75-8.08,1.58-10.33s-1.5-4.92-1.5-4.92c0,0,1.67-1.25,1.67-1.83s.92-5.83-1.67-8.5c-2.58-2.67-9.58-4.17-10-4.17s-4.75,1.83-5.92,1.17c-1.17-.67-1.08-.58-1-2.92.08-2.33-.42-4.75-.42-4.75,0,0-2.25-.83-2.83-1-.58-.17-3.83-.58-5.83,1s-2.33,4.92-2.33,4.92c0,0-.42,1.08-1,1.92-.58.83-.08,1.25.75,1.5.83.25,2.75,1.92,2.75,1.92l-.25,1.67s-1.83,2-2.67,2.92c-.83.92-1.5,6.42-1.67,7-.17.58-8.58,17.75-8.58,17.75-3.42,2.33-3,7.33-2.5,8.08s2.58,2.58,3.17,2.58,1.58-.67,1.5-1.08c-.08-.42-1.25-.67-1.5-.67s-1.5-2.33-1.5-2.33l.67-.58s.25-.67,0-.92.67-.42,1-.42,1.17,1.33,1.58,1.33,1.58-2.08,1.58-2.08c0,0,3.33,1.25,4.25,1.5.92.25,1.67,1.58,1.67,1.58,0,0,.25,2.17.08,3-.17.83-1.17,1.92-1.17,1.92,0,0-.08,2.17-.17,2.58-.08.42-1.17,1.33-1.17,1.33h-5.83c-.33,0-.92-.58-1.58-.5-.67.08-2.58,1.25-3.33,1.42s-.75,4-.75,4c0,0-.67,1.42-1.33,2.42-.67,1-5,1.92-6.33,11.17-1.33,9.25,2.58,16.83,8.83,19,6.25,2.17,9.58-.83,12.17-3.33,2.58-2.5,4.83-9.75,4.83-13.67s-1.25-8.83-2.67-11.25c-1.42-2.42-1.17-3.08-1.17-3.08l1.25-1.08s1.75,4.33,2.83,5.92c1.08,1.58,3.67,1.58,3.67,1.58l3.08,4.5-.83,1s0,1.83.08,2.25c.08.42.33,1.5.33,2.42s1.33,1.58,1.92,1.58,6.25-2.08,6.25-2.08c0,0,1.61,8.31,3.67,10.17,9.5,8.58,15.25.75,17.33-1.92,2.08-2.67,3.58-7.67,3.25-13.5ZM191.2,97c-1.42,3.42-5.33,6.58-5.33,6.58l-2.58-6.83s1.33,7.25.58,7.58c-.75.33-3.25-.17-3.83-.42-.58-.25-1.58-1.25-1.58-1.25l3.42-6.17-5.75,5.33s-1-2.33-2.17-7.17c-1.17-4.83,2.92-10.5,2.92-10.5.67-.33.5.08.5,1.92s.58,4.08,2,4.92c1.42.83.42,1.58-.17,2.33-.58.75.83,1.58.83,1.58,0,0,5.42.92,6.33.58.92-.33.33-1.92,1.08-2.58.75-.67,4-3.75,4-3.75,0,0,1.17,4.42-.25,7.83ZM193.28,59.17c-.25-.42-.25-2-1.92-1.33-1.67.67-1.25,1.17-1.67,1.17s-3.92-1.25-4.58-1.67c0,0,7.5-12.08,8.67-15.25,1.17-3.17,3-4.92,3.67-4.83.67.08,4.42,3.67,5.92,4.33,1.5.67,2.67.5,2.67,1.42s.42,4.33.17,5.25c-.25.92-2.42,5.92-3.33,6.5-.92.58-2.25.83-2.83.83s-2.25,3-3,3.25-3.5.75-3.75.33ZM207.7,64.75l-12-.17s-.08-1.17.25-1.17,3.5.33,5.67-1.83c2.17-2.17,4.5-4.42,4.5-4.42,0,0,1.25,7,1.58,7.58ZM207.87,86.17c-.67.08-1.42-.92-1.42-.92,0,0,1.17-2.08,1.17-2.75s-2.42-4.08-4.42-6.33-3.92-2.17-4.33-1c-.42,1.17-.75,1.08-1.17,1.08s-2.33-2.83-3.33-5.42c-1-2.58,1.5.09,1.5.09,0,0,3.25.17,3.42-.08.17-.25.08-1.75.08-1.75,0,0-2.42-.3-2.84-.3s-.5-1.88-.5-1.88l12.33.17s.42.75.58,1.58c.17.83.83,4.67.83,4.67,0,0,.08,7.67.08,8.5s-2,4.33-2,4.33ZM225.62,86.25c.33.08.08,2.42.08,2.42-.25-.25-1.75-2.17-1.83-2.5-.08-.33,1.42,0,1.75.08ZM223.03,90.25h-1.25s-1.75-4.42-1.67-4.92c.08-.5,2.75,2.83,2.92,4.92ZM230.37,96.84c-1.92,4.75-3.42,5.42-3.42,5.42l-1.83-7.33s-1.25,8.92-1.67,9.17c-.42.25-3.75.08-4.92-.92-1.17-1-2.25-2.42-2.33-2.67-.08-.25.17-.83.92-.83s2.17-.58,3.33-1.67c1.17-1.08,2.83-2.92,3.08-3,.25-.08,2.58-.25,3-.83.42-.58,1.58-2,.17-4l1-4.17s.83,0,1.17-.25c.33-.25,1.25-.75,1.5-.42.25.33,1.92,6.75,0,11.5Z"/>
  <g>
    <path class="cls-1" d="M51.38,93.61l-3.72,6.04.9,2.31,1.03-.26s1.67-7.58,1.8-8.09Z"/>
    <path class="cls-1" d="M52.92,93.48l.64,6.55s2.31-1.28,2.31-2.44-2.95-4.11-2.95-4.11Z"/>
  </g>
  <path class="cls-1" d="M77.45,27.99c1.16,0,2.18-.77,2.05-1.41-.13-.64-.51-1.03-1.16-3.21-.64-2.18-2.82-2.83-4.24-3.85-1.41-1.03-5.65.26-6.55.51-.9.26-1.67.77-1.67,2.83s.51,1.8-1.16,1.16c-1.67-.64-6.55.26-6.55.26,0,0-2.31,2.95-3.21,3.85-.9.9-5.14,4.11-7.7,5.65-2.57,1.54-1.28,1.41-1.28,1.41,0,0,.13,2.05-.26,5.91-.38,3.85-.39,3.72-.77,4.11-.39.39-1.03,1.03-1.67,2.31s-2.44,7.06-2.7,12.71c-.26,5.65-1.41,4.49-2.05,5.26-.64.77-.9,1.03-1.8,2.18-.9,1.16-3.6,11.04-5.14,17.59-1.54,6.55,1.54,11.04,1.54,11.04,3.21,1.93,3.85-.77,4.37-1.28.51-.51,4.24-7.7,4.24-7.7l4.11.77.64-.38s-1.03,2.95-1.28,3.98c-.26,1.03-1.03,3.34-1.03,10.27s2.57,7.32,2.57,7.32c0,0,2.31,1.03,5.01-.13,2.7-1.16,4.37-4.24,6.55-6.81,2.18-2.57,6.55-11.81,6.55-18.62s-1.54-13.48-1.54-13.48c0,0,1.03-3.21,2.05-3.21s3.21-1.41,3.21-1.8,1.28-2.18,1.28-2.18l3.34.39s-.26,2.18.13,2.18c1.5,0,1.54-.9,1.8-1.54.26-.64.77-1.03.77-1.03,0,0,.64.51,1.93-.39q1.28-.9.39-2.57c-.9-1.67-.77-2.57-.77-2.57l.77-8.35s.26-6.81-.13-10.79c-.39-3.98-2.82-6.42-2.82-6.42l.9-1.54s.13-2.44,1.28-2.44ZM36.49,88.08c-.9.64-.39-2.57-.13-4.49,0,0,2.05.13,2.18.9.13.77-1.16,2.95-2.05,3.59ZM39.7,79.35c-1.8-.51-2.7-.51-1.54-1.54,0,0,1.93-3.47,2.31-3.47s1.41.51,1.28,2.57c-.13,2.05-.26,2.95-2.05,2.44ZM59.62,59.77c.26-.07.5-.16.71-.29s.37-.26.47-.4l.28.05-.69,3.53-.43-.08.53-2.75c-.12.08-.28.15-.47.22-.19.07-.35.11-.5.13l.08-.42ZM50.74,55.98c1.67,1.28,6.42,1.93,6.42,1.93l-.26,3.47-.64.77-6.55.77,1.03-6.93ZM44.84,64.59l3.08-4.5-.77,3.98-2.31.51ZM48.17,67.28c.13-.77,7.58-1.41,7.58-1.41l-.64,1.54-1.93.13-6.29,8.35,1.28-8.6ZM58.83,93.73c-2.18,5.65-6.29,9.12-7.7,10.4-1.41,1.28-1.67,2.31-3.47-1.03-1.8-3.34.77-11.17.9-12.84s2.05.26,2.05.26l.77-.51s2.05-8.22,2.18-8.86c.13-.64,3.72-2.7,3.72-2.7,0,0-.13,1.16-.13,2.44s-2.44,11.04-2.44,11.04l2.57.51s2.05-6.29,2.05-7.45,1.54-4.88,1.54-3.85.13,6.93-2.05,12.58ZM63.96,60.83c-.04.14-.1.27-.19.39-.09.12-.22.23-.39.35-.17.11-.44.26-.82.43-.31.15-.51.25-.61.3-.09.06-.17.12-.24.18l1.7.45-.11.41-2.29-.61c.02-.1.07-.2.13-.28.1-.14.23-.27.4-.39.17-.12.4-.24.69-.38.46-.21.78-.38.96-.53.18-.14.29-.3.33-.46.04-.17.02-.33-.07-.47-.09-.15-.23-.25-.42-.3-.2-.05-.38-.04-.54.05s-.26.24-.32.46l-.42-.16c.12-.32.29-.54.54-.65.24-.12.52-.13.85-.05.33.09.57.25.71.49.14.24.18.49.11.76ZM66.72,61.76c-.03.15-.09.28-.2.39-.1.11-.24.19-.42.23.2.09.34.22.43.39.09.17.11.37.07.6-.06.31-.22.55-.48.72s-.57.23-.91.17c-.31-.06-.55-.2-.72-.42-.17-.22-.24-.48-.22-.78l.44.02c0,.25.06.45.16.58.1.13.24.21.41.24.2.04.39,0,.55-.12.17-.12.27-.28.31-.49.04-.2,0-.37-.11-.53-.11-.15-.26-.25-.46-.28-.08-.01-.19-.02-.31,0l.12-.37s.05.01.07.02c.18.03.36.02.52-.05.16-.07.27-.2.3-.4.03-.16,0-.3-.09-.42-.09-.12-.22-.2-.39-.23-.17-.03-.32,0-.45.08s-.23.23-.3.44l-.42-.16c.11-.28.27-.48.48-.61.22-.13.46-.16.74-.11.19.03.36.11.51.22.15.11.25.25.31.41s.07.32.05.48ZM73.34,57.4l-.13,1.54-3.34.9s-1.16-1.54-1.67-1.67c-.51-.13-1.8-.64-1.8-.64,0,0,.26-3.85-1.8-5.91-2.05-2.05-4.37-4.62-4.37-4.62l.39-1.93s10.27-5.26,10.79-6.04c.51-.77.64.64.64.64,0,0,.39,1.54.39,2.05s.26,7.32.26,8.47.77,5.14.77,5.14l.39,1.28-.51.77Z"/>
</svg>