<svg xmlns="http://www.w3.org/2000/svg" data-name="Layer 1" viewBox="0 0 792 435.73"><path d="M408.49 307.29c-15.55-17.61-24.98-40.75-24.98-66.09V14.92c0-1.01-.96-1.75-1.93-1.48l-21.91 5.87c-.67.18-1.14.79-1.14 1.48v128.25c0 .7-.47 1.3-1.14 1.48l-68.24 18.28c-39.92 10.7-63.7 51.88-53 91.8 8.77 32.72 38.53 55.57 72.37 55.57 6.54 0 13.08-.87 19.43-2.57 11.75-3.15 22.1-8.94 30.58-16.56 2.6-2.34 5.02-4.84 7.26-7.5.75-.89 2.15-.69 2.6.38 3.98 9.39 9.07 18.19 15.12 26.23h.58l23.67-6.34c1.11-.3 1.5-1.65.74-2.51l-.02-.02Zm-49.96-66.06c0 22.06-14.72 42.25-37.05 48.23-26.65 7.14-54.05-8.68-61.2-35.33-7.14-26.65 8.68-54.05 35.33-61.2l60.98-16.34c.98-.26 1.93.47 1.93 1.48v63.16Zm193.79 24.97c.88.24 1.37 1.19 1.04 2.03-11.05 28.59-38.74 47.94-69.88 47.94-6.54 0-13.08-.87-19.43-2.57-11.75-3.15-22.1-8.94-30.58-16.56-15.67-14.07-24.98-34.39-24.98-55.86V7.4c0-.7.47-1.3 1.14-1.48L431.54.05c.98-.26 1.93.47 1.93 1.48v126.6c0 1.01.96 1.75 1.93 1.48l94.38-25.29c.98-.26 1.93.47 1.93 1.48v22.69c0 .7-.47 1.3-1.14 1.48l-95.97 25.72c-.67.18-1.14.79-1.14 1.48v84.06c0 22.06 14.72 42.25 37.05 48.23 24.16 6.47 48.93-5.92 58.68-28.15.31-.7 1.07-1.08 1.8-.88l21.32 5.75ZM0 375.18h13.32c8.59 0 14.96 1.06 19.14 3.19s7.61 5.59 10.31 10.38 4.05 10.39 4.05 16.78c0 4.55-.76 8.73-2.27 12.55s-3.6 6.98-6.26 9.5c-2.66 2.52-5.54 4.26-8.65 5.22-3.1.96-8.48 1.45-16.13 1.45H0v-59.07Zm11.16 10.84v37.26h5.22c5.14 0 8.87-.59 11.18-1.77 2.32-1.18 4.21-3.16 5.68-5.95 1.47-2.79 2.21-6.22 2.21-10.29 0-6.27-1.75-11.13-5.26-14.59-3.16-3.11-8.23-4.66-15.22-4.66h-3.81Zm74.27-12.32c8.36 0 15.54 3.02 21.56 9.07 6.01 6.05 9.02 13.43 9.02 22.13s-2.97 15.92-8.9 21.88c-5.93 5.97-13.13 8.95-21.6 8.95s-16.23-3.06-22.1-9.2c-5.87-6.13-8.8-13.41-8.8-21.84 0-5.65 1.37-10.84 4.1-15.58 2.73-4.74 6.49-8.49 11.27-11.26 4.78-2.77 9.93-4.16 15.45-4.16Zm-.12 11c-5.47 0-10.06 1.9-13.79 5.7-3.73 3.8-5.59 8.63-5.59 14.5 0 6.53 2.34 11.7 7.03 15.5 3.64 2.97 7.82 4.46 12.54 4.46 5.33 0 9.87-1.93 13.63-5.78 3.75-3.86 5.63-8.61 5.63-14.26s-1.89-10.38-5.67-14.27c-3.78-3.9-8.37-5.84-13.79-5.84Zm36.82-9.52h11.06l8.53 37.7 10.55-37.7h9.35l10.7 37.7 8.45-37.7h11.06l-13.31 59.07h-10.78l-10.88-38.19-10.68 38.19H135.5l-13.37-59.07Zm81.81 0h10.79L240 414.05v-38.87h11.24v59.07h-10.82l-25.24-38.75v38.75h-11.24v-59.07Zm59.9 0h32.65v11.08h-10.76v47.98h-11.4v-47.98h-10.48v-11.08Zm69.89-1.48c8.36 0 15.54 3.02 21.56 9.07 6.01 6.05 9.02 13.43 9.02 22.13s-2.97 15.92-8.9 21.88c-5.93 5.97-13.13 8.95-21.6 8.95s-16.23-3.06-22.1-9.2c-5.87-6.13-8.8-13.41-8.8-21.84 0-5.65 1.37-10.84 4.1-15.58 2.73-4.74 6.49-8.49 11.27-11.26 4.78-2.77 9.93-4.16 15.45-4.16Zm-.12 11c-5.47 0-10.06 1.9-13.79 5.7-3.73 3.8-5.59 8.63-5.59 14.5 0 6.53 2.34 11.7 7.03 15.5 3.64 2.97 7.82 4.46 12.54 4.46 5.33 0 9.87-1.93 13.63-5.78 3.75-3.86 5.63-8.61 5.63-14.26s-1.89-10.38-5.67-14.27c-3.78-3.9-8.37-5.84-13.79-5.84Zm38.47-9.52h11.06l8.53 37.7 10.55-37.7h9.35l10.7 37.7 8.45-37.7h11.06l-13.31 59.07h-10.78l-10.88-38.19-10.68 38.19h-10.68l-13.37-59.07Zm83.45 0h10.79l25.27 38.87v-38.87h11.24v59.07h-10.82l-25.24-38.75v38.75h-11.24v-59.07Zm87.85 0h32.65v11.08h-10.76v47.98h-11.4v-47.98h-10.48v-11.08Zm45.33 0h32.24v11h-21.08v10.68h21.08v10.8h-21.08v15.54h21.08v11.04h-32.24v-59.07Zm53.39 0h10.95l13.69 41.2 13.82-41.2h10.95l9.91 59.07h-10.87l-6.33-37.3-12.55 37.3h-9.91l-12.44-37.3-6.48 37.3h-10.96l10.23-59.07Zm71.52 0h11.92c6.45 0 11.1.6 13.95 1.79 2.85 1.19 5.1 3.12 6.75 5.78 1.65 2.66 2.47 5.86 2.47 9.58 0 4.12-1.08 7.55-3.23 10.28-2.16 2.73-5.08 4.63-8.77 5.7-2.17.62-6.12.92-11.85.92v25.02h-11.24v-59.07Zm11.24 23.09h3.57c2.81 0 4.76-.2 5.86-.6 1.1-.4 1.96-1.07 2.59-1.99.63-.93.94-2.05.94-3.36 0-2.28-.88-3.95-2.65-5-1.28-.78-3.67-1.17-7.15-1.17h-3.17v12.13Zm34.9-23.09H792v11h-21.08v10.68H792v10.8h-21.08v15.54H792v11.04h-32.24v-59.07Z" class="cls-1"/></svg>