<?xml version="1.0" encoding="UTF-8"?>
<svg id="Layer_1" data-name="Layer 1" xmlns="http://www.w3.org/2000/svg" viewBox="0 0 203.57 94.84">
  <defs>
    <style>
      .cls-1 {
        fill: #231f20;
        stroke-width: 0px;
      }
    </style>
  </defs>
  <path class="cls-1" d="M1.97,80.81s-3.08-4.49-1.54-11.04c1.54-6.55,4.24-16.44,5.14-17.59.9-1.16,1.16-1.41,1.8-2.18.64-.77,1.8.39,2.05-5.26s2.05-11.43,2.7-12.71c.64-1.28,1.28-1.93,1.67-2.31s.39-.26.77-4.11.26-5.91.26-5.91c0,0-1.28.13,1.28-1.41,2.57-1.54,6.81-4.75,7.7-5.65s3.21-3.85,3.21-3.85c0,0,4.88-.9,6.55-.26,1.67.64,1.16.9,1.16-1.16s.77-2.57,1.67-2.83,5.14-1.54,6.55-.51c1.41,1.03,3.6,1.67,4.24,3.85.64,2.18,1.03,2.57,1.16,3.21s-.9,1.41-2.05,1.41-1.28,2.44-1.28,2.44l-.9,1.54s2.44,2.44,2.82,6.42c.39,3.98.13,10.79.13,10.79l-.77,8.35s-.13.9.77,2.57q.9,1.67-.39,2.57c-1.28.9-1.93.39-1.93.39,0,0-.51.39-.77,1.03-.26.64-.3,1.54-1.8,1.54-.39,0-.13-2.18-.13-2.18l-3.34-.39s-1.28,1.8-1.28,2.18-2.18,1.8-3.21,1.8-2.05,3.21-2.05,3.21c0,0,1.54,6.68,1.54,13.48s-4.37,16.05-6.55,18.62c-2.18,2.57-3.85,5.65-6.55,6.81-2.7,1.16-5.01.13-5.01.13,0,0-2.57-.39-2.57-7.32s.77-9.25,1.03-10.27c.26-1.03,1.28-3.98,1.28-3.98l-.64.38-4.11-.77s-3.72,7.19-4.24,7.7-1.16,3.21-4.37,1.28ZM29.07,31.5s2.31,2.57,4.37,4.62,1.8,5.91,1.8,5.91c0,0,1.28.51,1.8.64s1.67,1.67,1.67,1.67l3.34-.9.13-1.54.51-.77-.39-1.28s-.77-3.98-.77-5.14-.26-7.96-.26-8.47-.39-2.05-.39-2.05c0,0-.13-1.41-.64-.64-.51.77-10.79,6.04-10.79,6.04l-.39,1.93ZM8.52,63.86c1.8.51,1.93-.38,2.05-2.44.13-2.05-.9-2.57-1.28-2.57s-2.31,3.47-2.31,3.47c-1.16,1.03-.26,1.03,1.54,1.54ZM5.31,72.59c.9-.64,2.18-2.82,2.05-3.59-.13-.77-2.18-.9-2.18-.9-.26,1.93-.77,5.14.13,4.49ZM16.74,44.6l-3.08,4.5,2.31-.51.77-3.98ZM19.56,40.49l-1.03,6.93,6.55-.77.64-.77.26-3.47s-4.75-.64-6.42-1.93ZM23.54,76.44s2.44-9.76,2.44-11.04.13-2.44.13-2.44c0,0-3.6,2.05-3.72,2.7-.13.64-2.18,8.86-2.18,8.86l-.77.51s-1.93-1.93-2.05-.26c-.13,1.67-2.7,9.5-.9,12.84,1.8,3.34,2.06,2.31,3.47,1.03s5.52-4.75,7.7-10.4c2.18-5.65,2.05-11.56,2.05-12.58s-1.54,2.7-1.54,3.85-2.05,7.45-2.05,7.45l-2.57-.51ZM17,51.79l-1.28,8.6,6.29-8.35,1.93-.13.64-1.54s-7.45.64-7.58,1.41ZM20.21,78.11l-3.72,6.04.9,2.31,1.03-.26s1.67-7.58,1.8-8.09ZM21.75,77.99l.64,6.55s2.31-1.28,2.31-2.44-2.95-4.11-2.95-4.11Z"/>
  <path class="cls-1" d="M84.54,67.22s-1.58-.59-2.17-1.28c-2.51-2.93-.1-8.28-.59-8.47-.49-.2-.79.39-1.67.69-.89.3-2.36-.2-3.05-1.58-.69-1.38-.39-4.53.1-6.4.49-1.87,7.29-5.12,7.29-5.12,0,0-.2-2.76-.59-2.76s-2.07-1.18-2.46-1.48c-.39-.3-1.97-2.96-.59-7.39,1.38-4.43,8.87-6.7,12.51-2.76,3.65,3.94-.49,8.77-.49,9.66s-1.28,3.55-.39,4.24c.89.69,13.1,3.25,14.39,2.56,1.28-.69,3.25-.59,3.84-.39.59.2,1.28.39,1.28,1.77s-1.08,1.48-2.07,1.87c-.99.39-2.27,2.76-3.55,3.25-1.28.49-3.15,0-3.65-.2-.49-.2-4.24.29-4.24.29l-.1,5.81s3.55,4.53,4.73,4.93c1.18.39.79.49,2.27,1.87,1.48,1.38,1.97,5.52,2.07,6.5.1.99,1.77,4.93,1.77,5.71s-.69,1.58-.69,1.58c0,0,1.28.79,2.27.99.99.2,2.66.89,2.66,1.87s.2,2.36.69,2.66c.49.3.3.79-.2,1.28-.49.49-2.07.49-3.74.49s-3.15-.3-3.55-.69c-.39-.39-.89-3.05-.89-3.05,0,0-1.48-.3-1.18.2.29.49,0,6.9-.2,7.59-.2.69-2.07,3.35-5.22,2.27-3.15-1.08-3.84-7.69-3.84-7.69-.1-.59-.59-1.08-2.17-1.08s-1.68-1.28-1.77-3.35c-.1-2.07-1.38-.2-1.67.2-.3.39-1.68.59-3.55.39s-2.66-1.87-2.66-1.87c0,0-6.11,1.18-7.49,1.28-1.38.1-.69-.1-1.58,2.76-.89,2.86-2.17,3.15-5.03,2.66-2.86-.49-2.96-5.62-3.05-6.9-.1-1.28.59-5.12,3.65-5.52,3.05-.39,3.84,2.46,4.14,2.66s.69.1,1.18-.3c.49-.39.3-1.28,2.56-4.14,2.27-2.86,6.7-3.65,6.7-3.65v-1.97ZM69.76,84.17s.79-2.76-.59-5.22-1.28,2.46-1.28,2.46c.89,5.71,1.87,2.76,1.87,2.76ZM84.44,76.88c.39-.49,2.36-4.93-.69-4.14-3.91,1.01-6.21,5.52-6.21,5.52,2.66.79,6.9-1.38,6.9-1.38ZM96.66,82c.69,0-1.18,2.56.1,5.52,1.28,2.96,1.48,2.46,1.28-2.76-.2-5.22-1.67-6.6-1.67-6.6-.89.99-.39,3.84.3,3.84Z"/>
  <path class="cls-1" d="M150.35,40.76s8.42-17.17,8.58-17.75c.17-.58.83-6.08,1.67-7,.83-.92,2.67-2.92,2.67-2.92l.25-1.67s-1.92-1.67-2.75-1.92c-.83-.25-1.33-.67-.75-1.5.58-.83,1-1.92,1-1.92,0,0,.33-3.33,2.33-4.92s5.25-1.17,5.83-1c.58.17,2.83,1,2.83,1,0,0,.5,2.42.42,4.75-.08,2.33-.17,2.25,1,2.92,1.17.67,5.5-1.17,5.92-1.17s7.42,1.5,10,4.17c2.58,2.67,1.67,7.92,1.67,8.5s-1.67,1.83-1.67,1.83c0,0,1.33,2.67,1.5,4.92s.81,6.29-1.58,10.33c-1.33,2.25.92,1.83.92,1.83,0,0,1.75.58.75,1.83s-1.42,1.92-3.33,2.33c-1.92.42-1.92,1-1.92,2.17,0,0-.08.92-.42,2.25-.33,1.33,0,4.25.25,4.58.25.33,2.33.17,2.33.17,0,0-1.25-1.83-1-3.33.25-1.5-.17-2.67,2.5-2.67s10.5.25,10.5.25c0,0,1.67,1.5,1.75,1.92.08.42.25,2.5-.08,2.83s-.83,1.92-.67,2.42,1.17.08,1.17.08c0,0-.5,6.58-.75,8.33s-.42,1.08-.42,1.08v2.17s2.33,2.08,2.67,7.92c.33,5.83-1.17,10.83-3.25,13.5-2.08,2.67-7.83,10.5-17.33,1.92-2.06-1.86-3.67-10.17-3.67-10.17,0,0-5.67,2.08-6.25,2.08s-1.92-.67-1.92-1.58-.25-2-.33-2.42c-.08-.42-.08-2.25-.08-2.25l.83-1-3.08-4.5s-2.58,0-3.67-1.58c-1.08-1.58-2.83-5.92-2.83-5.92l-1.25,1.08s-.25.67,1.17,3.08c1.42,2.42,2.67,7.33,2.67,11.25s-2.25,11.17-4.83,13.67c-2.58,2.5-5.92,5.5-12.17,3.33-6.25-2.17-10.17-9.75-8.83-19,1.33-9.25,5.67-10.17,6.33-11.17.67-1,1.33-2.42,1.33-2.42,0,0,0-3.83.75-4s2.67-1.33,3.33-1.42c.67-.08,1.25.5,1.58.5h5.83s1.08-.92,1.17-1.33c.08-.42.17-2.58.17-2.58,0,0,1-1.08,1.17-1.92.17-.83-.08-3-.08-3,0,0-.75-1.33-1.67-1.58-.92-.25-4.25-1.5-4.25-1.5,0,0-1.17,2.08-1.58,2.08s-1.25-1.33-1.58-1.33-1.25.17-1,.42,0,.92,0,.92l-.67.58s1.25,2.33,1.5,2.33,1.42.25,1.5.67c.08.42-.92,1.08-1.5,1.08s-2.67-1.83-3.17-2.58-.92-5.75,2.5-8.08ZM158.52,43.51c.42,0,0-.5,1.67-1.17,1.67-.67,1.67.92,1.92,1.33s3-.08,3.75-.33,2.42-3.25,3-3.25,1.92-.25,2.83-.83c.92-.58,3.08-5.58,3.33-6.5.25-.92-.17-4.33-.17-5.25s-1.17-.75-2.67-1.42c-1.5-.67-5.25-4.25-5.92-4.33-.67-.08-2.5,1.67-3.67,4.83-1.17,3.17-8.67,15.25-8.67,15.25.67.42,4.17,1.67,4.58,1.67ZM174.94,41.68s-2.33,2.25-4.5,4.42c-2.17,2.17-5.33,1.83-5.67,1.83s-.25,1.17-.25,1.17l12,.17c-.33-.58-1.58-7.58-1.58-7.58ZM176.69,70.68s2-3.5,2-4.33-.08-8.5-.08-8.5c0,0-.67-3.83-.83-4.67-.17-.83-.58-1.58-.58-1.58l-12.33-.17s.08,1.87.5,1.87,2.84.3,2.84.3c0,0,.08,1.5-.08,1.75-.17.25-3.42.08-3.42.08,0,0-2.5-2.68-1.5-.09,1,2.58,2.92,5.42,3.33,5.42s.75.08,1.17-1.08c.42-1.17,2.33-1.25,4.33,1s4.42,5.67,4.42,6.33-1.17,2.75-1.17,2.75c0,0,.75,1,1.42.92ZM188.94,69.84c-.08.5,1.67,4.92,1.67,4.92h1.25c-.17-2.08-2.83-5.42-2.92-4.92ZM194.52,73.18s.25-2.33-.08-2.42c-.33-.08-1.83-.42-1.75-.08.08.33,1.58,2.25,1.83,2.5ZM145.69,68.68s-4.08,5.67-2.92,10.5c1.17,4.83,2.17,7.17,2.17,7.17l5.75-5.33-3.42,6.17s1,1,1.58,1.25c.58.25,3.08.75,3.83.42.75-.33-.58-7.58-.58-7.58l2.58,6.83s3.92-3.17,5.33-6.58c1.42-3.42.25-7.83.25-7.83,0,0-3.25,3.08-4,3.75-.75.67-.17,2.25-1.08,2.58-.92.33-6.33-.58-6.33-.58,0,0-1.42-.83-.83-1.58.58-.75,1.58-1.5.17-2.33-1.42-.83-2-3.08-2-4.92s.17-2.25-.5-1.92ZM195.35,78.68c-.42.58-2.75.75-3,.83-.25.08-1.92,1.92-3.08,3-1.17,1.08-2.58,1.67-3.33,1.67s-1,.58-.92.83c.08.25,1.17,1.67,2.33,2.67,1.17,1,4.5,1.17,4.92.92.42-.25,1.67-9.17,1.67-9.17l1.83,7.33s1.5-.67,3.42-5.42c1.92-4.75.25-11.17,0-11.5-.25-.33-1.17.17-1.5.42-.33.25-1.17.25-1.17.25l-1,4.17c1.42,2,.25,3.42-.17,4Z"/>
</svg>