<?xml version="1.0" encoding="UTF-8"?>
<svg id="Layer_1" data-name="Layer 1" xmlns="http://www.w3.org/2000/svg" viewBox="0 0 48.08 65.35">
  <defs>
    <style>
      .cls-1 {
        fill: #231f20;
        stroke-width: 0px;
      }
    </style>
  </defs>
  <path class="cls-1" d="M18.24,38.59s-1.58-.59-2.17-1.28c-2.51-2.93-.1-8.28-.59-8.47-.49-.2-.79.39-1.67.69-.89.3-2.36-.2-3.05-1.58-.69-1.38-.39-4.53.1-6.4.49-1.87,7.29-5.12,7.29-5.12,0,0-.2-2.76-.59-2.76s-2.07-1.18-2.46-1.48c-.39-.3-1.97-2.96-.59-7.39C15.87.36,23.36-1.91,27.01,2.03c3.65,3.94-.49,8.77-.49,9.66s-1.28,3.55-.39,4.24c.89.69,13.1,3.25,14.39,2.56,1.28-.69,3.25-.59,3.84-.39.59.2,1.28.39,1.28,1.77s-1.08,1.48-2.07,1.87c-.99.39-2.27,2.76-3.55,3.25-1.28.49-3.15,0-3.65-.2-.49-.2-4.24.29-4.24.29l-.1,5.81s3.55,4.53,4.73,4.93c1.18.39.79.49,2.27,1.87,1.48,1.38,1.97,5.52,2.07,6.5.1.99,1.77,4.93,1.77,5.71s-.69,1.58-.69,1.58c0,0,1.28.79,2.27.99.99.2,2.66.89,2.66,1.87s.2,2.36.69,2.66c.49.3.3.79-.2,1.28-.49.49-2.07.49-3.74.49s-3.15-.3-3.55-.69c-.39-.39-.89-3.05-.89-3.05,0,0-1.48-.3-1.18.2.29.49,0,6.9-.2,7.59-.2.69-2.07,3.35-5.22,2.27-3.15-1.08-3.84-7.69-3.84-7.69-.1-.59-.59-1.08-2.17-1.08s-1.68-1.28-1.77-3.35c-.1-2.07-1.38-.2-1.67.2-.3.39-1.68.59-3.55.39s-2.66-1.87-2.66-1.87c0,0-6.11,1.18-7.49,1.28-1.38.1-.69-.1-1.58,2.76-.89,2.86-2.17,3.15-5.03,2.66C.21,57.9.11,52.78,0,51.5c-.1-1.28.59-5.12,3.65-5.52,3.05-.39,3.84,2.46,4.14,2.66s.69.1,1.18-.3c.49-.39.3-1.28,2.56-4.14,2.27-2.86,6.7-3.65,6.7-3.65v-1.97ZM3.46,55.53s.79-2.76-.59-5.22-1.28,2.46-1.28,2.46c.89,5.71,1.87,2.76,1.87,2.76ZM18.14,48.24c.39-.49,2.36-4.93-.69-4.14-3.91,1.01-6.21,5.52-6.21,5.52,2.66.79,6.9-1.38,6.9-1.38ZM30.36,53.37c.69,0-1.18,2.56.1,5.52,1.28,2.96,1.48,2.46,1.28-2.76-.2-5.22-1.67-6.6-1.67-6.6-.89.99-.39,3.84.3,3.84Z"/>
</svg>