<?xml version="1.0" encoding="UTF-8"?>
<svg id="Layer_1" data-name="Layer 1" xmlns="http://www.w3.org/2000/svg" xmlns:xlink="http://www.w3.org/1999/xlink" viewBox="0 0 785.98 1200">
  <defs>
    <clipPath id="clippath">
      <polygon points="785.98 1199.57 13.96 1200.03 13.96 .24 785.98 .45 785.98 1199.57" style="fill: none;"/>
    </clipPath>
  </defs>
  <rect y="1.56" width="785.98" height="1199.12" style="fill: #dcd995;"/>
  <g style="clip-path: url(#clippath);">
    <rect x="-.29" y="1.12" width="838.61" height="1198.06" style="fill: #b9be65;"/>
    <g>
      <path d="M838.78,564.16c-13.6,5.53-33.76,3.73-42.17,17.88-2.08,3.5-3.25,7.09-3.13,11-.27,3.89,1.04,9.86-2.25,11.2-1.88.79-4.95.88-7.3,1.02-49.13.95-98.68.31-147.85-.09-4.27-.06-4.62-1.15-4.75-5.29-.51-9.77.29-21.54-.25-31.63-.45-12.7-2.36-27.12-.46-39.3.73-3.34,3.4-5.14,5.84-7.73,4.2-4.08,8.78-9.16,13.11-12.9,4.89-3.03,10.84,1.77,15.77,3.07,8.98,2.98,18.59,4.13,27.3,7.89,2.1.95,4.14,2.17,6.29,2.98.82.3,1.63.52,2.49.55,2.09.07,3.91-1.43,3.88-2.81-.04-1.25-1.18-1.93-2.23-2.48-3.26-1.58-9.15-3.86-12.95-5.15-4.31-1.62-4.53.06-8.12,1.15-1.42.31-2.84-.15-4.2-.67-3.9-1.56-7.94-3.24-11.65-5.2-2.15-1.19-3.84-2.62-5.93-3.83-4.18-2.42-8.76-3.59-13.6-3.34-3.43,0-8.42,0-11.68,0-4.56.17-4.68-1.77-4.91-5.5-1.4-19.27,2.72-39.03-.08-58.25-.35-1.53-.87-2.9-1.66-4.02-2.21-2.98-5.76-4.75-8.92-6.61-4.45-2.46-9.16-4.59-13.64-7.03-13.65-7.69-89.52-41.44-124.45-57.91-.98-.49-1.6-.63-2.23-1.11-.25-.61,0-1.43.11-2.19.88-5.15,3.06-16.86,3.89-21.59.25-1.02.27-2.66,1.68-2.2,12.32,3.01,34.83,9.48,43.53,11.24,3.85-.15,3.23-6.34,3.24-9.42-.08-2.11-.29-4.25-.99-6.24-.5-1.42-1.25-2.8-2.15-4.14-10.32-13.38-21.38-26.22-31.94-39.41-6.74-8.05-12.88-17.5-19.57-25.46-9.75-12.77-18.06-4.43-20.85-8.99-.32-.73-.41-1.84-.35-2.74.28-5.66,1.63-13.46.94-18.64-.93-3.22-3.91-1.22-4.64,1.4-.58,1.79-.67,3.6-.83,5.69-1.61,22.7,1.07,45.48,1.95,68.11.08,5.45-.44,11.4-.38,16.81.04,2.05.1,3.96.65,5.46,1.75,4.58,8.68,3.55,12.74,3.64,2.62.04,8.5-.2,10.04,1.44.92,1.65-.08,3.59-.29,5.49-.59,3.09-1.32,6.75-1.92,9.88-.43,2.18-.8,4.14-1.07,5.51-.38,1.35-.22,2.2-1.21,2.74-7.08.41-22.99-.27-32.7-.24-1.94-.1-2.53.15-2.64-.54-.04-28.04.54-129.19.51-145.5.01-.32-.02-.56.4-.55.39,0,1.26.2,2.8.5,7.56,1.67,26.78,5,36.53,7.44,1.13.43,1.64,2.74,1.87,4.35.54,3.34,1,6.91,1.75,10.11,4.26,16.75,16.08,33.64,27.03,49.75,1.43,2.04,2.83,4.02,4.17,5.91,10.66,15.91,23.98,29.54,37.18,43.38,1.68,1.83,5.05,5.17,7.47,3.94,1.36-.91,1.01-2.59.09-4.25-21.89-22.63-41.44-46.6-57.77-73.89-4.88-7.95-9.34-16.08-12.06-25.05-1.88-5.68-2.21-10.42,5.49-7.06,6.23,2.49,17.02,7.62,23.12,8.93,1.73.46,4.24.3,4.94-1.52.8-1.54-.54-3.04-1.99-3.61-7.01-3.11-17.04-6.64-24.2-9.44-2.72-1.09-8.13-2.44-5.39-5.94,1.7-2.14,5.49-4,8.41-5.2,5.05-2.28,11.61-3.64,15.96-6.54,3.78-2.53,5.91-6.72,6.49-11.21.66-4.45.26-9.36.26-13.93.69-23.95,4.68-50.45,11.62-73.45.44-1.42.86-2.88,1.45-4.22.57-1.25,1.29-2.04,2.2-2.1,1.18-.04,2.57.98,3.54,1.91,10.69,9.93,22.86,21.37,26.28,34.96,1.84,7.03.89,14.84-2.4,21.33-3.21,6.22-9.08,10.83-13.54,16.47-3.28,4.02-5.51,8.9-7.81,13.51-2.37,4.33-2.2,8.43.39,12.74,3.4,5.97,9.85,9.53,16.32,10.68,18.96,3.54,38.6-5.74,57.45-6.03,6.32-.13,12.87.33,19.2,1.25,8.77,1.24,17.08,3.6,24.06,8.88,11.72,8.44,20.59,21.07,32.65,28.89,17.65,11.04,37.99,17.98,56.43,27.67,27.9,13.87,53.88,31.87,81.41,46.26,1.39.31,2.78-.03,4.03-.63,2.1-1.01,4.22-2.16,6.49-2.22,2.77,7.14-.53,195.39.7,251.18-.08.46-.33.47-1.01.82h-.03Z" style="fill: #dcd995;"/>
      <path d="M649.43.18c48.66-.17,139.26-.07,190.32-.09-.08,4.73,2.29,300.36-.85,310.49-1.75.87-4.77,1.12-6.83.03-15.83-9.37-31.35-19.56-47.39-28.53-11.17-6.31-22.41-12.56-33.79-18.51-8.47-4.48-17.03-8.55-25.83-12.33-12.3-5.39-24.78-10.77-35.61-18.82-14.22-10.33-24.38-27.46-42.01-32.5-13.02-3.68-29.79-4.26-43.78-3.1-11.47.82-22.64,5.3-33.89,6.11-7.16.43-15.61-.58-21.4-5.36-4.34-3.7-2.3-9.67.47-14.71,6.18-12.41,19.23-19.55,22.14-33.51,6.46-31.31-26.52-48.79-43.41-69.78-2.07-2.54-3.62-5.42-4.82-8.48-.75-2.1-1.7-3.88-1.47-5.46.27-1.64,2.81-1.65,4.35-1.81,26.1-2.2,50.68-11.96,72.52-26.05,15.48-11.15,36.54-26.92,51.27-37.59h0Z" style="fill: #dcd995;"/>
      <path d="M1.04,76.79c12.54-.4,25.7,1.16,38.12-1.54,11.63-2.45,22.45-7.75,33.04-12.96,1.78-.89,3.98-1.98,5.63-.86,4.63,4.04,9.35,11.33,12.73,16.09,4.27,5.71,6.45,15.26,1.31,21.14-3.45,3.24-8.55,4.22-12.06,7.44-3.79,2.99-6.56,7.23-10.71,9.35-5.28,1.94-13.56-.13-16.32,6.15-2.53,6.87.1,14.76.17,21.88,1.3,35.37,9.97,70.66,29.4,100.51,7.03,9.94,19.87,17.62,24.38,29.05-1.39,20.09-13.68,34.57-25.96,53.91-4.35,5.98-6.56,10.13-11.59,14.45-6.14,5.54-19.35.6-22.49,10.05-.86,3.45-.69,7.54-.83,11.4.3,10.52-.85,19.04,1.92,28.23,1.63,7.66,14.96,10.11,10.64,18.34-25.81,59.94-15.62,127.39-17.58,190.94-.15,1.94.51,5.47-1.88,5.49-8.24.18-29.8,1.4-38.86,1.46-.54-6.03,0-116.55-.18-160.59,0-9.16,0-15.4,0-17.17,2.44-4.93,2.25-10.89,2.55-16.37.1-2.41-.33-6.32-2.3-7.52.3-11.22-1.98-321,.84-328.87h.04Z" style="fill: #dcd995;"/>
      <path d="M839.56,995.27c-1.96.36-3.67.12-7.3.29-9.18.19-24.55.54-28.5.6-.49-.02-1.01,0-1.24-.45-.52-1.85-.13-3.64-.25-6.33.19-3.51-.39-8.89.3-11.86,1.18-2.74,8.25.12,10.67-2.78.3-1.03-1.8-.85-2.54-.91-4.2,0-12.31,0-15.99,0-1.21.06-3.03-.28-2.81,1.2-.3,7.02.52,44.05-.29,52.59-1.63,2.21-8.02,1.06-10.58,1.39-3.37-.35-4.86,3.75-1.21,4.62,2.74.38,5.95-.05,8.78.28,2.24.1,3.45,1.03,3.3,3.23-.03,6.94.04,30.25-.01,35.56-.03.49-.03.65-.5.66-.32,0-.83.01-1.52.02-17.79-.02-145.47,2.39-154.37,1.78-1.79-1.39-1.96-4.58-1.8-6.97,0-8.63,0-29.18,0-34.31.07-.74-.2-1.75.71-1.69,5.26,0,57.87.02,75.13-.03.52-.08.7-.55.7-1.16.04-2.23-3.26-3.27-5.4-3.15-22.49-1.18-45.15.16-67.67-.75-1.83-.17-2.64-.36-2.77-1.82-.23-8.11-1.38-32.75-1.38-39.97.36-2.65,3.38-3.04,5.51-3.78,2.78-1.1,2.31-3.74-.49-4.39-1.26-.34-2.76-.43-3.68-.76-.97-.24-1.62-1.05-1.47-2.07,0-6.51,0-39.43,0-49.77-.03-.62.02-1.15,0-1.71,0-1.91-.05-1.77.68-1.78,16.87-.02,150.74.01,157.96,0,.17.01.26.05.31.24.08.28.06,1,.06,2.39.02,9.24-.03,29.85.02,36.71-.09,1.32,1.35,1.36,2.39,1.4,2.02.03,4.48.14,6.32-.2,1.65-.19,1.93-1.75,1.87-3.2.05-4.68-.36-11.89-.62-17.29-.21-4.49-.44-8.98-.42-13.35.26-2.36-.63-6.41,2.5-6.7,11.01-.98,23.63.61,34.43.15.56-.01,1.35-.01,1.42.64.03.15.03.34.04.56-.28,9.18.49,64.75-.25,72.87h-.01Z" style="fill: #dcd995;"/>
      <path d="M399.77,1.29c.38,12.81,2.08,25.85,2.54,38.59-.19,2.43-1.8,3.39-4.25,3.76-21.49,3.25-43.56,4.89-65.21,7.99-7.26.66-14.49,1.21-21.77,2.08-10.58,1.19-21.18,2.58-31.77,3.68-21.57,2.44-42.75,2.15-64.48,2.02-15.15.05-30.39-.21-45.34,1.64-10.64,1.52-22.06,6.91-32.95,8.59-2.91.24-5.68-1.01-8.03-2.62-6.29-4.34-12.07-9.86-17.91-16.34-13.03-14.79-22.06-29.42-27.9-46.75-.36-.95-.97-2.56-1.14-3.11-.13-.42-.12-.55-.03-.58,27.62.08,261.14-.08,317.93,0,.04,0,.08,0,.11.04.09.08.15.35.19.97v.04ZM132.16,52.41c1.49-2.8-1.15-5.74-2.5-8.4-.7-1.22-1.46-2.54-2.13-3.7-.63-1.1-1.16-2.04-1.49-2.51-.12-.17-.22-.31-.37-.37-.06-.01-.11.02-.16.08-.19.27-.4,1.02-.6,1.45-.37,1.14-1.7,2.25-1.79,3.23.05,1.51,1.04,2.82,1.72,4.21,1.28,2.21,3.08,5.72,4.77,6.5.84.47,1.96.43,2.51-.45l.03-.05Z" style="fill: #dcd995;"/>
      <path d="M680.85,1199.76c-13.58-1.31-27.35-.11-40.96-.42-1.75-.01-3.91.01-4.36-1.96-1.73-14.29,1.87-11.03,13.14-10.92,13.91.65,40.32-4.5,50.2,1.53,5.96,1.9,3.96-2.79.89-5.37-4.06-5.22-10.42-3.46-16.12-3.23-12.81.46-25.52.95-38.34.66-9.18-.02-12.46,1.45-10.36-9.75.51-.67,1.44-.61,2.26-.65,3.42-.01,10.83,0,14.36,0,2.98-.32,3.36,1.85,5.37,3.46,4.32,2.47,11.42,1.62,16.26.98,4.48-1.79,4.74-8.89,2.36-12.51-3.36-3.4-10.82-2.44-15.43-2.38-4.61.74-6.29,6.15-11.54,5.57-3.16-.33-13.32,1.51-14.1-1.93-.06-14.94-.03-36.83-.03-52.97,0-4.88,0-9.32,0-14.01.02-1.58-.13-1.53,1.18-1.53,21.31-.02,46.45.02,67.25,0,1.53.29,5.07-.75,5.68.71.73,2.34-.69,6.72,1.1,8.4,1.65-2.32-.33-6.83,1.32-9.07,9.05-.24,73.99-.74,82.06-.83,1.4,6.74,1.19,78.03,1.8,86.91.08,1.5,1.99,2.49,3.23,3.1,9.72,1.05,29.96.78,39.58,1.32,1.75-.04,1.24,2.08,1.35,3.27-.35,2.64.83,9.5-.71,11.07-6.08.3-27.87.03-37.47.11-1.94.2-1.35-1.95-2.27-1.97-1.39,1.29-3.24,2.22-5.33,2.01-18.21.08-36.45-.19-54.67-.11-9.26,1-19.58-.41-28.82.24-2.4.1-3.94-.03-4.12-2.44-.45-1.13.05-6.58-2.11-4.1-1.12.96-2.99-1.39-2.85.54.09,5.46-1.98,6.49-7.15,5.88-4.22-.36-8.49.51-12.59.44h-.07ZM710.88,1181.82c.48-.02.46-2.8.44-3.77,0-3.13,0-7.56,0-10.91-.07-1.64.19-5.1-.22-5.86-.72-.94-1.42,1.2-1.46,1.81-.19,1.1.08,2.34.31,3.36.29,1.23.33,2.45.33,3.74,0,2.42,0,6.5,0,9.02.03.83.07,1.76.36,2.43.07.14.15.2.22.19h.01Z" style="fill: #dcd995;"/>
      <path d="M536.84,1199.25c-7.07-32.06-1.88-66.85-2.23-99.73-.37-5.92,2.26-4.8,6.03-7.82,4.36-1.47,10.11,1.55,14.97,2.34,10.73,2.03,57.02.41,67.49.9,1.67,0,.97,3.08,1.16,4.58.03,20.74-.19,41.46-.09,62.21,0,8.72-.62,17.12.46,25.68.7,3.8,1.01,9.04-1.05,12.11-13.08-.24-66.96.57-86.7-.22l-.04-.03Z" style="fill: #dcd995;"/>
      <path d="M1.04,1120.73c2.4-1.03,4.34-3.12,4.92-5.77.81-3.11,1.09-5.74,4.8-5.37,3.01-.15,8.37-.42,13.75-.7,6.79-.26,12.03-.77,16.65-.75,1.38,7.72.77,61.78,1.72,70.41,1.26.19,2.69-1.41,3.6-2.25.95-1.06.59-2.11.64-3.35-.22-17.5-.69-57.26-.77-64.01.02-1.58,1.59-.75,3.41-1.07,6.19-.26,18.37-.83,25.16-1.12,1.88.04,5.67-.67,6.79.18.59.64.54,1.48.62,2.8-.49,12.16.53,24.39,1.53,36.52.3,5.81-.64,11.93.47,17.71,1.94,9.8,8.84,9.1,16.92,8.79,11.78-.16,27.79-.4,39.49-.56,5.55.03,8.62-.36,10.77,0,.9,5.89.01,20.29.3,26.43-.02.65.11,1.43-.64,1.42-7.39-.08-94.37.15-103.55-.07-1.04-1.45-.07-4.84-.71-6.7-.34-1.47-2.11-3.25-3.66-2.31-2.2,1.45.66,9.03-2.37,9.08-9.2.02-25.14,0-34.09.01-2.5-.22-6.95.6-6.81-.65-.01-5.78-.01-58.23,0-77.44.02-.65.38-.9,1-1.2l.04-.02Z" style="fill: #dcd995;"/>
      <path d="M47.54,1.26c5.64,12.16,7.07,26.84,14.5,38.1,2.15,3.07,5.35,7.03,7.23,10.03.73,1.16,1.01,2.01.62,2.66-.33.69-1.77,1.32-2.79,1.8-1.61.72-3.24,1.53-4.83,2.35-2.53,1.3-5.03,2.64-7.63,3.79-16.67,7.31-34.44,8.01-52.47,7.6-1.47-.12-2.35,0-2.45-1.01-.01-6.89,0-59.81,0-65.45.01-.49,0-.69.62-.71,10.16-.03,26.8,0,37.48-.01,3.87,0,6.89-.01,8.32.01.61.03,1.04.27,1.39.81l.02.04Z" style="fill: #dcd995;"/>
      <path d="M577.88.91c-14.51,10.99-30.89,21.37-48.87,25.37-16.47,3.57-35.01,5.44-52.54,7.5-12.54,1.55-25.17,2.82-37.74,4.01-1.99.13-3.38.44-3.39-1.43-.01-8.93,0-25.92,0-32.88.05-1-.05-2.8.05-2.91.04-.17.12-.22.25-.23,4.71-.06,110.47.02,142.57,0,.09,0,.14.02.16.06.03.07-.11.23-.45.52l-.03.02Z" style="fill: #dcd995;"/>
      <path d="M.84,1077.74c-.57-.08-.79-.02-.87-.38,0-2.03,0-12.86,0-27.97.33-28.97-.64-121.25.34-129.07.9-.24,3.58.07,4.7.87,1.28.76,1.92,2.14,2.13,3.75,1.19,43.25,1.31,86.41,2.38,129.61,0,5.81,1.05,11.9,1.11,17.8-.07,2.17.07,4.14-1.98,4.97-2.41.75-5.34.47-7.77.42h-.04Z" style="fill: #dcd995;"/>
      <path d="M1.03,617.16c1.61-.16,3.96-.43,5.1.56-.24,9.1,1.4,150.06-.42,157.24-.63,0-5.52.35-5.7-.32-.02-37.86,0-89.66,0-127.96,0-15.61,0-26.89,0-29.03.09-.42.36-.31.98-.48h.04Z" style="fill: #dcd995;"/>
      <path d="M.83,776.27c2.82-.37,6.2.51,5.61,4.35.3,34.64-.61,69.37,0,104.02.29,8.99,1.32,18.25,1,27.32-.03,4.49-.6,8.59-6.26,6.96-3.23-4.39-.2-40.32-1.21-75.58,0-19.94,0-52.99,0-66.7.07-.36.27-.28.8-.37h.04Z" style="fill: #dcd995;"/>
      <path d="M218.81,1199.2c-.09.59-.45.79-.98.79-1.66.01-5.59,0-10.64,0-10.51,0-38.23,0-43.98,0-.36-.01-.66-.02-.82-.35-.21-.5-.22-1.96-.21-2.75,0-1.83,0-4.57,0-6.61,0-2.65.54-3.86,3.2-3.8,16.74.29,33.58-1.75,50.26-.62,1,.15,1.81.43,2.36,1.01.7.74.88,1.88.96,2.91.13,1.86.05,4.25.02,6.2-.03,1.06,0,2.18-.16,3.18v.04Z" style="fill: #dcd995;"/>
      <path d="M225.95,1199.25c-.88-2.07-1.38-11.29.67-12.69,8.17-.44,42.34-.04,50.39-.15,2.49.09,2.74,3.67,2.82,5.94.03,1.86-.04,3.91-.09,5.26-.09,1.11.06,2.45-1.25,2.37-6.41,0-30.86,0-40.84,0-4.93,0-8.79,0-10.45,0-.55,0-.99-.14-1.24-.7l-.02-.03Z" style="fill: #dcd995;"/>
      <path d="M290.02,1198.98c-.42-3.28.04-6.67,4.17-6.83,17.02.16,34-1.61,50.98-1.71,1.2,0,2.68-.02,3.66.44,2.16,1.05,2.02,4.35,2.18,6.48-.02,1.15.17,2.83-1.41,2.64-10.07,0-45,.01-58.54,0-.6,0-.91-.31-1.02-.96v-.04Z" style="fill: #dcd995;"/>
      <path d="M616.02.63c.24.69-1.38,1.77-2.07,2.33-14.66,11.11-29.47,22.57-46.39,30.23-1.24.46-4.22,1.77-5.01.98-.32-.45,1.24-1.77,1.94-2.22,4.13-2.88,8.8-5.07,13.11-7.64,11.29-6.97,22.44-14.8,33.28-22.43,1.14-.81,4.32-2.29,5.13-1.27v.02Z" style="fill: #dcd995;"/>
      <path d="M399.27,1199.43c-.54-.55-.25-1.7-.13-3.26.06-.75.09-1.51.11-2.27.1-3.98-.17-8.81.25-11.39.16-1.58,1.37-2.35,2.93-2.45,1.76-.11,4.65-.55,4.5,1.96-.08,4.12.22,12.9-.12,17.14-.36.85-1.11.76-2.17.85-1.46-.04-4.21.32-5.35-.56l-.03-.03Z" style="fill: #dcd995;"/>
      <path d="M276.74,615.88c-1.91,7.3,4.34,136.62-2.51,143.53-12.08.05-33.14.02-44.51.03-5.14.49-9.92-1.34-14.47-3.47-3.53-2.97-6.02-7.03-10.44-9.04-3.13-2.62-22.75-6.68-24.42-2.81,2.12,11.35,8.77,7.5,16.64,10.41,7.41,3.12,12.48,10.73,20.12,13.24,14.07,4.48,38.22,1.47,53.54,1.23,2.85.28,7.24-.68,8.1,2.08-.61,11.9-.17,29.82-1.71,38.99-4.13,7.5-11.12,13.46-16.58,20.15-2.23,3-6.37,1.46-8.71,3.81-1.12,1.41-2.29,3.68-3.82,5.06-6.7,6.46-14.9,12.97-19.44,21.39-4.2,6.73-17.78,17.57-14.59,25.95,2.03,1.47,3.7-1.63,4.39-3.32,6.67-16.12,25.82-27.38,37.2-40.6,1.32-1.35,2.88-3.23,4.4-3.86,1.14-.4,1.77.85,2.6,1.57,1.58,1.58,4.03,4.04,7,7.03,11.29,11.31,28.93,29.05,39.45,39.59,5.67,3.02-16.86,16.52-16.68,22.76-.46,2.4.73,4.71,1.84,6.74,1.33,3.88-4.91,6.31-6.64,9.86-2.74,3.37-.2,7.59-.07,11.11-1.66,5.27-5.19,8.04-3.48,14.36.27,1.89.04,3.76-.18,5.66-.77,6.92,5.75,12.35,3.89,19.62-.84,4.11-2.15,8.22-2.15,12.48-.64,6.59,2.11,14.88-1.91,20.4-2.25.58-3.8-2.32-5.56-3.38-3.43-2.38-7.92-3.72-11.83-4.85-10.36-1.27-87.87-1.24-99.03-1.53-2.58-.02-2.01-7.01-2.48-9.51-1.5-17.3-3.95-34.9-8.76-51.57-1.71-6.05-5.59-13.68-6.21-19.61,1.93-3.19,7.31-2.84,10.75-4.02,1.77-.28,3.94-1.66,2.99-3.66-.66-1.73-3.38-1.64-5.06-1.09-12.49,3.88-11.69,2.18-16.05-8.81-9.3-20.44-22.68-38.66-33.95-58.03-.91-1.51-1.82-3.65-1.11-5.18,11.49-9.78,35.85-11.54,50.61-9,7.9,1.53,12.19,8.9,14.92,15.86,1.95,3.9,2.77,10.1,6.5,12.4,1.85.85,3.82-1.02,3.81-3.01-1.88-9.96-9.29-26.01-18.98-30.29-13.78-4.45-31.11-2.23-44.92,1.01-3.39.88-6.53,2.24-9.72,3.7-4.72,2.44-8.22,3.41-10.97-1.97-8.38-13.8-19.44-28.77-22.97-44.25,7.68-.9,18.74-.05,26.84-.33,8.67.26,17.47-.76,25.1-5.01,8.14-4.94,13.42-15.85,21.6-21.19,8.28-3.3,15.33-9.11,23.65-12.2,5.28-1.5-4.69-1.93-6.03-2.16-6.15.06-12.16.98-17.96,2.83-7.65,1.33-18.44,20.19-22.32,17.38-3.42-11.8,9.79-11.76,13.23-20.1,5.19-14.7.21-111.67,1.44-125.84,8.03-1.76,128.14-.11,135.57-.53h0ZM170.11,952.13c.28-2.92-.31-5.32-.94-8.54-.41-1.78-.73-4.19-1.26-5.8-.05-.04-.08.11-.09.42-.02.51-.02,1.2,0,1.78-.05,2.77.41,5.31,1.16,8.17.27,1.09.57,2.44.85,3.44.13.44.22.63.28.54h0Z" style="fill: #dcd995;"/>
      <path d="M287.5,354.14c-1.1.38-2.61.33-3.87.33-7.7-.06-15.48.28-23.18,0-42-3.01-81.27,4.84-121.21-11.39-4.11-1.68-9.21-3.41-12.5-6.42-1.45-1.49-1.01-2.86.27-4.99,2.63-4.55,7.12-11.08,9.91-16.01,9.84-19.98,16.79-45.35,19.35-67.16,1.1-9.61-.31-20.5,1.79-29.46,1.3-4.42,4.73-7.52,4.39-12.18-.02-13.71-1.79-29.78-3.57-43.69-1.65-14.5-7.45-28.31-10.67-42.41-.36-1.73-.91-4.18-.31-5.32.31-.65.83-1.21,1.47-1.65,4.72-3.16,14.67-9.02,20.68-11.96,17.96-7.4,43.53-3.41,64.37-4.88,11.08-.73,22.12-3.12,33.24-3.71,1.78-.03,3.89-.4,4.11.54.19,9.64,1.44,100.63,1.59,109.91.05.8.26,1.18,1.19,2.09,3.74,3.6,9.15,3.06,14.25,3.4,4.43.24,4.73,1.44,4.6,6.14,0,3.47-.02,8.09.01,10.68-.02,1.18.33,2.47,1.6,2.75,2.29.54,3.37-.94,3.2-3.21.01-3.67,0-10.47,0-13.38.07-.73-.08-1.53.32-2.09,8.65-.94,38.46-.69,45.82-1.09.46-.01.89-.02,1.23.07.3.09.32.5.33.81-.23,16.5-.1,39.81-.51,56.3-1.8,16.64.13,33.64-1.1,50.32-.1,1.5-.26,3.36-1.02,4.44-1.46,2.37-13.65,2.97-17.18,3.53-9.44,1.2-20.1.32-29.26.96-4.5.33-8.81,1.99-8.24,7.16,0,4.6,0,14.47,0,18.9-.02,1.03-.04,2.2-1.05,2.66l-.04.02Z" style="fill: #dcd995;"/>
      <path d="M122.4,948.16c.71-.6,2.03-.68,3.78-.88,3.6-.13,8.04-1.9,11.16-.55,4.57,4.34,5.94,26.1,7.27,33.28.19,1.71.46,3.69-.91,4.88-1.65,1.33-7.2,2.82-4.31,5.88,1.19,1.1,3.27,1.33,4.63,1.48,1.53.23,2.15.07,2.25,1.2.27,8.55,2.55,67.93,2.75,76.57-.06.59-.44.84-1.91,1.07-7.77.86-18.66.04-26.92.4-32.65,1.36-65.45,1.61-97.94,5.27-5.91.45-11.68,1.37-11.07-6.75.05-48.37-2.15-96.72-3.29-145.05-.08-102.2-1.24-205.79,1.3-307.39,1.09-.87,2.9-.96,4.36-.95,7.04-.09,14.4-1.45,21.26-1.15,4.5.03,6.04,2.53,5.85,6.87.31,24.14-.33,48.75.67,72.81,1.14,26.66,4.24,52.67,10.61,79.61,1.56,7.02,4.68,13.45,7.25,20.09.82,2.14,1.45,4.47-.42,6.28-2.41,2.37-5.75,4.42-7.66,7.35-2.89,4.48-1.67,11.12-1.83,16.36.45,5.24-.24,16.28,3,19.99,4.45,4.46,14.64.53,19.05-3.12,1.31-1.11,2.28-3.42.12-3.86-1.67-.22-3.01.46-4.85,1.19-2.67,1.01-5.84,3.05-8.64,1.66-3.05-2.04-1.89-7.08-2.26-10.7.01-5.31-.26-11.4.35-16.49.65-2.82,4.23-5.46,6.69-6.27,3.37-.76,5.07,4.99,6.68,7.32,21.56,41.9,56.06,79.37,66.39,125.95-.5.73-1.63.78-2.51.87-5.17.46-16.74,1.47-21.22,1.88-1.2.05-2.29.62-2.41,1.91.02,4.99,7.18,1.05,6.96,6.39.19,2.38-.28,5.49.39,7.76.86,2.27,3.73,1.87,4.21-.28.48-2.4.12-5.2.25-7.63.04-1.6.23-2.67.87-3.21l.04-.03Z" style="fill: #dcd995;"/>
      <path d="M62.74,466.05c3.43-44.17,28.86-82.82,54-117.99,1.89-2.67,4.4-2.95,7.18-1.46,15.19,7.26,31.79,12.48,48.25,15.99,8.41.29,43.46.8,63.81,1.14,5.14.09,9,.15,10.66.18.37,0,.77.03,1.03.22.57.59.69,1.39.9,2.27,1.01,4.59,1.67,16.29,1.71,22.42.05,2.29-.16,4.4-.77,6.62-.57,2.2-1.18,5.26-.07,7.53,1.68,3.59,5.98,1.94,5.52-1.66,0-6.89-.06-29.47.05-36.02.14-.68.49-.46,1.19-.52.73,0,1.83,0,3.25-.02,16.78-.08,77.76-.41,82.64-.42.62.02.53.16.56.87-.04,9.37,1.71,101.76,1.46,111.31-.21.42-.98.74-2.41,1.01-8.45,1.26-17.32.32-26.01-.17-11.53-.78-27.64-1.77-34.77,9.1-4.18,7.63-1.45,26.25-1.99,35.58-2.33,27.82-.29,56.35-.12,84.18-7.34,2.18-68.22-.04-103.69.73-12.74-.1-21.01.16-23.9-.08-.48-.86-.2-2.08-.28-3.1.11-3.63-.23-8.88.18-12.64.18-2.74,3.15-2.55,5.22-2.64,3.62-.21,7.49.43,10.93-.41,4.04-1.6,4.65-6.66,4.48-10.49-.49-44.33.72-88.74-.06-133.06-.22-5.18-1.14-10.72-1.43-15.88-.54-10.5,1.24-21.39.91-32.2-.19-9.86-2.05-13.62-12.52-13.94-10.37-.6-22.11.83-32.58.18-5.86-.75-12.41-1.17-15.95,4.49-3.87,5.65-8.46,13.74-11.79,20.06-4.79,10-15.42,29.75-16.95,40.48-.15,4.28,0,10.27-.06,14.63.08,4.35-1.15,4.9-5.25,4.87-3,0-7.6.02-10.4-.01-1.11-.05-2.37-.08-2.91-1.09l-.02-.04Z" style="fill: #dcd995;"/>
      <path d="M646.61,615.83c10.31,13.84,19.55,29.03,22.97,46.12.16.71.71,3.24,1.29,2.97.67-1.9-.46-5.21-.9-7.28-3.43-14.35-11.14-27.38-19.61-39.26-.84-1.64-2.43-3.69.11-3.47,18.6-.18,68.32-.7,75.96-.78,3.76.14,2.7,6.15,3.27,8.96,1.21,3.76,5.03,1.68,4.63-1.74.28-2.37-.52-5.17.54-7.05,6.06-.53,38.31.02,51.19-.18,1.33-.01,2.49,0,3.75,0,1.33,0,1.28.03,1.28,1.14-.18,10.35-.58,72.19-.86,79.36-12.03.85-32.48.01-45.12.3-1.69.16-2.94-.37-4.27-1.36-2.21-1.43-5.92-3.87-8.93-2.98-2.62,1.77,5.36,6.7,7.36,8.05,1.49.89,2.1,1.12,3.58,1.09,7.55.01,36.33-.03,46.7.02.89,0,.71.69.75,1.35-.37,7.02.72,43.3-.39,57.31-21.01,2.56-43.28.8-64.51,1.78-8.53.2-17.16,2.97-25.63,3.72-7.21.85-7.21-1.4-8.72-7.41-1.28-5.17-6.97-7.14-10.37-10.04-3.08-4.49,4.77-12.48,2.11-17.6-1.5-2.31-5.2-2.29-7.31-4.14-2.46-2.01-4.58-4.87-6.17-7.64-1.22-2.22.05-5.03.6-7.45,2.55-8.15,3.82-16.98,3.66-25.45-.2-4.02-1.23-2.64-1.31.22.02,39.07-24.13,76.5-67.03,79.13-48.51,3.97-100.9-35.35-86.59-87.37,1.67-1.45,4.73-.89,6.91-1.3,5.83-.56,8.44-4.17,8.81-9.23.66-14.64-.26-31.39.82-45.86.33-1.74.47-4.82,2.41-4.82,10.69.82,99.24-1.56,109.01.88l.03.03Z" style="fill: #dcd995;"/>
      <path d="M518.46,913.06c-.12.43-.49.42-.87.44-1.8.04-6.77.13-13.42.27-21.96.06-58.87,1.87-66.73.94-.59-.99-.29-3.38-.35-4.74.09-4.02.03-7.86-.21-11.81-.8-15.21-2.25-35.38-.93-50.25.13-1.11.25-2.15.65-3.13.65-1.51,1.76-2.39,2.03-3.37.04-.24-.09-.42-.27-.56-.43-.39-1.47-.54-1.85-.96-.2-.27-.21-.59-.2-.94.13-16.99.7-59.26.77-68.52-.35-2.18,3.89-1.37,5.44-1.54,4.09.03,8.2.15,12.29.08,16.58-.41,33.32-1.27,49.86-1.9,3.42.7,4.59,5.01,7.25,7.08,1.44,1.39,3.41,2.17,4.87,3.47.87.8,1.42,1.83,1.72,2.24.11.15.26.31.44.18.6-.59,1.31-1.8,2.58-2.85,1.47-1.12,3.43-1.7,5.02-2.71,4.74-2.82,7.07-8.94,7.11-14.49.1-2.8-1.24-5.59-.54-8.34.54-1.94,2.12-3.64,3.57-5.16,1.37-1.44,2.93-2.52,4.86-1.23,6.13,3.3,15.27,10.38,22.58,13.33,24.54,9.15,61.17,9.69,81.07-9.85,2.14-1.91,4.27-3.97,6.48-5.92,2.32-2.26,4.57-2.43,7.25-1.03,2.26,1.04,5.26,2.51,7.32,3.6.82.42,1.67.93,2.19,1.63.55.81.09,1.72-.8,2.9-.76,1-1.77,2.18-2.56,3.39-1.61,2.5-2.46,5.33-2.3,8.27.62,9.95,12.32,17.02,21.22,12.74,2.9-1.17,5.13-3.89,7.94-4.89,1.76-.52,3.81-.42,5.4.16.72.3,1.01.66,1.05,1.39-.04,7.79.07,55.87,0,64.76-.04.77-.51,1.31-1.74,1.75-17.34,3.35-37.56-.97-55.59.79-1.6.09-4.31.9-4.2-1.27-.15-8.11-.28-16.98-.44-27.17-.24-8.2-.02-13.82-.45-20.78-.22-.94-1.13-1.64-2.11-1.54-1.68.1-2.42,2.38-2.53,4.03-.73,14.68.91,29.45.51,44.1-.34,2.17-1.75,3.36-3.87,3.82-12.87,2.03-25.94-.13-38.91,1.55-3.96.43-7.95,1.16-11.65,2.62-3.09,1.06-5.89,3.41-8.72,4.83-1.74.78-3.24.61-5.63.57-9.34-.19-27.58-.22-32.88-1.08-1.55-.2-1.93-1.09-2.4-2.65-2.9-9.53-10.14-7.73-10.74-11.55-.39-3.33.71-8.03.61-11.53-.14-2.82-.99-1.79-1.26.17-.45,2.99-.39,6.55-.65,9.6-.1,2.76-1.11,3.79-3.64,4.79-9.41,4.02-6.14,9.18-9.76,11.34-.77.33-1.77.35-2.53.43-.31.04-.47.11-.4.26,1.29,1.17,3.24,1.83,4.47,3.18,1.7,1.71,3.35,4.48,5.84,5.74,2.45,1.54,5.73,1.47,8.33,2.1,1.27.25,1.41,3.37,1.77,3.38.37-.42.42-1.01.68-1.56.87-2.86,3.14-4.45,5.1-6.78,1.21-1.43,1.94-3.22,2.91-4.76.55-.79,1.18-.88,2.27-.84,6.16.26,28.65,1.2,35.07,1.48,1.42-.02,2.07.45,1.91,2.12-.07,1.57-.3,3.33-.4,5.34-.04,2.17-.37,3.58.69,4.8.93.87,2.85,1.31,4.07.82,2.98-1.15-1.97-10.84,6.91-14.46,3.77-1.31,7.34-2.6,11.24-2.55,8.41.02,23.49-.05,28.82.03.88.06.95.29.98,1.01.09,6.51.7,56.33.78,62.96,0,.51.04.88-.48,1.01-.17.04-.41.06-.72.07-5.89-.13-34.86,1.06-42.3.57-.36-.13-.53-1.12-.57-1.73-.11-1.14-.23-3.01-.39-5.19-.27-3.66-.58-8.07-.78-10.73-.08-.85-.14-1.71-.52-2.46-.72-1.5-3.15-1.58-4.36-.47-.94.89-1.08,2.12-1.05,3.84.01,4.78,1.42,11.93.8,16.29-.25.67-.92.65-1.58.68-7.68-.29-41.33,1.41-48.48.37-.59-4.58-.06-12.35-.23-18.08.03-2.89-.72-4.7-1.37-2.58-.67,6.12.14,15-.35,20.62v.02ZM514.31,805.97c.54-.55.38-1.91.38-2.74-.12-2.11-.52-4.18-.48-6.21,0-1.53.29-3.26.13-4.75-.1-.87-.44-.84-.75-.12-.32.76-.49,1.78-.58,2.65-.24,1.87-.54,10.49,1.28,11.17h.02ZM574.02,879.15c.84-.75,1.17-3.12-.16-3.5-.66-.14-1.4.01-2.08.08-1.13.15-2.31.25-2.89.62-1,.57-.41,1.88.21,2.53.89,1.06,3.72,1.18,4.88.31l.05-.04Z" style="fill: #dcd995;"/>
      <path d="M490.2,483.32c-3.09-10.78-18.46-9.2-28.39-9.79-2.26-.12-4.1-.28-6.51-.47-5.49-.6-12.07-.71-16.48-2.14-2.01-.86-1.8-3.96.33-4.66,1.43-.6,3.49-.35,5.45-.31,1.44.04,2.89.05,4.32.1,6.06.22,11.96,1.81,18.02,1.96,5.25.03,11.87.26,15.48-3.59,1.86-2.08,2.41-5.41,2.65-8.17,1.08-14.93.41-33.35-.13-48.54.08-2.84-2.22-11.17,1.35-11.47,1.02-.04,2.41.46,4.24,1,10.83,3.5,22.04,7.32,33.13,9.24,10.97,1.5,22.75-1.22,33.92-1.36,5.36-.08,8.87-.04,13.72,2.01,10.78,4.56,21.38,9.99,31.12,14.98,7.07,3.91,14.38,7.66,21.26,11.86,1.15.91,1.61,1.17,1.68,2.11.07,7.63.47,85.62.64,111.22.01.52,0,.98,0,1.48-.03.77.18,1.2-.52,1.37-1.3.26-2.55.09-4.5.2-6.39.19-12.8,1.23-19.17,1.55-26.69,1.21-53.61-1.57-80.19-.72-2.14.12-4.46.38-6.65.91-5.17,1.07-7.99,4.2-8.85,9.48-1.14,6.19.49,15.66,5.26,18.81,1.52,1.09,3.22,1.25,5,1.19,3.83,0,13.3,0,21.36,0,2.55,0,4.95,0,6.99,0,2.07,0,3.77-.02,4.85.01.41.04.81.07,1.14.32.78.49.73,2.97.83,4.26.13,2.39.39,4.85.59,7.28.16,3.23,1.01,10.09-1.52,11.99-8.18.54-43.5-.02-58,.13-1.09-.13-2.15-.92-2.14-1.94-.2-10.05.43-110.11-.27-120.26v-.04Z" style="fill: #dcd995;"/>
      <path d="M358.68,1079.72c-59.32,1.62-119.42-.84-178.94-1.45-3.67-.91-7.54-2.41-10.62-4.7-1.57-1.31-1.27-3.41.86-3.66,7.41-.1,62.21-.04,91.35-.06,8.96.03,13.77-.09,16.84.06,1.77.43,3.59,1.78,5.61,1.59,7.91-3.06-.03-36.79,1.9-46.05-.06-6.75,4.5-12.29,5.62-18.76.99-6.72-.57-14.33.6-21.25,1.2-6.37,3.44-12.22,1.04-18.69-1.75-4.76-3.89-7.92-2.76-13.32-1.77-10.86,1.72-7.81,3.97-16.11.24-2.11-.71-4.19-1.07-6.2-.76-4.95,5.23-7.43,7.42-11.57,3.5-13.6-12.16-3.28,11.43-24.13,6.96-7.69,18.61,22.33,34.91,23.48,16.87,3.62,35.67,1.3,52.96,1.07,3.24-.3,5.33,1.69,5.09,5.01.68,29.12,2.84,58.31,2.23,87.46-.2,11.65-.62,23.29-.82,34.93-.11,6.22-.14,12.46-.06,18.66.4,5.61-3.18,4.35-7.02,2.21-8.63-5.23-44.61-38.25-40.83-48.78,1.23-3.74,4.45-6.81,4.49-10.95-.32-9.31-5.39-16.63-3.36-26.74-.01-3.22-1.22-.13-1.37,1.24-.66,3.5-.52,7.01.21,10.47,1.3,6.88,5,13.83,1.4,20.23-2.5,3.99-4.83,8.97-1.74,13.25,3.83,7.49,10.57,13.68,15.88,19.78,6.28,5.94-13.71,13.42-14.03,21.13-.66,3.39.99,8.97-1.18,11.81l-.04.03Z" style="fill: #dcd995;"/>
      <path d="M403.36,202.56c-14.46.2-32.63,0-47.66.07-1.1,0-2.1,0-3.14,0-2.02-.03-2.3.21-2.73-1.29-.56-2.29-.69-4.51-.91-6.96-.71-9.6-.94-20.79-1.42-30.23-.29-2.62.05-6.23-1.06-8.4-10.64-9.72-2.28,36.11-2.95,40.37.56,4.29-1.51,6.47-5.83,6.16-17.88.16-35.99,2.4-53.81.24-1.39-.31-4.5-.11-4.65-1.52-.03-9.49-1.88-98.78-1.72-108.15,5.83-1.03,88.16-12.12,115.88-16.03,3.37-.46,5.91-.81,7.36-1.01.92-.03,1.37-.44,1.54.06.13,2.49,1.15,100.97,1.1,126.68h0Z" style="fill: #dcd995;"/>
      <path d="M511.23,65.47c5.16,1.05,5.4,7.83,7.51,11.72,2.11,4.52,8.09,7.64,9.15,12.44-2.35,21.88-11.97,43.42-13.47,65.63-1.16,9.71.25,20.12-.31,29.76-.16,9.52-3.61,12.83-12.62,15.04-7.3,2.51-15.39,5.85-19.98,12.29-1.41,1.63-2.59,4.29-4.9,3.72-4.9-.95-25.06-4.95-34.8-6.87-1.13-.4-5.84-.71-5.72-1.56.05-6.99-.53-124.86-.38-133.76.03-.39,1.68-.89,2.48-1.02,6.37-1.2,15.99-1.16,23.01-2.07,16.65-1.5,33.32-4.42,49.97-5.34h.07Z" style="fill: #dcd995;"/>
      <path d="M136.54,616.64c.17,7.93,1.15,104.92.74,115.72-.39,3.51-.92,7.31-3.29,10.08-8.98,9.71-6.6-4.38-31.95-3.84-7.84-.39-19.27-.32-19.87,9.94-1.77,13.56,10.41,14.5,21.12,12.87,6.5-.05,23.12-3.46,16.98,8.25-11.27,6.89-30.2.93-43.7,2.67-1.6.03-3.96.74-5.01-.48-4.11-12.58-7.31-36.36-9.92-51.43-5.32-33.02-1.49-66.88-2.32-100.22.11-1.87-.5-3.46,1.17-3.56,9.13.1,70.64-.25,76.04,0h0Z" style="fill: #dcd995;"/>
      <path d="M494.69,997.68c.05-19.61.54-53.69.74-73.85,8.87-1.14,106.62-1.37,126.47-1.96,1.78,6.11.73,47.86,1.37,54.16-.04.9-.38.87-1.57.96-2.97.07-7.33,0-10.42.04-1.48-.11-3.07.61-3.03,2.24-.25,4.07,7.21,2.1,10.01,2.55,3.74-.11,5.2.76,5.04,4.74.01,2.4,0,5.98,0,8.18,0,.83.11,2.52-.27,3-6.08.12-101.5.17-128.32-.05h0Z" style="fill: #dcd995;"/>
      <path d="M444.35,1198.39c-.29-.73-1.83-16.88-1.68-26.7.81-26.7-1.59-69.96.9-76.3,28.21-.38,57.29-1.95,85.34-.45.1,11.02-.51,78.9-.72,103.97-6.54.81-62.44,0-83,.28-.51,0-.75-.17-.83-.76v-.04Z" style="fill: #dcd995;"/>
      <path d="M586.44,1003.03c.26,3.75,0,9.44.09,13.91.03,1.38-.1,3.08,1.06,4.01,2,1.57,4.06.52,3.73-2.09.77-17.56-3.97-16.45,12.49-16.28,5.79,0,12.48,0,16.15,0,2.08.19,3.34-.6,3.35.98-.16,7.68,1.18,66.94.56,71.69-1.09.18-3.82-.02-8.34.05-18.69-.75-59.79,1.47-65.71-.82-.63-2.21.71-8.09-2.66-8.55-3.33.4-1.8,5.92-2.3,8.29-.13.91-.39,1.06-1.12,1.07-6.48-.1-41.59.2-49.09-.1-1.03-.44-.91-2.4-1.04-3.65-.67-11.64-2.24-23.02-.03-34.58.38-2.96,2.65-4.8,5.6-4.7,12.03-.68,24.19.69,36.19-.58,8.06-.85,6.23,4.41,9.97,6.99,5.82.23,2.01-7.48-.35-9.65-1.12-1.23-2.32-1.77-3.83-1.66-7.16-.02-35.24-.1-44.23-.12-1.03,0-1.7,0-2.22-.84-.87-1.34-1.98-9.89.58-9.44,9.4,0,37.47.02,49.22-.02,1.87-.23.83-3.17.15-4.21-.53-.66-1.2-.55-2.23-.57-7.91,0-14.71,0-23.75,0-9.93,0-19.66,0-22.73,0-1.21.19-1.33-1.06-1.32-1.99.16-1.49-.57-6.84.51-7.58,8.98.34,83.15-.79,91.28.4v.02Z" style="fill: #dcd995;"/>
      <path d="M346,352.64c-1.24-15.49-.54-31.38-.54-46.98-.05-4.06.38-8.09.5-12.08.35-26.82.22-53.72,1.01-80.48.07-3.42,1.73-5.09,5.1-5.18,12.89-.87,30.11-.59,43.19.48,2.65.43,5.55.56,7.84.76,1.53,13.45.91,127.58,1.26,137.32-.38.39-1.56.72-1.89,1.34-.68,1.71,2.18,3.64,1.55,5.43-.38.6-1.09.34-2.16.4-.64,0-1.26,0-1.92,0-12.48.03-38.54-.01-52.77,0-.62-.02-1-.29-1.14-.97v-.04Z" style="fill: #dcd995;"/>
      <path d="M356.98,616.76c2.34-1.28,6.14-.95,8.79-1.1,11.59-1.46,23.33-.56,34.99-.62,3.06-.25,5.43.93,5.21,4.4-.23,44.97-.11,89.96.73,134.9-.1,1.87.14,2.89-1.34,2.97-7.01.2-42.77,1.13-57.15,1.52-1.35.04-1.27-.74-1.32-2.64.46-17.21-1.89-34.49-.65-51.7.49-5.61,1.55-11.31,1.35-16.94-.23-13.81-1.42-17.73,14.27-17.45,1.89,0,4.54-1.73,3.36-3.66-2.06-2.59-9.67.83-8.83-3.13.51-9.49-1-39.38.58-46.51l.03-.02Z" style="fill: #dcd995;"/>
      <path d="M358.09,604.44c-.87-.79-1.05-2.47-1.05-3.77-.1-14.08,1.74-28.31-1.94-42.01.36-13.03-3.8-12.07-13.79-17.54-2.62-1.49-1.55-4.61-1.81-7.11-.09-6.93-.26-17.77-.37-25.76-.12-8.16-.23-16.02-.34-23.98-.01-1.23-.02-1.16,1.17-1.18,16.55-.18,34.72-.36,51.17-.54,5.92-.06,10.51-.11,12.36-.13,1.17-.17,1.72.91,2.07,1.88,4.22,11.46,1.04,24.41.48,36.28-.96,26.26.67,52.62-.29,78.78,0,3.21-1.85,5.16-5.01,5.04-13.95-.23-29.06,2.86-42.61.07l-.04-.04Z" style="fill: #dcd995;"/>
      <path d="M280.54,1067.16c-.08.6-.09.88-.53.95-24.4-.36-106.2.71-112.18-.37-1.43-19.03.37-38.53-1.61-57.58-.17-2.71,1.51-4.09,4.18-4.05,20.08-.27,40.38-.87,60.49-.34,13.62,2.59,32.18-2.99,43.76,6.02,7.08,6.29,5.26,17.13,5.92,25.69.34,9.84,0,19.81-.04,29.64v.04Z" style="fill: #dcd995;"/>
      <path d="M437.18,604.83c-1.03-1.74-1.15-4.73-1.17-6.99-.06-3.23.07-6.83.16-9.94.24-9.96.75-19.41,1.28-30.64.6-16.24,1.58-32.34-.29-46-.83-2.91-2.09-5.08-2.02-8.16.01-6.87-.9-15.86.74-22.25.6-1.59,1.04-3.14,1.45-4.81.38-1.8,1.43-3.3,3.52-3.16,4.82.4,9.64,1.29,14.44,1.37,8.06.82,29.29-.59,32.53,6.37.89,1.92,1.42,5.07,1.71,7.75,1.49,15.29-.16,30.87-.45,46.12-.75,21.83,2.77,46.5-.29,68.77-.52,1.82-1.07,2.44-2.58,2.35-5.5,0-27.15,0-39.55,0-3.68,0-6.52,0-7.93,0-.62-.01-1.16-.18-1.53-.74l-.02-.03Z" style="fill: #dcd995;"/>
      <path d="M404.21,364.12c.27,29-.28,87.72-.26,112.07.07.68-.51.5-1.01.54-5.41,0-38.3.01-50.94-.01-1.67-.02-1.35-2.52-1.63-4.27-.64-7.91-.53-15.93-.42-23.87.5-26.39-1.67-52.89-1.78-79.29.23-2.12.39-5.37,2.74-5.24,6.75.06,40.22-.13,53.29.07h0Z" style="fill: #dcd995;"/>
      <path d="M437.81,679.8c.82.01,2.56.21,3.7.31,4.74.46,9.37.27,13.69,1.78,3,1.06,5.67,2.92,8.61,4.15,2.25.98,4.67,1.44,7.1,1.26,3.15-.27,6.31-.69,9.46-.23,10.26,1.27,20.62,6.2,30.53,9.44,2.39.83,3.62,1.95,4.42,4.58,1.36,4.06,2.25,8.9,3.51,12.96,2.69,8.05,8,15.07,13.39,21.41,1.47,1.77,3.47,3.65,4.51,5.66,1.26,2.47-.92,5.23-2.69,6.97-1.81,1.82-4.12,2.69-6.48,1.64-1.77-.66-3.67-1.39-5.59-1.61-4-.46-9.17.93-12.31,3.26-4.48,3.78-1.54,10.44-9.63,9.98-18.98-.67-37.96,2.22-56.95,2.4-1.73-.04-6.35-.12-6.2-2.1,0-7.27,0-61.18,0-81.15,0-.55.25-.74.9-.72h.04Z" style="fill: #dcd995;"/>
      <path d="M310.63,769.22c.84.41.92,1.44.93,2.32.01,3.69,0,11.78,0,15.3.02.93-.02,1.85.36,2.67.78,1.41,1.85,2.21,3.23,3.65,1.54,1.51,3.37,3.22,4.79,4.58,3.27,3.02,5.9,6.6,8.79,10.03,1.92,2.26,4.06,4.53,6.44,6.2,8.29,5.49,19.38,6.16,29.17,8.53,1.66.51,4.53.57,4.51,2.6.06,5.18.37,16.11.46,22.84.12,5.25.2,10.53.31,15.33.02.79.03,1.53.05,2.3.01,1.52.19,2.39-.61,2.76-.67.31-1.33.28-2.35.32-7.56.06-15.53-2.41-22.89-1.13-5.93,1.05-10.22,5.32-14.82,9.06-2.3,1.96-4.52,3.92-6.44,5.46-1.6,1.19-3.5,3.08-5.49,2.86-1.62-.19-3.18-1.56-4.45-2.74-12.76-12.39-24.88-25.46-37.8-37.69-1.9-1.7-4.26-2.97-5.84-4.71-1.77-2.13-3.97-4.71-2.78-7.48.67-1.54,2.1-3.03,3.24-4.35,4.09-4.52,10.53-10.67,12.81-15.96,1.04-2.17,1.05-4.4,1.02-6.75,0-3.83-.01-10.93,0-13.99.02-1.2.15-2.15,1.7-2.23,2.68-.19,5.77.03,8.5-.15,6.96-.69,12.22-6.48,13.86-13.27.43-1.51.35-3.09.67-4.6.38-1.5,1.64-2.22,2.58-1.79l.04.02Z" style="fill: #dcd995;"/>
      <path d="M711.78,844.04c2.43-2.22,11.71-2.23,15.17-2.45,7.73-.17,16.93-.63,24.57.43,1.57.39,2.35.56,2.45,1.78.22,7.25,1.78,60.04,1.94,65.41,0,.22,0,.37-.03.47-.09.27-.44.21-.72.22-7.71-.28-79.18,1.37-86.33.45-.06-4.74,0-9.23-.02-16.63-.01-13.97,0-36.37,0-48.99-.05-1.97,4.24-2.02,5.93-2,8.44,0,24.63,0,29.84,0,1.34-.04,1.75.17,1.77,1.52.06,2.94.01,8.21.03,11.96.03,1.3-.1,2.8.57,3.92.93,1.49,3.67,1.66,4.04-.38.23-.94.16-2.29.18-4.01,0-2.36,0-5.1,0-7.3,0-1.61-.09-3.7.58-4.37l.03-.04Z" style="fill: #dcd995;"/>
      <path d="M722.46,765.32c13.58-.59,34.47-.83,49.33-1.27,5.99-.14,11.53-.27,17.31-.41,1.36-.02,1.18-.13,1.23,1.27,0,.42.02.8.03,1.26.42,18.99.89,41.04,1.3,59.67.09,4.14.16,7.17.18,8.49.18,1.91-1.41,2.51-3.49,2.71-4.61.44-11.81.05-16.83.15-3.16.2-6.48.88-9.72.87-12.84.12-26.04.3-38.75-1.01-.59-.18-.71-.47-.71-.97.11-7.67-.21-53.37.11-70.76h0Z" style="fill: #dcd995;"/>
      <path d="M101.02,471.99c.37.06.45.12.47.39.5,29.29,2.32,127.16,2.37,133.56,0,.19-.35.24-.58.23-11.12.03-29.49,0-41.72,0-1.54,0-1.62.03-1.63-.58.08-7.03-.16-92.49.08-99.86.03-.26,1.51-.26,2.15-.25,2.71,0,8.84,0,12.32,0,3.73.26,7.07-.88,9.54-3.71,1.38-1.43,1.56-3.14,1.49-4.99,0-4.77,0-16.45,0-21.08.01-.9.05-1.98.52-2.68,1.1-1.26,2.99-1.01,5.12-1.1,2.87,0,7.34-.05,9.85.06h.03Z" style="fill: #dcd995;"/>
      <path d="M500.92,614.85c.49,6.87.55,38.25,1,52.03.58,3.02,2.68,6.31,5.66,7.93,1.93,1.09,4.3.44,6.34.97,4.05,1.13,1.5,11.95,1.44,15.29-.21,3.19-2.01,4.77-5.34,3.7-9.37-2.26-18.53-7.73-28.24-8.35-11.97-.21-13.77,1.33-24.81-5.13-3.84-1.9-8.92-1.66-13.28-2.15-4.34-.34-6.98-.15-6.91-5.33-1.2-19.43-1.01-38.99-.32-58.42,6.14-2.01,37.1-.04,54.29-.71,5.49.13,8.45-.25,10.17.15h0Z" style="fill: #dcd995;"/>
      <path d="M351.48,616.73c.28,12.51.07,41.6.07,48.63-.23.94-1.48.85-2.7,1.43-1.42.54-2.89,1.52-3.56,2.95-2.05,4.42.17,10.41-1.8,14.87-.47,1.13-1.14,2.34-2.34,2.32-6.68,0-40.54.77-54.12.68-.12-.1-.14-.25-.15-.42-.02-1.08,0-4.84,0-10.13,0-14.56,0-32.09,0-47,0-4.25,0-8.11,0-12.19.02-1.37-.16-1.3,1.12-1.3,5.13,0,10,0,15.31,0,11.67,0,26.11,0,37.28,0,5.36,0,9.25,0,10.42,0,.2,0,.35.02.47.14h0Z" style="fill: #dcd995;"/>
      <path d="M279.21,1175.85c.72.82.42,2.22-.82,3.21-1.09.81-2.49,1.08-3.83,1.23-2.2.22-4.44.31-6.74.38-12.77.33-25.94-.89-38.71-1.34-20.74-.61-41.42.99-62.15.48-3.22-.02-5.73-.32-5.86-4.09-.02-2.07-.41-4.57.71-6.43.67-1.06,2.45-1.42,3.99-1.59,5.71-.9,6.32.66,10.71,3.23,2.4,1.03,5.42,1.06,8.08,1.37,2.78.17,5.81.68,8.21.07,1.55-.34,3.16-2,2.21-3.6-1.57-2.25-5.07-1.7-7.71-1.72-4.64.15-9.53.24-11.93-3.68-1.02-1.61-1.39-3.28-1.63-5.05-1.16-9.62-1.51-28.94-.66-38.25,1.15-13.91,12.44-5.57,15.65-18.28.27-1.21.32-2.22.41-2.87.07-.49.16-.8.38-.98.38-.25.98-.27,1.53-.26,4.63,0,20.93,0,26.62,0,1.39-.04,2.69.13,3.27,1.63.51,1.22.72,2.81.78,4.2.17,6.09-.57,12.76-.2,18.91.33,8.25.65,16.91,1.24,25.05.48,5.7.68,11.92,4.37,16.54,3.58,4.59,8.91,7.63,14.12,10.11,2.93,1.5,5.96,1.02,9.3,1.09,7.77,0,21.36,0,26.17,0,.88.02,1.85-.05,2.47.6l.02.03Z" style="fill: #dcd995;"/>
      <path d="M82.72,191.23c-1.08-9.08-5.53-19.11-6.92-28.46-1.28-8.92-.08-18.1,0-27.18.11-4.46-.15-8.93-1.64-13.26-1.43-4.02.69-5.23,2.97-8.11,1.27-1.57,2.14-3.02,4.05-4,3-1.55,6.33-3.1,9.33-4.6,2.89-1.47,3.68-1.45,4.66,1.32,1.98,5.64,5.76,10.47,9.86,14.79,8.11,8.72,12.67,17.59,16.6,28.31,6.22,17.09,8.17,35,10.95,52.9.12,1.97-.62,3.37-2.47,3.88-13.02,1.9-26.69-1.9-39.91-.21-2.1.08-5.09.76-6.64-.94-.86-1.1-.66-3.18-.62-5.31.07-3.02.14-6.08-.19-9.07v-.07Z" style="fill: #dcd995;"/>
      <path d="M350.68,606.08c-5.8.31-49.8.12-65.95.09-.29-.11-.24-.41-.26-.73-.02-4.89,0-42.19,0-55.6.04-1.25.86-1.11,2.55-1.24.69-.02,1.55-.03,2.31-.04,9.72-.21,19.46-.31,29.17-1,10.93-1.21,22.46-2.61,31.02,5.52.94.96,1.28,1.58,1.26,2.74,0,3.19,0,14.22,0,25.13-.07,8.12.18,18.94-.11,25.12h0Z" style="fill: #dcd995;"/>
      <path d="M406.76,768.5c.17,1.91.03,4.46-.63,6.49-.5,1.45-1.2,2.5-2.17,3.96-2.96,4.35-6.14,8.73-9.22,12.97-5.77,7.87-12.32,15.8-18.7,23.22-2.07,2.21-5.2,6.58-8.07,6.77-1.07.11-2.97-.3-4.56-.58-4.47-.89-8.74-1.8-12.88-2.9-14.73-3.67-18.69-8.73-27.9-19.85-2.13-2.5-4.53-4.58-6.86-6.84-2.23-2.12-3.67-4.52-3.41-7.52.13-3.28.99-7.64,1.02-11.33,0-.95,0-2.07,0-2.85.02-.51.1-.75.31-.83,7.1-.28,71.22-1.25,92.49-1.66.45.07.48.35.58.9v.04Z" style="fill: #dcd995;"/>
      <path d="M363.47,1174.28c-5.27-24.2-3.67-49.96-4.38-74.6,6.2-1.28,28.17-.53,40.02-1.13,2.94-.05,5.02-.1,5.81-.09.37,0,.66.09.62.53.09,5.4,1.18,70.74,1.25,75.73-.05.77-.58.39-1.66.5-11.29-.02-29.16.03-40.33-.01-.61-.03-1.06-.28-1.32-.89l-.02-.04Z" style="fill: #dcd995;"/>
      <path d="M403.9,871.64c.6.2.88.62.9,1.22.03,1.4.01,4.25.03,7.85.01,10.5.06,26.06.06,31.66.01.99-.34,1.43-1.71,1.57-19.06.89-38.64,2.32-57.41-1.33-1.77-.38-3.43-1.01-4.94-1.99-5.66-4.04-10.41-9.31-15.22-14.49-2.19-2.56-4.72-4.84-6.63-7.55-.93-1.46.11-2.83,1.35-3.78,7.93-6.17,15.82-16.33,25.97-16.55,8.14-.35,17.6,2.05,25.94,2.47,10.45.66,21.27-.81,31.61.92h.04Z" style="fill: #dcd995;"/>
      <path d="M277.61,1099.02c.34.49.24,1.54.21,2.28-.48,9.16,2.29,32.45,1.13,38.82-.2,1.07-.63,1.78-1.79,2.11-3.19.75-8.4-.43-12.13-.1-2.62.16-5.08.76-6.77,2.41-2.25,2.19-2.7,5.4-2.46,8.38.22,4.74,1.34,11.4.51,15.32-.9,3.29-7.5,2.15-10.1,1.79-8.34-1.46-16.33-7.35-18-15.89-1.92-11.3-1.67-24.26-2.06-35.78-.07-5.98-.5-13.51.2-19.01-.73-3.57,28.5-.56,39.84-.73,4.05.1,7.49.12,9.68.01.59-.01,1.31-.08,1.7.37l.02.02Z" style="fill: #dcd995;"/>
      <path d="M151.78,1166.3c-12.75.66-53.8,1.08-59.05,1.3-2.22-.26-3.28-4.08-3.58-6.18-1.41-11.94-1.01-24.22-1.61-36.29.01-1.11-.37-3.14.49-3.49,7.55-.3,56.91-1.06,62.43-1.21.58,0,.66.07.69.78.02.73.04,2.22.07,4.25.07,11.06.71,30.07.56,40.82h0Z" style="fill: #dcd995;"/>
      <path d="M332.25,483.15c.81,13.55,1.05,48.54,1.36,54.96.08,2.14-4.83,2.58-6.54,2.83-13.47,1.44-27.23,1.02-40.76,2.02-1.35.02-1.85-.1-1.85-1.11,0-1.34,0-3.95,0-7.29.07-13.58-.12-34.98.06-41.47.91-3.95,5.23-7.34,8.65-9.04,2.36-1.28,4.45-1.03,7.14-1.03,7.98.11,23.23-.22,31.93.12h.01Z" style="fill: #dcd995;"/>
      <path d="M297.53,692.94c.59.56.47,1.5.52,2.28,0,2.14,0,5.8,0,8.32-.3,4.38,1.59,7.28,6.02,7.96,5.08.86,10.09,1.12,15.24.99,6.71-.1,17.18-.31,20.27.38.57.12.9.26,1.08.48.79,7.05.85,32,1.34,43.91,0,.26.01.51-.16.68-.14.08-.3.11-.49.11-11.61.22-47.36.67-53.86.78-.81.03-.6-.48-.63-1.27,0-15.76,0-46.41,0-63.84.02-.82-.11-1.11,1.15-1.18.68-.03,1.33-.04,2.06-.04,1.68,0,3.74-.01,5.36.01,1,.02,1.69.1,2.07.4l.03.02Z" style="fill: #dcd995;"/>
      <path d="M488.87,1024.26c.19.23.16.56.17.87,0,1.17,0,3.75,0,7.16.01,11.35,0,31.19,0,41.58.02,1.82-1.95,1.43-3.5,1.55-7.09.05-14.23-.15-21.33-.11-2.85,0-5.55.12-8.39.43-3.17.3-6.85.78-10.03.25-2.24-.45-3.14-.76-3.18-2.5-.04-1.35-.09-3.79-.17-6.89-.14-6.3-.35-14.59-.51-21.4-.17-6.96-.32-13.64-.48-20.42-.03-1.5-.09-1.55,1.31-1.53,3.66.06,7.16.12,10.96.19,8.47.15,18.95.34,27.05.48,3.41.06,6.01.1,7.2.13.32.01.64,0,.88.18h0Z" style="fill: #dcd995;"/>
      <path d="M406,778.98c.45-.21.67-.1.71.29-.01,1.8-.15,8.27-.31,16.97-.52,24.84-1.15,66.02-1.42,72.22-.23.77-1.59,1.27-2.57,1.49-6.72,1.17-13.82-.22-20.81-.62-1.31-.09-2.63-.17-3.94-.21-1.83-.06-3.83.08-5.03-.66-1.03-.63-1.39-1.63-1.57-2.91-.64-12.6-1.34-25.29-1.1-37.95,0-2.56.77-4.96,2.53-6.87,5.64-6.15,11.38-12.53,16.47-19.1,3.98-5.12,7.33-10.8,11.11-16.07,1.82-2.36,3.41-5.03,5.91-6.58h.03Z" style="fill: #dcd995;"/>
      <path d="M489.79,1010.38c-.24,1.72-.43,3.57-.76,5.33-.46,1.85-1.32,3.5-2.12,2.23-.53-1.19-.28-4.38-.43-6.15-.13-4.23-.28-9.4-.41-13.84-.2-5.94.46-8.14-4.79-11.48-9.19-4.72-25.56-1.37-36.05-1.01-2.93.3-5.31-.34-5.68-3.68-1.63-17.29-1.83-34.84-2.11-52.17-.05-1.36.18-3.23.66-4.22.48-1.11,1.29-1.36,2.34-1.36,3.38-.05,14.16-.22,24.84-.39,7.5-.16,19.02-.28,24.61-.37.97-.01.7,1.13.73,1.86-.11,3.19-.45,12.29-.61,16.65.1,3.47-1.98,3.18-4.75,3.19-3.94-.04-7.9-.2-11.72-.04-2.77.11-5.59.29-8.37.55-2.92.27-5.58.68-7.82,2.28-5.13,3.73-9.21,10.56-7.37,16.98,4.22,12.77,24.92,8.9,36.04,8.52.95-.05,2.12-.03,2.78.55,1.06.9.95,2.87.95,4.26-.19,10.69.95,21.61.04,32.23v.08Z" style="fill: #dcd995;"/>
      <path d="M791.73,910.58c-1.62.27-2.82.01-5.67.1-7.98-.19-19.35.36-24.64-.21-.58-.28-.79-1.02-.92-2.2-1.54-18.26.38-36.54-.97-54.84-.23-3.18-1.15-8.09.31-10.83.58-.78,1.43-.62,3.11-.65,6.89-.02,18.06.01,24.41,0,1.2-.03,3.1-.03,3.77.56.55.39.81.94.82,1.57,0,4.83,0,33.22,0,51.28,0,7.52,0,13.24,0,14.74,0,.22-.02.38-.2.49h-.01Z" style="fill: #dcd995;"/>
      <path d="M601.25,581.12c8.42-2.72,8.4-14.43,7.34-22.48-.09-1.11-.35-2.3.84-2.71,3.91-.63,10.67-.54,14.13-.83.74.05,1.9-.32,2.17.47.09,1.04.06,1.95.09,3.3.16,11.67.54,33.4.72,45.33-.04.91.17,1.18-.53,1.22-5.18-.01-59.75.04-67.42,0-2.16-.37-1.66-6.83-1.78-8.67.45-3.32-2.31-13.68.74-15.23,7.49-.52,32.47.48,43.66-.38h.05Z" style="fill: #dcd995;"/>
      <path d="M122.76,211.95c1.28-1.11,2.76-.79,4.8-.85,1.38.02,2.84-.02,4.16.31,1.15.28,2.04,1,2.82,1.86,1.06,1.21,2.24,2.55,3.22,3.82.86,1.08,1.27,2.33,1.32,3.71.26,3.9-.09,12-.39,17.02-2.09,28.18-12.48,62.32-28.01,85.6-1.89,2.75-3.3,3.65-6.17,1.38-2.98-2.14-7.88-6-9.79-7.95-.38-.36-.72-.83-.89-1.25-.41-.77.51-2.16,1.24-3.27,2.16-3.34,6.26-8.95,8.68-12.7,1.1-1.71,1.78-2.85,2.5-4.48,3.51-8.52,8.09-25.43,11.18-38.21,1.15-4.91,2.15-9.11,2.72-14,1.1-9.06.82-18.72,1.69-27.85.11-1.06.22-2.36.88-3.09l.04-.04Z" style="fill: #dcd995;"/>
      <path d="M460.39,360.9c4.72-.32,9.55.03,13.92,2.36,3.03,1.35,5.59,3.27,5.4,6.96-.48,28.18,1.11,56.53.61,84.82.01,1.84-.02,3.8-1.14,5.31-1.73,2.38-4.43,2.91-7.14,2.8-2.27,0-5.88,0-8.22,0-1.46-.02-4.19-.13-4.38-1.77.01-12.85-.03-79.95,0-99.97.08-.42.36-.41.89-.51h.04Z" style="fill: #dcd995;"/>
      <path d="M143.03,472c.33.06.4.15.42.41.57,21.32,2.45,94.22,2.83,108.91.02,1.12-1.61,1.86-2.79,2.2-2.02.49-6.17.23-8.84.29-1.25.02-3.68,0-4.3-.06-.37-.03-.52-.15-.52-.47-.02-.92-.06-3.4-.13-7.05-.38-24.21-1.85-97.48-1.8-104.06.09-.16.37-.21,1.16-.24.42.01.89-.03,1.35-.01,3.65.09,9.16-.13,12.6.07h.02Z" style="fill: #dcd995;"/>
      <path d="M166.64,471.8c1.08,27.41,0,81.28.37,109.6.52,2.47-13.85,2.31-15.14,1.46-2.39-8.91-1.66-102.32-2.41-110.85,4.68-.69,12.35-.15,17.15-.21h.02Z" style="fill: #dcd995;"/>
      <path d="M453.5,360.92c1.2,10.59.31,36.59.8,52.11-.89,23.08,2.98,54.25-1.82,51.71-2.96-.54-12.27,1.42-14.22-1.51-3.14-23.66-.21-48.44-1.12-72.45.76-9.31-3.32-20.46.23-29.14.73-.71,1.85-.77,2.86-.79,3.96.06,9.64-.13,13.23.06h.02Z" style="fill: #dcd995;"/>
      <path d="M122.66,472c1.21,21.28.94,98.66,1.08,111.64-3.05.47-7.94.03-11.61.18-3.31.22-3.93-.87-4.13-4.02-.28-2.88-.21-7.01-.16-9.82.99-32.35-2.65-65.29-.13-97.38.66-.63,1.76-.64,2.69-.67,3.94.07,8.81-.12,12.24.06h.02Z" style="fill: #dcd995;"/>
      <path d="M72.58,345.33c.72-.47,1.24-1.07,1.72-1.77,4.12-6.01,12.76-18.68,15.54-22.72.5-.75,1.09-1.26,1.99-.64,3.01,2.2,6.75,4.6,9.72,6.74,1.22.93,2.55,2.06,2.77,3.65.16,1.06-.18,2.25-.8,3.43-7.88,13.11-17.97,24.95-25.77,38.04-3.32,5.52-6.06,11.38-8.98,17.12-1.27,2.49-2.59,4.98-4,7.38-.72,1.2-1.47,2.12-2.38,2.31-1.67.32-3.49-1.35-4.96-2.33-2.84-1.98-5.47-4.39-5.9-8.04-1.59-10.38-.58-21.07-.63-31.53-.34-7.33,4.24-7.2,10.06-7.74,4.05-.38,8.12-1.83,11.57-3.87l.04-.03Z" style="fill: #dcd995;"/>
      <path d="M342.67,323.51c1.34.35.93,1.61,1.08,3.54.16,5.66.32,12.19.48,18.18.08,3.05.15,5.6.18,6.97.04,1.44-.02,1.7-1.25,1.66-7,.06-44.97.62-52.26.65-.84.04-1.08-.9-1.24-1.99-.82-5.73-.99-16.12.52-21.81.48-1.84,1.7-2.97,3.68-3.24,15.01-1.19,30.29-.99,45.14-3.58,1.13-.18,2.75-.52,3.64-.38h.04Z" style="fill: #dcd995;"/>
      <path d="M526.16,338.84c-.91,1.2-2.26.33-4.23-.03-11.07-2.69-30.76-7.24-36.83-9.74-1.38-.48-2-1.54-2.38-3.02-.5-1.75-1.02-4.76-1.34-7.04-1.15-9.7-.98-24.73-.03-34.31.29-2.2,1.27-6.9,4.21-4.57,1.4,1.19,2.56,2.76,3.85,4.26,11.46,13.92,22.2,28.35,33.35,42.52,1.42,1.81,2.75,3.75,3.35,5.98.49,2.17.84,4.27.08,5.92l-.02.03Z" style="fill: #dcd995;"/>
      <path d="M641.85,843.62c1.64,4.87.08,24.86.6,37.33.24,6.1-1.01,8.24,2.07,12.43,4.08,5.47,13.87,2.72,19.08,5.67.94,2.66.22,6.44.43,9.19-.07.93.22,2.53-1.11,2.47-8.73-.32-27.57.65-35.62-.32-.08-6.67-.96-57.16-.74-63.8,2.75-2.17,11.42-3.1,15.27-2.97h.03Z" style="fill: #dcd995;"/>
      <path d="M477.67,326.39c-.51.97-1.85.94-2.88.98-4.75-.12-11.39.25-15.59-.15-.53-.24-.37-.67-.44-1.28-.03-.57-.07-1.35-.13-2.29-.8-14.52-3.1-55.83-3.47-62.65-.27-1.8,3.31-2.12,4.78-2.48,8.62-1.55,12.16,4.02,17.07,10.29,1.4,2.09,4.23,4.38,3.22,6.94-.77,2.01-2.4,3.7-2.55,5.88-.69,6.35-1.24,24.31-1.21,32.15.02,1.63.15,2.97.42,4.69.31,2.13,1.01,5.06,1,6.87,0,.36-.06.71-.2,1.02l-.02.04Z" style="fill: #dcd995;"/>
      <path d="M166.19,447.49c-.09.34-.24.43-.54.45-1.6.01-7.59-.07-15.6-.15-14.71-.16-53.56-.51-61.6-.65-2.18-.04,2.42-11.58,3.4-13.81.58-1.26,1.44-3.04,1.88-3.36.27-.26.52-.35.83-.39,8.29-.07,61.49,0,68.75-.02,1.3.16,2.03.82,2.63,2.55.28.92.37,2.04.36,3.05-.09,4.02.17,8.8-.11,12.3v.02Z" style="fill: #dcd995;"/>
      <path d="M530.29,615.13c.34.19.27.61.29.97-.02,1.68-.09,5.84-.17,11.1-.21,12.36-.43,28.37-.62,38.18-.63,5.37-7.12,4.93-11.6,4.93-2.22-.04-4.54-.1-6.55-.35-3.59-.35-4.25-2.07-4.79-5.39-.93-6,.18-12.97-.53-18.98-1.19-8.83-.31-17.94-.49-26.84,0-2.21.01-3.93,2.62-3.78,5.08.12,15.91-.27,21.81.15h.02Z" style="fill: #dcd995;"/>
      <path d="M477.04,988.34c.86.61,1.51,1.49,2.2,2.28.71.85,1.46,1.36,1.74,2.3.25.83.22,1.65.25,2.54.14,6.4.53,16.86.61,23.08-.04.76-.3.84-.95.85-6.36-.21-33.85-1.3-39.41-1.51-.26-.01-.47-.03-.64-.07-.56-.12-.62-.52-.67-1.78-.02-.69-.04-1.36-.06-2.08-.15-5.33-.43-14.45-.57-19.32-.04-1.53-.15-2.62.22-3.21.18-.31.49-.49.84-.6.83-.27,2.29-.29,3.65-.78,2.09-.7,3.85-2.21,6-2.71,7.33-1.14,15.82.55,23.38.29,1.16-.04,2.52.09,3.37.72l.04.03Z" style="fill: #dcd995;"/>
      <path d="M85.58,452.41c.08-.36.23-.45.54-.48,16.69-.04,67.43,0,79.98,0,.3,0,.56,0,.71.26.19.24.19,1.54.2,2.22,0,2.1,0,6.09,0,8.81,0,1.53,0,2.6-.07,3.17-.03.47-.22.77-.68.76-.71.01-2.11,0-4.06,0-16.62-.12-70.01.24-76.42-.13-.34-.27-.31-2.12-.3-2.87.09-3.58-.16-8.36.1-11.7v-.03Z" style="fill: #dcd995;"/>
      <path d="M166.5,409.3c.33,3.1.05,7.05.13,10.64-.03,1.29-.02,2.79-.86,3.79-.63.74-1.75,1.08-3.12,1.27-17.95.35-36.88,1.44-54.83.85-2.93-.12-6.03-.31-8.9-.82-1.07-.24-1.82-.4-2.35-1-.52-.62-.2-1.6.42-2.95,1.38-2.63,5.52-13,7.72-12.95,7.02,0,45.97.49,60.86.63.41.01.81.03.92.5v.03Z" style="fill: #dcd995;"/>
      <path d="M77.42,205.92c-1.46,1.37-4.02,1.56-5.87,1.01-2.03-.64-2.88-2.85-3.56-4.73-1.62-4.56-3.51-9.13-4.8-13.75-1.19-4.27-1.95-8.47-2.75-12.86-2.93-16.89-4.59-31.88-4.02-47.84.14-5.91,4.33-6.28,9.24-6.66.55-.04,1.14-.04,1.65,0,2.4.09,2.65,2.86,3.09,4.76,1.23,7.57.84,17.92.76,25.56-.04,4.01-.23,7.09.21,10.86.52,9.53,11.06,36.51,6.1,43.61l-.04.04Z" style="fill: #dcd995;"/>
      <path d="M327.21,1111.9c2.08-1.01,3.19-3.46,5.25-4.45,2.17-.97,6.3-.96,8.24.4,1.41,1.1,1.71,3,2.18,4.64.92,2.87,1.14,5.88,1.12,8.91-.03,2.09.14,4.34-.22,6.36-.35,2.09-2.17,2.86-2.41,4.9-.04,3.56,1.58,7.29,2.57,10.73,1.2,3.52,1.67,6.88,1.99,10.63.1,1.81.75,8.46-1.13,8.87-.42-.06-.73-.99-.79-2.26-.1-1.58.17-3.49.12-5.16-.11-4.07-1.98-8.51-5.85-10.29-2.66-1.21-4.82-1.05-8.24-1.27-3.53-.17-7.2-.34-10.71-.61-1.42-.11-2.75-.24-3.89-.38-2.52-.34-3.98-.5-4.49-2.86-.67-4.45-.26-9.19-.31-13.68.11-3.3-.57-6.59-.42-9.9.21-4.22,3.27-4.04,7.26-3.85,3.09-.02,6.93.56,9.68-.7l.06-.03Z" style="fill: #dcd995;"/>
      <path d="M484.13,369.11c.09-.26.26-.22.48-.14,1.37.59,6.35,2.81,13.08,5.79,13.17,5.84,50.19,22.23,56.29,24.96.74.37.25,1.21-.34,1.48-1.37.78-3.79.39-5.82.48-7.53,0-16.71.01-23.82,0-6.93-1.22-28.58-7.95-36.13-9.85-3.18-.78-3.98-2.19-3.84-5.72.07-4.61-.16-12.31.1-16.97v-.02Z" style="fill: #dcd995;"/>
      <path d="M703.73,838.03c-.49-.1-.54-.43-.54-.85,0-14.9,0-56.21,0-67.88,0-.93.99-.99,1.81-1.17.82-.14,1.77-.32,2.63-.49,2.09-.39,4.34-1.12,6.23-1.24,1.86-.06,4.04-.09,3.71,2.39,0,13.83,0,59.68,0,67.13.06,2.13-3.02,2.13-4.7,2.22-3.03-.05-6.26.16-9.1-.11h-.03Z" style="fill: #dcd995;"/>
      <path d="M91.78,212.02c.81.88,1.17,2.31,1.59,3.49,2.12,6.27,3.52,13.08,8.23,17.86,3.51,3.74,9.28,8.53,11.79,11.72,1.25,1.73.84,2.89.39,5.42-.6,2.98-1.53,6.74-2.34,9.68-.46,1.85-1.59,5.42-3.87,4.29-1.37-.84-2.14-1.9-3.61-3.41-5.14-5.58-12.46-14.88-18.1-20.95-1.53-1.58-2.62-2.65-3.56-4.52-2.35-4.84-7.16-14.42-9.31-20.81-.5-2.25.5-3.65,2.91-3.65,1.74-.05,3.33,0,5.42-.02,2.01,0,4.13,0,5.87,0,1.71-.02,3.85-.04,4.56.86l.04.04Z" style="fill: #dcd995;"/>
      <path d="M290.18,1147.58c.84-.46,2.38-.43,3.51-.46,13.62-.06,27.26.88,40.83,1.9,5.61,1.01,4.63,10.36,3.86,14.25-.38,1.62-.77,2.48-2.15,2.36-6.13,0-39.75,0-45.77,0-.46-.02-.91.04-1.1-.4-.15-.36-.16-1.1-.17-2.34,0-2.51,0-7.06,0-10.45.11-2.2-.37-3.9.95-4.84l.04-.02Z" style="fill: #dcd995;"/>
      <path d="M166.13,402.4c-1.23,2.16-8.59,1.64-11.34,1.74-2.89.01-5.39-.33-8.25-.69-11.33-.85-22.74.04-34.1-.19-3.97,0-5.55-.86-3.4-4.8,1.27-2.5,3.39-5.82,5.15-7.9,1.19-1.46,2.72-2.34,4.65-2.4,12.68.18,25.95-.86,38.43-.28,1.82.11,3.74.25,5.49.74,3.11.77,3.84,2.95,3.86,5.85.06,1.98.13,4.29.03,5.91-.05.68-.15,1.39-.49,1.97l-.03.04Z" style="fill: #dcd995;"/>
      <path d="M361.22,1066.39c.32-.99,1-1.78,1.7-2.58,2.77-3.06,8.93-9.2,12.11-11.89.52-.43,1.12-.87,1.7-1.02,1.42-.34,2.64,1,3.73,1.99,5.77,5.43,10.67,12.91,17.57,16.48,1.71.86,3.91,1.49,5.72,2.18,1.1.45,1.82.96,2.15,1.94.53,1.6-.05,4.06-.76,5.43-.55,1.19-1.66,1.52-2.87,1.43-5.71,0-28.71,0-37.32,0-.94-.02-1.6.09-2.36-.22-1.41-.82-1.4-2.78-1.64-4.55-.06-3.09-.43-6.22.24-9.15l.02-.05Z" style="fill: #dcd995;"/>
      <path d="M663.3,843.54c.56.18.71.6.72,1.14.02,1.61,0,5.25,0,9.85,0,9.24,0,31.09,0,37.26.02.82-.31,1.24-1.26,1.28-.74.07-1.91.02-3.3-.04-3.52-.2-10.89-.36-11.82-4.47.09-7.61-.45-37.18.2-44.96,1.26-1.92,12.98-.61,15.43-.07h.03Z" style="fill: #dcd995;"/>
      <path d="M289.69,1171.71c3.67-4.28,32.59-.13,40.26-.59,2.22.02,4.42-.17,6.63-.36,2.19-.21,4.67-.09,6.41,1.26,2.17,1.68,2.9,4.35,3.85,7.15.35,1.27.97,2.81.24,4-.77.99-2.18,1.1-3.41,1.3-15.06,1.69-30.36.38-45.45,1.47-1.59.16-3.43.41-5.12.4-1.14.01-2.58-.22-3.19-.86-.95-.94-.95-2.42-1.03-3.73-.05-1.18-.08-2.43-.1-3.62.02-2.68-.27-4.85.87-6.38l.04-.05Z" style="fill: #dcd995;"/>
      <path d="M561.9,575.91c.28-1.16,1.44-2.84,1.97-4.2,1.23-2.97,1.14-6.51.02-9.49-.88-2.2-2.71-3.88-2.68-5.05.27-.77,1.59-.44,2.32-.52,8.9.01,29.35-.02,35.19,0,2.07.07,4.09,1.56,5.13,3.35.84,1.44.73,3.83.69,5.95-.13,4.87-.55,7.92-5.12,10.32-.61.28-1.1.34-1.73.35-4.96,0-26.22.02-34.84,0-.45-.02-1.03-.09-.95-.67v-.03Z" style="fill: #dcd995;"/>
      <path d="M309.69,1141.83c-.51.57-1.64.67-3.42.68-3.28-.07-7.18.15-10.49-.12-2.89-.26-2.84-1.78-2.84-3.85,0-2.82,0-5.81,0-8.73,0-5.24,0-11.42,0-16.46.06-1.89-.16-4.39.18-5.95,2.48-8.59,25.52-2.16,31.94-.7,1.27.36,2.78.75,3.63,1.8.79,1.23-.44,1.95-2.03,2.33-1.43.32-3.35.4-5.37.43-3.33.19-9.55-.57-11.47,2.13-2.37,5.21.58,19.06.39,25.79,0,.93.05,1.99-.5,2.64l-.03.03Z" style="fill: #dcd995;"/>
      <path d="M151.84,1105.02c.2,1.85.28,3.79.53,5.82.34,2.57-.4,3.84-3.12,4.47-2.02.51-4.21.73-6.27.88-16.49,1.02-33.97-.49-50.55-.49-2.17.01-4.74,0-5.28-2.55-.4-1.89-.32-4.31-.17-6.26.1-.97.38-1.29,1.22-1.27,3.79-.09,17.31-.43,30.91-.76,10.09-.25,23.93-.59,31.82-.78.58-.03.84.25.92.89v.04Z" style="fill: #dcd995;"/>
      <path d="M353.31,1099.13c1.46,1.96,1.08,5.3,1.44,7.68,1.32,19.54-1.13,39.6,1.74,59.06,1.29,8.46,3.11,16.59,2.64,25.29.04,5.1-2.69,8.12-3.86,1.36-.48-3.27-.61-6.23-1.85-9.38-1.22-3.31-2.46-7.11-4.12-10.05-4.12-5.54.81-7.14,1.51-12.75,2.09-11.44-6.19-21.5-4.62-32.72.96-6.37.27-13.44.43-20.1.26-2.48-.49-8.12,1.54-9.08,1.25-.52,3.89-.51,5.11.66l.04.04Z" style="fill: #dcd995;"/>
      <path d="M146.2,606.02c-.19.36-.59.37-.96.39-8.78.02-29.08,0-34.82,0-1.01.03-1.71-.28-1.81-1.45-.21-1.96,0-5.19-.15-7.38-.1-2.12-.52-4.36-.37-6.45.13-2.17.78-2.89,2.84-2.75,6.94-.03,26.88.08,33.4-.06.63.02,1.14.13,1.5.6.67,1.05.53,2.07.57,3.47,0,2.91,0,7.19,0,10.33,0,1.77.02,2.83-.19,3.27v.02Z" style="fill: #dcd995;"/>
      <path d="M546.96,557.44c-.48,1.15-1.63,2.49-2.45,4.24-1.39,2.74-1.73,6.03-.53,8.91.78,2.19,2.24,3.7,2.42,5.35-.11.71-1.01.65-1.6.68-7.18,0-23.4,0-28.23,0-2.08.19-3.57-1.49-4.61-3.13-1.32-2-1.55-4.38-1.63-6.99-.07-3.34.36-8.06,3.63-9.52.92-.38,1.86-.33,2.85-.34,5.25,0,19.15,0,27.26,0,1.72.08,3.24-.3,2.92.77v.03Z" style="fill: #dcd995;"/>
      <path d="M489.24,950.22c.85.35.72,2.69.72,3.91,0,3.34,0,8.28,0,11.1.1,3.13-1.09,2.87-3.61,2.86-9.16-.48-33.43,5.94-31.59-8.29,1.16-6.18,5.05-8.57,11.11-9.38,3.84-.58,8.37-.63,12.62-.6,2.81.02,5.5.09,7.77.07.98.03,2.09-.13,2.95.3l.03.02Z" style="fill: #dcd995;"/>
      <path d="M342.66,692.95c.14.42.03,1.35-.12,2.85-.25,2.38-.63,6.1-.9,8.51-.15,1.5-.54,3.12-2.35,3.25-6.18.16-12.47.32-18.67.15-2.94-.18-5.66-.76-8.6-.76-2.68-.13-6.05.26-8.32-.94-.91-.49-.93-2.31-.93-3.78,0-2.12,0-5.15,0-7.01.08-1.25-.15-2.29.62-2.63,5.2-.24,28.48-.02,38.36-.08.37.02.77.03.9.42v.02Z" style="fill: #dcd995;"/>
      <path d="M80.41,472.14c.27.22.29.59.32.93.04,1.03.01,3.08.02,5.62,0,5.05,0,11.62,0,16.48.31,4.32-1.89,4.58-5.48,4.79-3.61.2-8.08.91-11.58.78-2.68-.09-3.73-.85-3.8-3.11-.3-5.12,1.72-16.65,1.75-23.01.03-.8-.07-1.77.41-2.29.32-.32.91-.42,1.86-.45,1.43-.02,3.64,0,5.97-.01,2.69,0,5.19,0,7.46,0,1.69,0,2.66-.04,3.05.25l.02.02Z" style="fill: #dcd995;"/>
      <path d="M394.71,1195.09c-.48,1.18-1.4.83-3.13.9-7.84,0-22.35,0-26.7,0-.73,0-1.36-.06-1.42-.95-.18-3.53-.03-9.04-.07-12.73.03-1.57-.02-2.36,1.46-2.29,4.35-.01,22.03,0,27.54,0,1.1,0,2.29-.07,2.64,1.24.59,2.13-.21,5.9-.11,8.37-.06,2.05.18,3.8-.2,5.44v.04Z" style="fill: #dcd995;"/>
      <path d="M667.62,718.56c1.78-.75,4.55,4.94,6.16,6.36.92,1,2.05,1.69,3.34,2.06,1.14.34,2.43.55,3.45,1.18,1.62.94,2.27,2.98,2.03,4.78-.29,2.55-1.99,4.65-2.8,7.14-.75,1.93-.66,4.29-1.58,6.11-2.02,3.27-9.58-.12-12.71-1.46-2.08-.95-4.07-1.99-5.95-3.12-1.38-.89-3.45-1.83-3.06-3.75.28-1.41,1.95-3.45,2.98-5.16,2.36-3.72,4.46-7.6,6.32-11.6.42-.88,1.1-2.25,1.79-2.52l.04-.02Z" style="fill: #dcd995;"/>
      <path d="M278.22,1147.55c1.06.44.57,3.06.68,4.26,0,3.07,0,6.5,0,9.66,0,2.48,0,4.87,0,7.28-.02,1.38-.2,1.66-1.63,1.7-2.72.04-5.54,0-8.3.02-1.56,0-3.07,0-4.27,0-2.3-.05-3.21.05-3.53-1.85-.54-5.17-1.29-13.76-.6-18.39.2-1.21.61-2.38,1.78-2.91,2-.83,4.58-.56,6.99-.45,1.87.13,3.68.3,5.43.38,1.61.08,2.81.02,3.42.28h.03Z" style="fill: #dcd995;"/>
      <path d="M89.6,744.2c.74-.44,1.59-.6,2.45-.69,1.87-.17,4.48-.19,7.36-.13,4.89.11,10.39.46,13.71.89,1.78.24,3.14.59,5.01,1.52,2.06,1.1,4.42,2.5,5.23,4.41,1,3.06-2.41,5.9-5.21,6.38-7.83,1.09-17.54-.63-25.87-.39-1.38,0-3,0-3.95-.99-2.16-2.5-1.9-9.09,1.22-10.98l.05-.03Z" style="fill: #dcd995;"/>
      <path d="M121.42,86.87c6.7-1.12,12.52,4.27,12.89,10.79.42,5.54-3.44,9.53-9.01,10.36-5.72,1.13-10.7-1.73-12.08-6.98-1.75-5.95,1.46-13.27,8.12-14.16h.08Z" style="fill: #dcd995;"/>
      <path d="M514.45,837.34c3.06-.56,6.65.25,8.77,2.11,6.49,5.54,4.64,16.35-4.14,18.24-15.21,3.86-19.91-17.71-4.73-20.34h.09Z" style="fill: #dcd995;"/>
      <path d="M117.39,212.08c.45,1.57,0,3.28-.13,5.3-.38,3.73-.99,7.5-1.09,11.23-.18,2.71.41,8.57-1.11,10.33-.79.46-1.41-.24-2.47-1.11-1.2-1.1-2.7-2.58-3.96-3.85-2.54-2.7-5.84-5.52-7.16-8.81-.55-1.25-1.01-2.55-1.44-3.86-.79-2.43-1.6-5.24-2.23-7.64-.42-1.57-.29-2.45,1.26-2.5,3.43-.1,9.17,0,13.62-.04,1.93.13,4.03-.43,4.68.9l.02.04Z" style="fill: #dcd995;"/>
      <path d="M326.53,1098.98c1.21,1.17,2.12,3.69,2.06,5.22-.03,1.11-1.06,1.41-2.04,1.28-6.89-.71-17.27-4.39-24.98-4.08-1.73.02-3.53-.07-5.18.48-1.94.61-3.58,2.39-3.91,3.69-.37,1.68-.11,3.06-.18,4.93,0,5.33,0,12.02,0,17.64,0,3.69,0,7.09,0,9.48-.08,1.85.39,3.55-1.05,4.42-.6.37-1.44.53-2.04.11-.62-.45-.64-1.55-.77-2.98-.14-1.88-.22-4.44-.27-7.31-.25-10.2.38-19.57-.1-27.41-.21-1.91-.29-4.36.29-5.35.44-.81,1.34-.78,2.17-.79,5.34,0,21.01,0,28.2,0,1.44,0,2.81,0,4.21,0,1.74.03,2.65-.14,3.55.64l.03.03Z" style="fill: #dcd995;"/>
      <path d="M162.32,1125.68c1.4-.36,3.41-.06,4.73.4,1.3.41,1.56,1.53,1.53,2.74.16,6.2.67,24.78.84,31.42.21,1.75-1.34,2.24-2.8,2.34-2.36.12-5.55-.68-5.24-3.56,0-5,0-19.14,0-25.71,0-2.63,0-4.8,0-6.08,0-.67.15-1.34.89-1.52h.04Z" style="fill: #dcd995;"/>
      <path d="M674.53,753.34c12.99-3.15,16.87,16.22,3.98,16.76-6.62.11-11.2-6.41-9.01-12.5.73-2.06,2.55-3.7,4.94-4.23l.09-.02Z" style="fill: #dcd995;"/>
      <path d="M302.08,770.27c.44,1.07.19,2.73-.03,3.95-1.3,6.85-7.05,9.66-14.34,9.18-1.03-.07-2.3-.26-3.02-.88-1.37-1.24-.7-3.61-.69-5.48.04-.8.08-1.61.13-2.39.48-5.93.51-5.51,6.34-5.48,2.37,0,5.05,0,7.38,0,2.16.08,3.43-.29,4.2,1.05l.02.05Z" style="fill: #dcd995;"/>
      <path d="M163.04,1104.44c1.23-.49,4.06-.47,5.72-1.12,4.28-1.35,7.92-4.45,12.24-5.39,2.41-.58,4.23,1.11,3.43,3.55-1.58,4.68-8.47,3.62-12.28,8-1.6,1.74-2.54,4.43-2.95,6.76-.45,1.53,0,4.24-1.71,4.7-1.34.34-3.37.3-4.44-.14-1.55-.74-.9-3.25-1.05-4.8,0-2.34,0-5.27,0-7.56,0-1.33-.13-3.62,1-3.98l.04-.02Z" style="fill: #dcd995;"/>
      <path d="M517.57,754.22c4.1-.78,9.59.52,10.26,5.25.48,3.14-.72,6.96-2.98,9.24-5.38,5.11-11.98,1.08-13.02-5.73-.89-4.69.77-7.96,5.66-8.75h.08Z" style="fill: #dcd995;"/>
      <path d="M560.44,566.85c.05,4.3-4.44,7.41-8.46,5.93-5.63-1.95-5.54-10.18.15-11.99,3.97-1.37,8.38,1.77,8.31,5.98v.08Z" style="fill: #dcd995;"/>
      <path d="M329.72,1098.98c1.32-.91,4.66-.59,6.6-.63,1.76.05,4.14.06,4.94.93,1.35,1.35,1.51,5.59-.32,6.6-1.53.81-3.63.7-5.37.71-1.81-.03-3.73-.29-4.73-1.45-1.21-1.32-2.7-4.71-1.16-6.13l.04-.03Z" style="fill: #dcd995;"/>
      <path d="M659.38,1168.9c-.59-1.06-.33-2.59.14-3.69,1.14-2.43,4.67-1.42,8.45-1.21,1.03.09,2.26.03,3.11.61,1.22.94,1.28,3.16.65,4.45-.47.68-1.39.6-2.15.64-1.86,0-4.87,0-7.02,0-1.61-.03-2.54.05-3.15-.75l-.03-.04Z" style="fill: #dcd995;"/>
      <path d="M640.61,506.79c.53,1.59-5.34,6.67-6.58,7.95-.78.61-2.45,2.41-3.35,1.48-.58-.8-.47-2.56-.49-3.76.01-1.54-.04-3.14.04-4.64.08-1.14.41-1.59,1.41-1.72,1.1-.12,2.18-.06,3.32-.08,1.47.13,4.86-.4,5.63.74v.03Z" style="fill: #dcd995;"/>
      <path d="M163.58,82.89c.07,1.25-6.02,4.54-7.45,5.36-1.15.5-3.4,2.15-4.45,1.44-.66-.5-1.01-2.17-.89-3.35.22-2,2.57-1.93,4.16-2.38,1.95-.4,4.45-.86,6.35-1.14,1.26-.18,2.11-.21,2.28.05v.02Z" style="fill: #dcd995;"/>
    </g>
  </g>
  <g>
    <polyline points="423.42 1087.96 423.42 911.87 348.82 911.87 264.49 827.26 283.11 806.03 284.09 609.07 284.06 609.07 284.06 477.2 344.69 477.2 344.69 363.34 417.64 362.39 415.92 237.2 442.12 215.28 442.12 90.04 415.92 90.04 415.92 237.2" style="fill: none; stroke: #f37453; stroke-miterlimit: 10; stroke-width: 21.97px;"/>
    <path d="M444.08,1086.93c0,11.41-9.25,20.66-20.66,20.66s-20.66-9.25-20.66-20.66,9.25-20.65,20.66-20.65,20.66,9.25,20.66,20.65Z" style="fill: #f37453;"/>
  </g>
  <g>
    <rect x="465.82" y="1076.52" width="131.17" height="27.12" style="fill: none;"/>
    <path d="M467.29,1076.52h3.2v8.8c0,2.07,1.2,3.49,3.49,3.49s3.47-1.42,3.47-3.49v-8.8h3.22v8.89c0,3.69-2.18,6.2-6.69,6.2s-6.69-2.53-6.69-6.18v-8.92Z" style="fill: #231f20;"/>
    <path d="M490.76,1084.85c0-1.49-.78-2-1.98-2-1.11,0-1.98.62-2.45,1.27v7.23h-2.82v-10.74h2.82v1.4c.69-.82,2-1.67,3.76-1.67,2.36,0,3.49,1.33,3.49,3.42v7.58h-2.82v-6.49Z" style="fill: #231f20;"/>
    <path d="M496.09,1077.76c0-.93.78-1.67,1.69-1.67s1.69.73,1.69,1.67-.76,1.69-1.69,1.69-1.69-.76-1.69-1.69ZM496.38,1080.61h2.82v10.74h-2.82v-10.74Z" style="fill: #231f20;"/>
    <path d="M500.47,1080.61h3.02l2.8,7.47,2.8-7.47h3.05l-4.31,10.74h-3.05l-4.31-10.74Z" style="fill: #231f20;"/>
    <path d="M518.28,1080.34c3.2,0,5.38,2.4,5.38,5.91v.62h-7.98c.18,1.36,1.27,2.49,3.09,2.49,1,0,2.18-.4,2.87-1.07l1.24,1.82c-1.07.98-2.76,1.49-4.42,1.49-3.27,0-5.74-2.2-5.74-5.65,0-3.11,2.29-5.62,5.56-5.62ZM515.63,1084.97h5.29c-.07-1.02-.78-2.38-2.65-2.38-1.76,0-2.51,1.31-2.65,2.38Z" style="fill: #231f20;"/>
    <path d="M525.7,1080.61h2.82v1.47c.76-.96,2.09-1.71,3.42-1.71v2.76c-.2-.04-.47-.09-.78-.09-.93,0-2.18.53-2.65,1.22v7.09h-2.82v-10.74Z" style="fill: #231f20;"/>
    <path d="M534,1087.97c.78.73,2.38,1.47,3.71,1.47,1.22,0,1.8-.49,1.8-1.16,0-.73-.98-.93-2.16-1.16-1.85-.36-4.22-.82-4.22-3.4,0-1.8,1.58-3.38,4.4-3.38,1.82,0,3.27.62,4.33,1.47l-1.13,1.93c-.64-.69-1.87-1.25-3.18-1.25-1.02,0-1.69.47-1.69,1.07s.85.8,2.05,1.04c1.84.36,4.31.87,4.31,3.56,0,1.96-1.67,3.45-4.65,3.45-1.87,0-3.67-.62-4.8-1.67l1.22-1.98Z" style="fill: #231f20;"/>
    <path d="M544.02,1077.76c0-.93.78-1.67,1.69-1.67s1.69.73,1.69,1.67-.76,1.69-1.69,1.69-1.69-.76-1.69-1.69ZM544.31,1080.61h2.82v10.74h-2.82v-10.74Z" style="fill: #231f20;"/>
    <path d="M550.49,1088.68v-5.6h-1.78v-2.47h1.78v-2.93h2.85v2.93h2.18v2.47h-2.18v4.85c0,.67.36,1.18.98,1.18.42,0,.82-.16.98-.31l.6,2.13c-.42.38-1.18.69-2.36.69-1.98,0-3.05-1.02-3.05-2.93Z" style="fill: #231f20;"/>
    <path d="M558.38,1093.19c.73,0,1.22-.2,1.49-.78l.4-.91-4.36-10.89h3.02l2.8,7.47,2.8-7.47h3.05l-5.05,12.49c-.8,2.02-2.22,2.56-4.07,2.6-.33,0-1.04-.07-1.4-.16l.42-2.54c.24.11.62.18.89.18Z" style="fill: #231f20;"/>
  </g>
  <g>
    <rect x="455.75" y="910.43" width="131.17" height="27.12" style="fill: none;"/>
    <path d="M463.76,913.21h-7.47v-2.78h11.14v2.2l-5.51,12.63h-3.47l5.31-12.05Z" style="fill: #231f20;"/>
    <path d="M469.83,922.59v-5.6h-1.78v-2.47h1.78v-2.93h2.85v2.93h2.18v2.47h-2.18v4.85c0,.67.36,1.18.98,1.18.42,0,.82-.16.98-.31l.6,2.13c-.42.38-1.18.69-2.36.69-1.98,0-3.05-1.02-3.05-2.93Z" style="fill: #231f20;"/>
    <path d="M484.05,918.72c0-1.49-.78-1.96-2-1.96-1.09,0-1.96.62-2.45,1.27v7.23h-2.82v-14.83h2.82v5.49c.69-.82,2.02-1.67,3.78-1.67,2.36,0,3.49,1.29,3.49,3.38v7.63h-2.82v-6.54Z" style="fill: #231f20;"/>
    <path d="M496.15,920.77c1.04,1.09,2.67,2,4.71,2,1.73,0,2.58-.8,2.58-1.64,0-1.09-1.38-1.4-3-1.8-2.42-.56-5.54-1.22-5.54-4.6,0-2.47,2.13-4.51,5.62-4.51,2.36,0,4.31.71,5.78,2.07l-1.76,2.31c-1.2-1.11-2.8-1.62-4.31-1.62-1.36,0-2.11.6-2.11,1.49,0,.96,1.36,1.27,2.96,1.65,2.45.58,5.56,1.31,5.56,4.67,0,2.71-1.93,4.76-5.94,4.76-2.85,0-4.89-.96-6.27-2.36l1.71-2.4Z" style="fill: #231f20;"/>
    <path d="M509.02,922.59v-5.6h-1.78v-2.47h1.78v-2.93h2.85v2.93h2.18v2.47h-2.18v4.85c0,.67.36,1.18.98,1.18.42,0,.82-.16.98-.31l.6,2.13c-.42.38-1.18.69-2.36.69-1.98,0-3.05-1.02-3.05-2.93Z" style="fill: #231f20;"/>
    <path d="M517.42,921.9c.98,0,1.8.82,1.8,1.8s-.82,1.8-1.8,1.8-1.8-.82-1.8-1.8.82-1.8,1.8-1.8Z" style="fill: #231f20;"/>
  </g>
  <g>
    <rect x="181.68" y="751.77" width="131.17" height="27.12" style="fill: none;"/>
    <path d="M189.35,751.55c1.8,0,3.31.62,4.38,1.53l-1.42,2.42c-.8-.76-1.65-1.16-2.96-1.16-2.18,0-3.71,1.85-3.71,4.2,0,.11,0,.2.02.31.69-1,2.18-1.91,3.8-1.91,2.67,0,5.05,1.67,5.05,4.82,0,2.89-2.29,5.09-5.67,5.09-4.51,0-6.4-3.47-6.4-7.65,0-4.49,2.53-7.67,6.91-7.67ZM188.55,759.66c-1.11,0-2.18.51-2.89,1.4.13,1.42.93,3,3,3,1.71,0,2.65-1.13,2.65-2.18,0-1.56-1.33-2.22-2.76-2.22Z" style="fill: #231f20;"/>
    <path d="M196.91,763.93v-5.6h-1.78v-2.47h1.78v-2.93h2.85v2.93h2.18v2.47h-2.18v4.85c0,.67.36,1.18.98,1.18.42,0,.82-.16.98-.31l.6,2.13c-.42.38-1.18.69-2.36.69-1.98,0-3.05-1.02-3.05-2.93Z" style="fill: #231f20;"/>
    <path d="M211.14,760.06c0-1.49-.78-1.96-2-1.96-1.09,0-1.96.62-2.45,1.27v7.23h-2.82v-14.83h2.82v5.49c.69-.82,2.02-1.67,3.78-1.67,2.36,0,3.49,1.29,3.49,3.38v7.63h-2.82v-6.54Z" style="fill: #231f20;"/>
    <path d="M223.23,762.11c1.04,1.09,2.67,2,4.71,2,1.73,0,2.58-.8,2.58-1.64,0-1.09-1.38-1.4-3-1.8-2.42-.56-5.54-1.22-5.54-4.6,0-2.47,2.13-4.51,5.62-4.51,2.36,0,4.31.71,5.78,2.07l-1.76,2.31c-1.2-1.11-2.8-1.62-4.31-1.62-1.36,0-2.11.6-2.11,1.49,0,.96,1.36,1.27,2.96,1.65,2.45.58,5.56,1.31,5.56,4.67,0,2.71-1.93,4.76-5.94,4.76-2.85,0-4.89-.96-6.27-2.36l1.71-2.4Z" style="fill: #231f20;"/>
    <path d="M236.1,763.93v-5.6h-1.78v-2.47h1.78v-2.93h2.85v2.93h2.18v2.47h-2.18v4.85c0,.67.36,1.18.98,1.18.42,0,.82-.16.98-.31l.6,2.13c-.42.38-1.18.69-2.36.69-1.98,0-3.05-1.02-3.05-2.93Z" style="fill: #231f20;"/>
    <path d="M244.5,763.24c.98,0,1.8.82,1.8,1.8s-.82,1.8-1.8,1.8-1.8-.82-1.8-1.8.82-1.8,1.8-1.8Z" style="fill: #231f20;"/>
  </g>
  <g>
    <rect x="255.47" y="352.63" width="95.58" height="27.12" style="fill: none;"/>
    <path d="M263.12,364.39h-7.09v-2.49l5.89-9.27h4.36v8.98h1.91v2.78h-1.91v3.07h-3.16v-3.07ZM259.11,361.61h4v-6.18l-4,6.18Z" style="fill: #231f20;"/>
    <path d="M270.69,364.79v-5.6h-1.78v-2.47h1.78v-2.93h2.85v2.93h2.18v2.47h-2.18v4.85c0,.67.36,1.18.98,1.18.42,0,.82-.16.98-.31l.6,2.13c-.42.38-1.18.69-2.36.69-1.98,0-3.05-1.02-3.05-2.93Z" style="fill: #231f20;"/>
    <path d="M284.92,360.93c0-1.49-.78-1.96-2-1.96-1.09,0-1.96.62-2.45,1.27v7.23h-2.82v-14.83h2.82v5.49c.69-.82,2.02-1.67,3.78-1.67,2.36,0,3.49,1.29,3.49,3.38v7.63h-2.82v-6.54Z" style="fill: #231f20;"/>
    <path d="M297.01,362.97c1.04,1.09,2.67,2,4.71,2,1.73,0,2.58-.8,2.58-1.65,0-1.09-1.38-1.4-3-1.8-2.42-.56-5.54-1.22-5.54-4.6,0-2.47,2.13-4.51,5.62-4.51,2.36,0,4.31.71,5.78,2.07l-1.76,2.31c-1.2-1.11-2.8-1.62-4.31-1.62-1.36,0-2.11.6-2.11,1.49,0,.96,1.36,1.27,2.96,1.65,2.45.58,5.56,1.31,5.56,4.67,0,2.71-1.93,4.76-5.94,4.76-2.85,0-4.89-.96-6.27-2.36l1.71-2.4Z" style="fill: #231f20;"/>
    <path d="M309.88,364.79v-5.6h-1.78v-2.47h1.78v-2.93h2.85v2.93h2.18v2.47h-2.18v4.85c0,.67.36,1.18.98,1.18.42,0,.82-.16.98-.31l.6,2.13c-.42.38-1.18.69-2.36.69-1.98,0-3.05-1.02-3.05-2.93Z" style="fill: #231f20;"/>
    <path d="M318.29,364.11c.98,0,1.8.82,1.8,1.8s-.82,1.8-1.8,1.8-1.8-.82-1.8-1.8.82-1.8,1.8-1.8Z" style="fill: #231f20;"/>
  </g>
  <g>
    <rect x="276.13" y="522.15" width="27.12" height="179.38" style="fill: none;"/>
    <path d="M286.35,699.37c1.08-1.03,1.98-2.64,1.98-4.66,0-1.71-.79-2.55-1.63-2.55-1.08,0-1.38,1.36-1.78,2.97-.55,2.4-1.21,5.47-4.55,5.47-2.44,0-4.46-2.11-4.46-5.56,0-2.33.7-4.26,2.04-5.71l2.29,1.74c-1.1,1.19-1.6,2.77-1.6,4.26,0,1.34.59,2.09,1.47,2.09.94,0,1.25-1.34,1.63-2.92.57-2.42,1.3-5.49,4.61-5.49,2.68,0,4.7,1.91,4.7,5.87,0,2.81-.95,4.83-2.33,6.2l-2.37-1.69Z" style="fill: #231f20;"/>
    <path d="M285.47,687.64c-3.01,0-5.56-2.11-5.56-5.6s2.55-5.62,5.56-5.62,5.58,2.11,5.58,5.62-2.55,5.6-5.58,5.6ZM285.47,679.31c-1.65,0-3.08.99-3.08,2.72s1.43,2.7,3.08,2.7,3.1-.97,3.1-2.7-1.43-2.72-3.1-2.72Z" style="fill: #231f20;"/>
    <path d="M289.45,667.18c.81.73,1.6,2,1.6,3.74,0,2.33-1.27,3.43-3.34,3.43h-7.54v-2.79h6.44c1.47,0,1.96-.77,1.96-1.96,0-1.08-.59-1.93-1.21-2.42h-7.19v-2.79h10.61v2.79h-1.34Z" style="fill: #231f20;"/>
    <path d="M288.15,661.07h-5.54v1.76h-2.44v-1.76h-2.9v-2.81h2.9v-2.15h2.44v2.15h4.79c.66,0,1.17-.35,1.17-.97,0-.42-.15-.81-.31-.97l2.11-.59c.37.42.68,1.17.68,2.33,0,1.96-1.01,3.01-2.9,3.01Z" style="fill: #231f20;"/>
    <path d="M284.33,647.01c-1.47,0-1.93.77-1.93,1.98,0,1.08.62,1.93,1.25,2.42h7.14v2.79h-14.66v-2.79h5.43c-.81-.68-1.65-2-1.65-3.74,0-2.33,1.28-3.45,3.34-3.45h7.54v2.79h-6.46Z" style="fill: #231f20;"/>
    <path d="M280.53,623.01l10.26,4.13v1.36l-10.26,4.13h10.26v3.12h-14.66v-4.37l8.86-3.56-8.86-3.56v-4.39h14.66v3.14h-10.26Z" style="fill: #231f20;"/>
    <path d="M289.69,610.66c.86.72,1.36,1.98,1.36,3.36,0,1.69-1.14,3.69-3.52,3.69s-3.38-2-3.38-3.69c0-1.41.44-2.66,1.3-3.36h-1.47c-1.08,0-1.78.92-1.78,2.33,0,1.14.42,2.2,1.25,3.1l-1.87,1.05c-1.14-1.3-1.67-2.97-1.67-4.64,0-2.42.97-4.64,4.02-4.64h6.86v2.79h-1.1ZM286.92,610.66c-.62.46-.92,1.34-.92,2.24,0,1.1.57,2,1.6,2s1.56-.9,1.56-2c0-.9-.31-1.78-.92-2.24h-1.32Z" style="fill: #231f20;"/>
    <path d="M294.83,605.1h-14.66v-2.79h1.34c-1.03-.81-1.6-1.98-1.6-3.27,0-2.72,2.02-4.7,5.56-4.7s5.58,1.98,5.58,4.7c0,1.25-.53,2.42-1.63,3.27h5.41v2.79ZM282.4,599.92c0,.9.53,1.93,1.21,2.39h3.76c.66-.46,1.21-1.49,1.21-2.39,0-1.6-1.25-2.68-3.1-2.68s-3.08,1.08-3.08,2.68Z" style="fill: #231f20;"/>
    <path d="M276.13,592.25v-2.79h14.66v2.79h-14.66Z" style="fill: #231f20;"/>
    <path d="M279.91,581.87c0-3.16,2.37-5.32,5.85-5.32h.62v7.89c1.34-.18,2.46-1.25,2.46-3.05,0-.99-.4-2.15-1.05-2.83l1.8-1.23c.97,1.05,1.47,2.72,1.47,4.37,0,3.23-2.18,5.67-5.58,5.67-3.08,0-5.56-2.26-5.56-5.49ZM284.48,584.49v-5.23c-1.01.07-2.35.77-2.35,2.61,0,1.74,1.3,2.48,2.35,2.61Z" style="fill: #231f20;"/>
    <path d="M288.31,559.64v6.28l2.48.92v3.56l-14.66-5.67v-3.91l14.66-5.65v3.56l-2.48.9ZM285.56,565.06v-4.57l-6.31,2.29,6.31,2.29Z" style="fill: #231f20;"/>
    <path d="M280.18,555.83v-2.99l7.38-2.77-7.38-2.77v-3.01l10.61,4.26v3.01l-10.61,4.26Z" style="fill: #231f20;"/>
    <path d="M279.91,538.23c0-3.16,2.37-5.32,5.85-5.32h.62v7.89c1.34-.18,2.46-1.25,2.46-3.05,0-.99-.4-2.15-1.05-2.83l1.8-1.23c.97,1.05,1.47,2.72,1.47,4.37,0,3.23-2.18,5.67-5.58,5.67-3.08,0-5.56-2.26-5.56-5.49ZM284.48,540.85v-5.23c-1.01.07-2.35.77-2.35,2.61,0,1.74,1.3,2.48,2.35,2.61Z" style="fill: #231f20;"/>
    <path d="M287.47,529.55c0-.97.81-1.78,1.78-1.78s1.78.81,1.78,1.78-.81,1.78-1.78,1.78-1.78-.81-1.78-1.78Z" style="fill: #231f20;"/>
  </g>
  <g>
    <rect x="41.03" y="398.72" width="27.12" height="179.38" style="fill: none;"/>
    <path d="M53.21,567.44v6.29l2.48.92v3.56l-14.66-5.67v-3.91l14.66-5.65v3.56l-2.48.9ZM50.46,572.87v-4.57l-6.31,2.29,6.31,2.29Z" style="fill: #231f20;"/>
    <path d="M52.35,561.39c.72-.77,1.45-2.35,1.45-3.67,0-1.21-.48-1.78-1.14-1.78-.73,0-.92.97-1.14,2.13-.35,1.82-.81,4.18-3.36,4.18-1.78,0-3.34-1.56-3.34-4.35,0-1.8.62-3.23,1.45-4.28l1.91,1.12c-.68.64-1.23,1.85-1.23,3.14,0,1.01.46,1.67,1.05,1.67s.79-.83,1.03-2.02c.35-1.82.86-4.26,3.52-4.26,1.93,0,3.41,1.65,3.41,4.59,0,1.85-.62,3.62-1.65,4.75l-1.96-1.21Z" style="fill: #231f20;"/>
    <path d="M49.23,544.01c-1.47,0-1.93.77-1.93,1.98,0,1.08.62,1.93,1.25,2.42h7.14v2.79h-14.66v-2.79h5.43c-.81-.68-1.65-2-1.65-3.74,0-2.33,1.28-3.45,3.34-3.45h7.54v2.79h-6.46Z" style="fill: #231f20;"/>
    <path d="M53.21,523.56v6.28l2.48.92v3.56l-14.66-5.67v-3.91l14.66-5.65v3.56l-2.48.9ZM50.46,528.98v-4.57l-6.31,2.29,6.31,2.29Z" style="fill: #231f20;"/>
    <path d="M45.08,519.75v-2.99l7.38-2.77-7.38-2.77v-3.01l10.61,4.26v3.01l-10.61,4.26Z" style="fill: #231f20;"/>
    <path d="M44.81,502.15c0-3.16,2.37-5.32,5.85-5.32h.62v7.89c1.34-.18,2.46-1.25,2.46-3.05,0-.99-.4-2.15-1.05-2.83l1.8-1.23c.97,1.05,1.47,2.72,1.47,4.37,0,3.23-2.18,5.67-5.58,5.67-3.08,0-5.56-2.26-5.56-5.49ZM49.38,504.77v-5.23c-1.01.07-2.35.77-2.35,2.61,0,1.74,1.3,2.48,2.35,2.61Z" style="fill: #231f20;"/>
    <path d="M52.37,493.47c0-.97.81-1.78,1.78-1.78s1.78.81,1.78,1.78-.81,1.78-1.78,1.78-1.78-.81-1.78-1.78Z" style="fill: #231f20;"/>
  </g>
  <g>
    <rect x="414.51" y="844.06" width="27.12" height="179.38" style="fill: none;"/>
    <path d="M418.9,1009.24l10.26,4.13v1.36l-10.26,4.13h10.26v3.12h-14.66v-4.37l8.85-3.56-8.85-3.56v-4.39h14.66v3.14h-10.26Z" style="fill: #231f20;"/>
    <path d="M415.74,1003.55c-.92,0-1.65-.77-1.65-1.67s.72-1.67,1.65-1.67,1.67.75,1.67,1.67-.75,1.67-1.67,1.67ZM418.55,1003.26v-2.79h10.61v2.79h-10.61Z" style="fill: #231f20;"/>
    <path d="M414.51,997.7v-2.79h14.66v2.79h-14.66Z" style="fill: #231f20;"/>
    <path d="M414.51,992.14v-2.79h14.66v2.79h-14.66Z" style="fill: #231f20;"/>
    <path d="M426.68,971.69v6.28l2.48.92v3.56l-14.66-5.67v-3.91l14.66-5.65v3.56l-2.48.9ZM423.93,977.11v-4.57l-6.31,2.29,6.31,2.29Z" style="fill: #231f20;"/>
    <path d="M418.55,967.89v-2.99l7.38-2.77-7.38-2.77v-3.01l10.61,4.26v3.01l-10.61,4.26Z" style="fill: #231f20;"/>
    <path d="M418.29,950.28c0-3.16,2.37-5.32,5.84-5.32h.62v7.89c1.34-.18,2.46-1.25,2.46-3.05,0-.99-.39-2.15-1.05-2.83l1.8-1.23c.97,1.05,1.47,2.72,1.47,4.37,0,3.23-2.17,5.67-5.58,5.67-3.08,0-5.56-2.26-5.56-5.49ZM422.86,952.9v-5.23c-1.01.07-2.35.77-2.35,2.61,0,1.74,1.3,2.48,2.35,2.61Z" style="fill: #231f20;"/>
    <path d="M425.85,941.6c0-.97.81-1.78,1.78-1.78s1.78.81,1.78,1.78-.81,1.78-1.78,1.78-1.78-.81-1.78-1.78Z" style="fill: #231f20;"/>
  </g>
  <g>
    <rect x="181.68" y="601.56" width="131.17" height="27.12" style="fill: none;"/>
    <path d="M184.53,612.23c1,1.04,2.38,1.62,3.94,1.62,1.76,0,2.76-1,2.76-2.2,0-1.31-.98-2.2-2.67-2.2-1.22,0-2.22.36-3.11,1.2l-2.2-.58v-8.52h10.18v2.78h-7.03v3.62c.71-.71,1.91-1.25,3.27-1.25,2.51,0,4.76,1.8,4.76,4.8,0,3.16-2.36,5.14-5.94,5.14-2.58,0-4.45-.84-5.71-2.22l1.76-2.2Z" style="fill: #231f20;"/>
    <path d="M196.91,613.72v-5.6h-1.78v-2.47h1.78v-2.93h2.85v2.93h2.18v2.47h-2.18v4.85c0,.67.36,1.18.98,1.18.42,0,.82-.16.98-.31l.6,2.13c-.42.38-1.18.69-2.36.69-1.98,0-3.05-1.02-3.05-2.93Z" style="fill: #231f20;"/>
    <path d="M211.14,609.85c0-1.49-.78-1.96-2-1.96-1.09,0-1.96.62-2.45,1.27v7.23h-2.82v-14.83h2.82v5.49c.69-.82,2.02-1.67,3.78-1.67,2.36,0,3.49,1.29,3.49,3.38v7.63h-2.82v-6.54Z" style="fill: #231f20;"/>
    <path d="M223.23,611.9c1.04,1.09,2.67,2,4.71,2,1.73,0,2.58-.8,2.58-1.64,0-1.09-1.38-1.4-3-1.8-2.42-.56-5.54-1.22-5.54-4.6,0-2.47,2.13-4.51,5.62-4.51,2.36,0,4.31.71,5.78,2.07l-1.76,2.31c-1.2-1.11-2.8-1.62-4.31-1.62-1.36,0-2.11.6-2.11,1.49,0,.96,1.36,1.27,2.96,1.65,2.45.58,5.56,1.31,5.56,4.67,0,2.71-1.93,4.76-5.94,4.76-2.85,0-4.89-.96-6.27-2.36l1.71-2.4Z" style="fill: #231f20;"/>
    <path d="M236.1,613.72v-5.6h-1.78v-2.47h1.78v-2.93h2.85v2.93h2.18v2.47h-2.18v4.85c0,.67.36,1.18.98,1.18.42,0,.82-.16.98-.31l.6,2.13c-.42.38-1.18.69-2.36.69-1.98,0-3.05-1.02-3.05-2.93Z" style="fill: #231f20;"/>
    <path d="M244.5,613.03c.98,0,1.8.82,1.8,1.8s-.82,1.8-1.8,1.8-1.8-.82-1.8-1.8.82-1.8,1.8-1.8Z" style="fill: #231f20;"/>
  </g>
  <g>
    <line x1="420.57" y1="389.14" x2="420.57" y2="879.34" style="fill: none; stroke: #5f5226; stroke-miterlimit: 10; stroke-width: 21.97px;"/>
    <rect x="402.72" y="386.39" width="35.71" height="5.49" style="fill: #5f5226;"/>
    <rect x="402.72" y="876.6" width="35.71" height="5.49" style="fill: #5f5226;"/>
  </g>
  <g>
    <rect x="53.33" y="990.01" width="286.46" height="128.44" style="fill: #fff;"/>
    <g>
      <rect x="111.08" y="1066.73" width="229.82" height="38.98" style="fill: none;"/>
      <path d="M111.92,1079.27c0-.82.67-1.49,1.47-1.49.31,0,.6.09.84.27,1.02.71,2.25,1.18,3.73,1.18,1.73,0,2.58-.82,2.58-1.67,0-1.11-1.29-1.49-3-1.89-2.42-.56-5.54-1.22-5.54-4.54,0-2.47,2.13-4.47,5.85-4.47,1.69,0,3.18.4,4.6,1.22.42.22.73.71.73,1.25,0,.8-.67,1.47-1.45,1.47-.29,0-.56-.09-.76-.22-1.13-.65-2.31-.96-3.36-.96-1.65,0-2.4.62-2.4,1.51,0,1,1.25,1.31,2.96,1.71,2.45.56,5.56,1.29,5.56,4.58,0,2.71-1.93,4.76-5.94,4.76-2.18,0-3.89-.56-5.22-1.49-.4-.27-.67-.71-.67-1.22Z" style="fill: #5f5226;"/>
      <path d="M130.69,1070.71c3.2,0,5.38,2.4,5.38,5.2,0,.93-.6,1.33-1.67,1.33h-6.31c.18,1.36,1.27,2.49,3.09,2.49.71,0,1.51-.22,2.18-.6.16-.09.33-.13.53-.13.6,0,1.11.51,1.11,1.11,0,.42-.24.78-.6.98-1.04.6-2.29.89-3.54.89-3.27,0-5.74-2.2-5.74-5.65,0-3.11,2.29-5.62,5.56-5.62ZM128.04,1075.33h5.29c-.07-1.02-.78-2.38-2.65-2.38-1.76,0-2.51,1.31-2.65,2.38Z" style="fill: #5f5226;"/>
      <path d="M143.11,1070.71c1.42,0,2.47.4,3.27,1,.33.22.56.62.56,1.04,0,.69-.58,1.27-1.27,1.27-.29,0-.53-.09-.73-.24-.49-.38-1.04-.56-1.69-.56-1.71,0-2.91,1.24-2.91,3.11s1.2,3.13,2.91,3.13c.64,0,1.2-.18,1.67-.56.2-.16.47-.25.73-.25.71,0,1.29.56,1.29,1.27,0,.42-.22.82-.56,1.04-.8.6-1.85,1-3.27,1-3.31,0-5.69-2.33-5.69-5.65s2.38-5.62,5.69-5.62Z" style="fill: #5f5226;"/>
      <path d="M148.38,1076.34c0-3.05,2.13-5.62,5.67-5.62s5.69,2.58,5.69,5.62-2.13,5.65-5.69,5.65-5.67-2.58-5.67-5.65ZM156.81,1076.34c0-1.67-1-3.11-2.76-3.11s-2.73,1.44-2.73,3.11.98,3.13,2.73,3.13,2.76-1.45,2.76-3.13Z" style="fill: #5f5226;"/>
      <path d="M171.9,1074.13v6.31c0,.78-.62,1.42-1.42,1.42-.76,0-1.4-.64-1.4-1.42v-5.22c0-1.49-.78-2-1.98-2-1.11,0-1.98.62-2.45,1.27v5.96c0,.78-.64,1.42-1.4,1.42-.8,0-1.42-.64-1.42-1.42v-8.2c0-.8.62-1.45,1.4-1.45s1.45.64,1.45,1.45v.09c.69-.78,1.98-1.62,3.74-1.62,2.36,0,3.49,1.33,3.49,3.42Z" style="fill: #5f5226;"/>
      <path d="M184.93,1068.15v12.29c0,.8-.62,1.47-1.42,1.47s-1.42-.64-1.44-1.45v-.09c-.87,1.04-2.02,1.6-3.29,1.6-2.71,0-4.76-2.04-4.76-5.62s2.02-5.65,4.76-5.65c1.25,0,2.45.53,3.31,1.65v-4.2c0-.78.65-1.42,1.42-1.42s1.42.64,1.42,1.42ZM182.08,1078.25v-3.8c-.47-.71-1.49-1.22-2.45-1.22-1.6,0-2.71,1.27-2.71,3.13s1.11,3.11,2.71,3.11c.96,0,1.98-.51,2.45-1.22Z" style="fill: #5f5226;"/>
      <path d="M192.86,1079.27c0-.82.67-1.49,1.47-1.49.31,0,.6.09.84.27,1.02.71,2.25,1.18,3.73,1.18,1.73,0,2.58-.82,2.58-1.67,0-1.11-1.29-1.49-3-1.89-2.42-.56-5.54-1.22-5.54-4.54,0-2.47,2.13-4.47,5.85-4.47,1.69,0,3.18.4,4.6,1.22.42.22.73.71.73,1.25,0,.8-.67,1.47-1.45,1.47-.29,0-.56-.09-.76-.22-1.13-.65-2.31-.96-3.36-.96-1.65,0-2.4.62-2.4,1.51,0,1,1.25,1.31,2.96,1.71,2.45.56,5.56,1.29,5.56,4.58,0,2.71-1.93,4.76-5.94,4.76-2.18,0-3.89-.56-5.22-1.49-.4-.27-.67-.71-.67-1.22Z" style="fill: #5f5226;"/>
      <path d="M216.83,1072.24v8.2c0,.8-.62,1.45-1.4,1.45s-1.45-.64-1.45-1.45v-.07c-.73.8-2,1.6-3.76,1.6-2.36,0-3.47-1.29-3.47-3.38v-6.36c0-.78.62-1.42,1.42-1.42.76,0,1.4.64,1.4,1.42v5.25c0,1.49.78,1.98,1.98,1.98,1.09,0,1.96-.6,2.45-1.22v-6c0-.78.62-1.42,1.4-1.42s1.42.64,1.42,1.42Z" style="fill: #5f5226;"/>
      <path d="M229.7,1074.13v6.31c0,.78-.62,1.42-1.42,1.42-.76,0-1.4-.64-1.4-1.42v-5.22c0-1.49-.78-2-1.98-2-1.11,0-1.98.62-2.45,1.27v5.96c0,.78-.64,1.42-1.4,1.42-.8,0-1.42-.64-1.42-1.42v-8.2c0-.8.62-1.45,1.4-1.45s1.45.64,1.45,1.45v.09c.69-.78,1.98-1.62,3.74-1.62,2.36,0,3.49,1.33,3.49,3.42Z" style="fill: #5f5226;"/>
      <path d="M242.72,1068.15v12.29c0,.8-.62,1.47-1.42,1.47s-1.42-.64-1.44-1.45v-.09c-.87,1.04-2.02,1.6-3.29,1.6-2.71,0-4.76-2.04-4.76-5.62s2.02-5.65,4.76-5.65c1.25,0,2.45.53,3.31,1.65v-4.2c0-.78.65-1.42,1.42-1.42s1.42.64,1.42,1.42ZM239.88,1078.25v-3.8c-.47-.71-1.49-1.22-2.45-1.22-1.6,0-2.71,1.27-2.71,3.13s1.11,3.11,2.71,3.11c.96,0,1.98-.51,2.45-1.22Z" style="fill: #5f5226;"/>
      <path d="M254.79,1074.78v5.62c0,.8-.62,1.47-1.42,1.47-.71,0-1.33-.53-1.42-1.27-.71.84-1.98,1.38-3.38,1.38-1.71,0-3.74-1.16-3.74-3.56s2.02-3.42,3.74-3.42c1.42,0,2.69.44,3.4,1.31v-1.49c0-1.09-.93-1.8-2.36-1.8-.84,0-1.6.22-2.38.71-.16.09-.36.16-.56.16-.58,0-1.07-.49-1.07-1.09,0-.4.22-.76.51-.93,1.22-.8,2.6-1.16,3.98-1.16,2.45,0,4.69.98,4.69,4.07ZM251.97,1079.14v-1.33c-.47-.62-1.36-.93-2.27-.93-1.11,0-2.02.58-2.02,1.62s.91,1.58,2.02,1.58c.91,0,1.8-.31,2.27-.93Z" style="fill: #5f5226;"/>
      <path d="M258.35,1083.58s.09-.02.13-.02c.73-.02,1.2-.2,1.47-.78l.4-.91-3.69-9.14c-.07-.16-.09-.33-.09-.51,0-.78.6-1.4,1.38-1.4.58,0,1.11.33,1.29.87l2.58,6.85,2.56-6.85c.2-.53.73-.87,1.31-.87.8,0,1.4.62,1.4,1.4,0,.18-.04.38-.11.53l-4.36,10.72c-.8,2-2.29,2.58-3.89,2.6-.09,0-.2,0-.31-.02-.76-.02-1.27-.58-1.27-1.27s.56-1.18,1.2-1.2Z" style="fill: #5f5226;"/>
      <path d="M268.24,1079.91c0-.64.53-1.18,1.18-1.18.22,0,.42.07.6.16.87.53,1.93.91,2.91.91,1.22,0,1.8-.42,1.8-1.09,0-.76-.93-1.02-2.16-1.27-1.85-.36-4.22-.8-4.22-3.36,0-1.8,1.58-3.38,4.4-3.38,1.38,0,2.56.36,3.54.96.33.18.56.53.56.93,0,.6-.49,1.09-1.09,1.09-.18,0-.4-.04-.53-.13-.69-.42-1.53-.69-2.45-.69-1.02,0-1.69.38-1.69,1,0,.67.85.91,2.05,1.16,1.84.36,4.31.84,4.31,3.51,0,1.96-1.67,3.45-4.65,3.45-1.44,0-2.82-.36-3.96-1.04-.36-.2-.6-.6-.6-1.02Z" style="fill: #5f5226;"/>
    </g>
    <g>
      <rect x="111.08" y="1023.05" width="229.48" height="38.98" style="fill: none;"/>
      <path d="M119.57,1022.97c4.49,0,7.76,3.2,7.76,7.67s-3.27,7.67-7.76,7.67-7.74-3.2-7.74-7.67,3.27-7.67,7.74-7.67ZM119.57,1025.77c-2.73,0-4.49,2.09-4.49,4.87s1.76,4.87,4.49,4.87,4.51-2.11,4.51-4.87-1.78-4.87-4.51-4.87Z" style="fill: #5f5226;"/>
      <path d="M140.38,1032.66c0,3.58-2,5.65-4.76,5.65-1.27,0-2.42-.53-3.31-1.64v4.2c0,.78-.64,1.42-1.4,1.42-.8,0-1.42-.64-1.42-1.42v-12.29c0-.8.62-1.47,1.42-1.47s1.42.67,1.42,1.47v.07c.84-1.04,2-1.6,3.29-1.6,2.76,0,4.76,2.04,4.76,5.62ZM137.44,1032.66c0-1.85-1.09-3.11-2.71-3.11-.91,0-1.96.53-2.42,1.22v3.8c.47.67,1.51,1.22,2.42,1.22,1.62,0,2.71-1.27,2.71-3.13Z" style="fill: #5f5226;"/>
      <path d="M147.35,1027.03c3.2,0,5.38,2.4,5.38,5.2,0,.93-.6,1.33-1.67,1.33h-6.31c.18,1.36,1.27,2.49,3.09,2.49.71,0,1.51-.22,2.18-.6.16-.09.33-.13.53-.13.6,0,1.11.51,1.11,1.11,0,.42-.24.78-.6.98-1.04.6-2.29.89-3.54.89-3.27,0-5.74-2.2-5.74-5.65,0-3.11,2.29-5.62,5.56-5.62ZM144.71,1031.66h5.29c-.07-1.02-.78-2.38-2.65-2.38-1.76,0-2.51,1.31-2.65,2.38Z" style="fill: #5f5226;"/>
      <path d="M164.85,1030.46v6.31c0,.78-.62,1.42-1.42,1.42-.76,0-1.4-.64-1.4-1.42v-5.22c0-1.49-.78-2-1.98-2-1.11,0-1.98.62-2.45,1.27v5.96c0,.78-.64,1.42-1.4,1.42-.8,0-1.42-.64-1.42-1.42v-8.2c0-.8.62-1.45,1.4-1.45s1.45.64,1.45,1.45v.09c.69-.78,1.98-1.62,3.74-1.62,2.36,0,3.49,1.33,3.49,3.42Z" style="fill: #5f5226;"/>
      <path d="M172.78,1035.59c0-.82.67-1.49,1.47-1.49.31,0,.6.09.84.27,1.02.71,2.25,1.18,3.73,1.18,1.73,0,2.58-.82,2.58-1.67,0-1.11-1.29-1.49-3-1.89-2.42-.56-5.54-1.22-5.54-4.54,0-2.47,2.13-4.47,5.85-4.47,1.69,0,3.18.4,4.6,1.22.42.22.73.71.73,1.25,0,.8-.67,1.47-1.45,1.47-.29,0-.56-.09-.76-.22-1.13-.65-2.31-.96-3.36-.96-1.65,0-2.4.62-2.4,1.51,0,1,1.25,1.31,2.96,1.71,2.45.56,5.56,1.29,5.56,4.58,0,2.71-1.93,4.76-5.94,4.76-2.18,0-3.89-.56-5.22-1.49-.4-.27-.67-.71-.67-1.22Z" style="fill: #5f5226;"/>
      <path d="M192.35,1036.97c0,.56-.36.96-.84,1.11-.38.13-.87.22-1.47.22-1.98,0-3.05-1.02-3.05-2.93v-5.6h-.69c-.69,0-1.25-.56-1.25-1.22s.56-1.25,1.25-1.25h.69v-1.67c0-.78.65-1.42,1.45-1.42.76,0,1.4.64,1.4,1.42v1.67h1.11c.67,0,1.22.56,1.22,1.25s-.56,1.22-1.22,1.22h-1.11v4.85c0,.67.33,1.18.96,1.18.2,0,.33-.04.47-.04.67.04,1.09.56,1.09,1.22Z" style="fill: #5f5226;"/>
      <path d="M200.42,1028.37c0,.69-.44,1.27-1.33,1.4-.73.09-1.84.49-2.31,1.18v5.82c0,.78-.64,1.42-1.4,1.42-.8,0-1.42-.64-1.42-1.42v-8.18c0-.8.62-1.45,1.4-1.45s1.45.62,1.45,1.42l-.02.2c.47-.64,1.11-1.25,1.76-1.49.27-.11.47-.18.71-.18.76,0,1.18.58,1.18,1.27Z" style="fill: #5f5226;"/>
      <path d="M206.82,1027.03c3.2,0,5.38,2.4,5.38,5.2,0,.93-.6,1.33-1.67,1.33h-6.31c.18,1.36,1.27,2.49,3.09,2.49.71,0,1.51-.22,2.18-.6.16-.09.33-.13.53-.13.6,0,1.11.51,1.11,1.11,0,.42-.24.78-.6.98-1.04.6-2.29.89-3.54.89-3.27,0-5.74-2.2-5.74-5.65,0-3.11,2.29-5.62,5.56-5.62ZM204.17,1031.66h5.29c-.07-1.02-.78-2.38-2.65-2.38-1.76,0-2.51,1.31-2.65,2.38Z" style="fill: #5f5226;"/>
      <path d="M219.11,1027.03c3.2,0,5.38,2.4,5.38,5.2,0,.93-.6,1.33-1.67,1.33h-6.31c.18,1.36,1.27,2.49,3.09,2.49.71,0,1.51-.22,2.18-.6.16-.09.33-.13.53-.13.6,0,1.11.51,1.11,1.11,0,.42-.24.78-.6.98-1.04.6-2.29.89-3.54.89-3.27,0-5.74-2.2-5.74-5.65,0-3.11,2.29-5.62,5.56-5.62ZM216.47,1031.66h5.29c-.07-1.02-.78-2.38-2.65-2.38-1.76,0-2.51,1.31-2.65,2.38Z" style="fill: #5f5226;"/>
      <path d="M232.45,1036.97c0,.56-.36.96-.84,1.11-.38.13-.87.22-1.47.22-1.98,0-3.05-1.02-3.05-2.93v-5.6h-.69c-.69,0-1.25-.56-1.25-1.22s.56-1.25,1.25-1.25h.69v-1.67c0-.78.65-1.42,1.45-1.42.76,0,1.4.64,1.4,1.42v1.67h1.11c.67,0,1.22.56,1.22,1.25s-.56,1.22-1.22,1.22h-1.11v4.85c0,.67.33,1.18.96,1.18.2,0,.33-.04.47-.04.67.04,1.09.56,1.09,1.22Z" style="fill: #5f5226;"/>
      <path d="M233.36,1036.24c0-.64.53-1.18,1.18-1.18.22,0,.42.07.6.16.87.53,1.93.91,2.91.91,1.22,0,1.8-.42,1.8-1.09,0-.76-.93-1.02-2.16-1.27-1.85-.36-4.22-.8-4.22-3.36,0-1.8,1.58-3.38,4.4-3.38,1.38,0,2.56.36,3.54.96.33.18.56.53.56.93,0,.6-.49,1.09-1.09,1.09-.18,0-.4-.04-.53-.13-.69-.42-1.53-.69-2.45-.69-1.02,0-1.69.38-1.69,1,0,.67.85.91,2.05,1.16,1.84.36,4.31.84,4.31,3.51,0,1.96-1.67,3.45-4.65,3.45-1.44,0-2.82-.36-3.96-1.04-.36-.2-.6-.6-.6-1.02Z" style="fill: #5f5226;"/>
    </g>
    <line x1="88.76" y1="1041.24" x2="88.76" y2="1018.8" style="fill: none; stroke: #f37453; stroke-miterlimit: 10; stroke-width: 14.33px;"/>
    <line x1="88.76" y1="1086.79" x2="88.76" y2="1064.34" style="fill: none; stroke: #5f5226; stroke-miterlimit: 10; stroke-width: 14.33px;"/>
  </g>
  <line x1="365.52" y1="610.7" x2="475.63" y2="610.7" style="fill: none; stroke: #5f5226; stroke-miterlimit: 10; stroke-width: 21.97px;"/>
  <line x1="365.52" y1="760.91" x2="475.63" y2="760.91" style="fill: none; stroke: #5f5226; stroke-miterlimit: 10; stroke-width: 21.97px;"/>
  <g>
    <polygon points="434.74 232.11 425.59 221.52 435.46 222.24 434.74 232.11" style="fill: #fff;"/>
    <rect x="424.88" y="225.55" width="5.71" height="6.29" transform="translate(317.09 -243.55) rotate(48.68)" style="fill: #fff;"/>
  </g>
  <g>
    <path d="M213.89,83.42l-2.31.14.33,5.26-3.15.19-.92-14.8,6.92-.43c3.08-.19,5.09,1.71,5.26,4.46.16,2.62-1.39,4.12-2.97,4.59l3.68,5.43-3.62.22-3.23-5.08ZM214.47,76.59l-3.31.2.25,3.99,3.31-.2c1.26-.08,2.17-.89,2.09-2.13-.08-1.24-1.08-1.94-2.34-1.86Z" style="fill: #231f20;"/>
    <path d="M221.57,74.56c-.07-.93.65-1.72,1.56-1.79.93-.07,1.74.6,1.81,1.53.07.93-.62,1.74-1.56,1.81-.91.07-1.74-.62-1.81-1.56ZM222.07,77.37l2.82-.22.83,10.71-2.82.22-.83-10.71Z" style="fill: #231f20;"/>
    <path d="M227.25,82.37c-.28-3.03,1.6-5.8,5.12-6.13,3.54-.33,5.91,2.04,6.19,5.07.29,3.05-1.6,5.82-5.14,6.15-3.52.33-5.88-2.04-6.17-5.09ZM235.64,81.59c-.16-1.66-1.29-3-3.03-2.84-1.75.16-2.59,1.69-2.43,3.35.16,1.68,1.27,3.03,3.01,2.86,1.75-.16,2.61-1.7,2.45-3.38Z" style="fill: #231f20;"/>
    <path d="M247.06,81.21c1.19.93,2.92,1.6,4.95,1.31,1.72-.25,2.44-1.16,2.32-1.99-.15-1.08-1.56-1.19-3.23-1.36-2.48-.21-5.65-.43-6.13-3.77-.35-2.44,1.47-4.77,4.93-5.26,2.33-.33,4.37.09,6.01,1.23l-1.41,2.54c-1.35-.93-3-1.21-4.5-1-1.34.19-2.01.89-1.88,1.77.13.95,1.52,1.06,3.16,1.21,2.5.23,5.69.51,6.16,3.83.38,2.68-1.24,4.98-5.2,5.55-2.82.4-4.98-.25-6.54-1.45l1.35-2.62Z" style="fill: #231f20;"/>
    <path d="M266.45,81.61c-.59.97-1.75,1.68-3.14,1.9-1.69.27-3.87-.55-4.25-2.92-.4-2.48,1.45-3.7,3.14-3.97,1.4-.23,2.73.01,3.57.75l-.24-1.47c-.17-1.08-1.21-1.63-2.61-1.4-1.14.18-2.13.77-2.89,1.75l-1.35-1.69c1.11-1.35,2.69-2.15,4.36-2.41,2.41-.39,4.79.22,5.28,3.27l1.1,6.85-2.79.45-.18-1.1ZM266,78.85c-.56-.54-1.49-.71-2.39-.56-1.1.18-1.9.89-1.74,1.92.16.99,1.15,1.41,2.25,1.24.9-.15,1.73-.59,2.09-1.28l-.21-1.32Z" style="fill: #231f20;"/>
    <path d="M269.91,67.19l2.79-.43,2.24,14.66-2.79.43-2.24-14.66Z" style="fill: #231f20;"/>
    <path d="M283.9,78.97c-.6.96-1.78,1.65-3.17,1.85-1.69.25-3.86-.61-4.21-2.98-.36-2.49,1.51-3.68,3.21-3.92,1.41-.2,2.73.05,3.55.81l-.21-1.47c-.16-1.08-1.18-1.65-2.59-1.44-1.14.17-2.14.74-2.92,1.7l-1.33-1.72c1.13-1.33,2.73-2.1,4.4-2.35,2.42-.35,4.78.3,5.23,3.35l1,6.87-2.79.4-.16-1.1ZM283.5,76.2c-.55-.55-1.48-.73-2.38-.6-1.1.16-1.92.86-1.77,1.9.14.99,1.13,1.43,2.23,1.27.9-.13,1.74-.57,2.11-1.25l-.19-1.32Z" style="fill: #231f20;"/>
    <path d="M296.71,76.95c-.7,1.17-1.79,1.9-3.07,2.06-2.69.36-4.98-1.4-5.45-4.95-.46-3.48,1.26-5.86,3.97-6.22,1.26-.17,2.52.23,3.5,1.2l-.72-5.42,2.82-.37,1.94,14.7-2.82.37-.18-1.37ZM295.94,71.12c-.56-.64-1.64-1.02-2.58-.89-1.59.21-2.52,1.61-2.28,3.46.24,1.83,1.51,2.94,3.1,2.73.95-.12,1.89-.77,2.26-1.53l-.5-3.77Z" style="fill: #231f20;"/>
    <path d="M301.14,72.35c-.36-3.02,1.46-5.83,4.97-6.25,3.53-.42,5.95,1.9,6.31,4.92.36,3.05-1.46,5.86-4.99,6.27-3.51.41-5.93-1.9-6.29-4.95ZM309.51,71.36c-.2-1.66-1.36-2.97-3.1-2.77-1.74.2-2.55,1.75-2.35,3.41.2,1.68,1.34,3,3.08,2.79,1.74-.2,2.57-1.76,2.37-3.43Z" style="fill: #231f20;"/>
  </g>
  <g>
    <polygon points="655.45 100.05 627.3 100.05 641.37 85.98 655.45 100.05" style="fill: #fff;"/>
    <g>
      <rect x="620.55" y="110.87" width="43.51" height="58.01" style="fill: none;"/>
      <path d="M637.83,117.5v12.43h-4.06v-19.06h4.17l8.83,11.97v-11.97h4.06v19.06h-3.92l-9.09-12.43Z" style="fill: #fff;"/>
    </g>
  </g>
</svg>